<?plantuml 1.2026.2?><svg xmlns="http://www.w3.org/2000/svg" xmlns:xlink="http://www.w3.org/1999/xlink" contentStyleType="text/css" data-diagram-type="ACTIVITY" height="910px" preserveAspectRatio="none" style="width:1305px;height:910px;background:#FFFFFF;" version="1.1" viewBox="0 0 1305 910" width="1305px" zoomAndPan="magnify"><defs/><g><ellipse cx="253.4686" cy="20" fill="#222222" rx="10" ry="10" style="stroke:#222222;stroke-width:1;"/><rect fill="#F1F1F1" height="33.9688" rx="12.5" ry="12.5" style="stroke:#181818;stroke-width:0.5;" width="136.543" x="185.1971" y="50"/><text fill="#000000" font-family="sans-serif" font-size="12" lengthAdjust="spacing" textLength="116.543" x="195.1971" y="71.1387">User visits /register</text><rect fill="#F1F1F1" height="33.9688" rx="12.5" ry="12.5" style="stroke:#181818;stroke-width:0.5;" width="148.3027" x="179.3172" y="103.9688"/><text fill="#000000" font-family="sans-serif" font-size="12" lengthAdjust="spacing" textLength="128.3027" x="189.3172" y="125.1074">Fill Registration Form</text><rect fill="#F1F1F1" height="33.9688" rx="12.5" ry="12.5" style="stroke:#181818;stroke-width:0.5;" width="102.3535" x="202.2918" y="157.9375"/><text fill="#000000" font-family="sans-serif" font-size="12" lengthAdjust="spacing" textLength="82.3535" x="212.2918" y="179.0762">Click Register</text><polygon fill="#F1F1F1" points="209.6512,211.9063,297.2859,211.9063,309.2859,223.9063,297.2859,235.9063,209.6512,235.9063,197.6512,223.9063,209.6512,211.9063" style="stroke:#181818;stroke-width:0.5;"/><text fill="#000000" font-family="sans-serif" font-size="11" lengthAdjust="spacing" textLength="87.6348" x="209.6512" y="227.7144">All Fields Filled?</text><text fill="#000000" font-family="sans-serif" font-size="11" lengthAdjust="spacing" textLength="14.9585" x="182.6927" y="221.312">No</text><text fill="#000000" font-family="sans-serif" font-size="11" lengthAdjust="spacing" textLength="19.2178" x="309.2859" y="221.312">Yes</text><rect fill="#F1F1F1" height="33.9688" rx="12.5" ry="12.5" style="stroke:#181818;stroke-width:0.5;" width="142.3262" x="11" y="245.9063"/><text fill="#000000" font-family="sans-serif" font-size="12" lengthAdjust="spacing" textLength="122.3262" x="21" y="267.0449">Show Error Message</text><ellipse cx="82.1631" cy="310.875" fill="none" rx="11" ry="11" style="stroke:#222222;stroke-width:1;"/><ellipse cx="82.1631" cy="310.875" fill="#222222" rx="6" ry="6" style="stroke:#222222;stroke-width:1;"/><rect fill="#F1F1F1" height="33.9688" rx="12.5" ry="12.5" style="stroke:#181818;stroke-width:0.5;" width="104.1758" x="387.9437" y="245.9063"/><text fill="#000000" font-family="sans-serif" font-size="12" lengthAdjust="spacing" textLength="84.1758" x="397.9437" y="267.0449">Validate Input</text><polygon fill="#F1F1F1" points="423.4323,299.875,456.631,299.875,468.631,311.875,456.631,323.875,423.4323,323.875,411.4323,311.875,423.4323,299.875" style="stroke:#181818;stroke-width:0.5;"/><text fill="#000000" font-family="sans-serif" font-size="11" lengthAdjust="spacing" textLength="33.1987" x="423.4323" y="315.6831">Valid?</text><text fill="#000000" font-family="sans-serif" font-size="11" lengthAdjust="spacing" textLength="14.9585" x="396.4738" y="309.2808">No</text><text fill="#000000" font-family="sans-serif" font-size="11" lengthAdjust="spacing" textLength="19.2178" x="468.631" y="309.2808">Yes</text><rect fill="#F1F1F1" height="33.9688" rx="12.5" ry="12.5" style="stroke:#181818;stroke-width:0.5;" width="149.9199" x="163.3262" y="333.875"/><text fill="#000000" font-family="sans-serif" font-size="12" lengthAdjust="spacing" textLength="129.9199" x="173.3262" y="355.0137">Show Validation Error</text><ellipse cx="238.2861" cy="398.8438" fill="none" rx="11" ry="11" style="stroke:#222222;stroke-width:1;"/><ellipse cx="238.2861" cy="398.8438" fill="#222222" rx="6" ry="6" style="stroke:#222222;stroke-width:1;"/><rect fill="#F1F1F1" height="33.9688" rx="12.5" ry="12.5" style="stroke:#181818;stroke-width:0.5;" width="157.959" x="556.742" y="333.875"/><text fill="#000000" font-family="sans-serif" font-size="12" lengthAdjust="spacing" textLength="137.959" x="566.742" y="355.0137">Check Password Match</text><polygon fill="#F1F1F1" points="585.3728,387.8438,686.0701,387.8438,698.0701,399.8438,686.0701,411.8438,585.3728,411.8438,573.3728,399.8438,585.3728,387.8438" style="stroke:#181818;stroke-width:0.5;"/><text fill="#000000" font-family="sans-serif" font-size="11" lengthAdjust="spacing" textLength="100.6973" x="585.3728" y="403.6519">Passwords Match?</text><text fill="#000000" font-family="sans-serif" font-size="11" lengthAdjust="spacing" textLength="14.9585" x="558.4144" y="397.2495">No</text><text fill="#000000" font-family="sans-serif" font-size="11" lengthAdjust="spacing" textLength="19.2178" x="698.0701" y="397.2495">Yes</text><rect fill="#F1F1F1" height="33.9688" rx="12.5" ry="12.5" style="stroke:#181818;stroke-width:0.5;" width="208.2383" x="338.5037" y="421.8438"/><text fill="#000000" font-family="sans-serif" font-size="12" lengthAdjust="spacing" textLength="188.2383" x="348.5037" y="442.9824">Show Password Mismatch Error</text><ellipse cx="442.6228" cy="486.8125" fill="none" rx="11" ry="11" style="stroke:#222222;stroke-width:1;"/><ellipse cx="442.6228" cy="486.8125" fill="#222222" rx="6" ry="6" style="stroke:#222222;stroke-width:1;"/><rect fill="#F1F1F1" height="33.9688" rx="12.5" ry="12.5" style="stroke:#181818;stroke-width:0.5;" width="173.5156" x="752.8603" y="421.8438"/><text fill="#000000" font-family="sans-serif" font-size="12" lengthAdjust="spacing" textLength="153.5156" x="762.8603" y="442.9824">Check Password Strength</text><polygon fill="#F1F1F1" points="790.666,475.8125,888.5703,475.8125,900.5703,487.8125,888.5703,499.8125,790.666,499.8125,778.666,487.8125,790.666,475.8125" style="stroke:#181818;stroke-width:0.5;"/><text fill="#000000" font-family="sans-serif" font-size="11" lengthAdjust="spacing" textLength="97.9043" x="790.666" y="491.6206">Password Strong?</text><text fill="#000000" font-family="sans-serif" font-size="11" lengthAdjust="spacing" textLength="14.9585" x="763.7075" y="485.2183">No</text><text fill="#000000" font-family="sans-serif" font-size="11" lengthAdjust="spacing" textLength="19.2178" x="900.5703" y="485.2183">Yes</text><rect fill="#F1F1F1" height="33.9688" rx="12.5" ry="12.5" style="stroke:#181818;stroke-width:0.5;" width="202.5195" x="565.944" y="509.8125"/><text fill="#000000" font-family="sans-serif" font-size="12" lengthAdjust="spacing" textLength="182.5195" x="575.944" y="530.9512">Show Password Strength Error</text><ellipse cx="667.2037" cy="574.7813" fill="none" rx="11" ry="11" style="stroke:#222222;stroke-width:1;"/><ellipse cx="667.2037" cy="574.7813" fill="#222222" rx="6" ry="6" style="stroke:#222222;stroke-width:1;"/><rect fill="#F1F1F1" height="33.9688" rx="12.5" ry="12.5" style="stroke:#181818;stroke-width:0.5;" width="138.4941" x="942.7855" y="509.8125"/><text fill="#000000" font-family="sans-serif" font-size="12" lengthAdjust="spacing" textLength="118.4941" x="952.7855" y="530.9512">Check if User Exists</text><polygon fill="#F1F1F1" points="978.6835,563.7813,1045.3817,563.7813,1057.3817,575.7813,1045.3817,587.7813,978.6835,587.7813,966.6835,575.7813,978.6835,563.7813" style="stroke:#181818;stroke-width:0.5;"/><text fill="#000000" font-family="sans-serif" font-size="11" lengthAdjust="spacing" textLength="66.6982" x="978.6835" y="579.5894">User Exists?</text><text fill="#000000" font-family="sans-serif" font-size="11" lengthAdjust="spacing" textLength="19.2178" x="947.4657" y="573.187">Yes</text><text fill="#000000" font-family="sans-serif" font-size="11" lengthAdjust="spacing" textLength="14.9585" x="1057.3817" y="573.187">No</text><rect fill="#F1F1F1" height="33.9688" rx="12.5" ry="12.5" style="stroke:#181818;stroke-width:0.5;" width="156.125" x="798.4635" y="597.7813"/><text fill="#000000" font-family="sans-serif" font-size="12" lengthAdjust="spacing" textLength="136.125" x="808.4635" y="618.9199">Show User Exists Error</text><ellipse cx="876.526" cy="662.75" fill="none" rx="11" ry="11" style="stroke:#222222;stroke-width:1;"/><ellipse cx="876.526" cy="662.75" fill="#222222" rx="6" ry="6" style="stroke:#222222;stroke-width:1;"/><rect fill="#F1F1F1" height="33.9688" rx="12.5" ry="12.5" style="stroke:#181818;stroke-width:0.5;" width="162.5996" x="1066.2394" y="597.7813"/><text fill="#000000" font-family="sans-serif" font-size="12" lengthAdjust="spacing" textLength="142.5996" x="1076.2394" y="618.9199">Hash Password (bcrypt)</text><rect fill="#F1F1F1" height="33.9688" rx="12.5" ry="12.5" style="stroke:#181818;stroke-width:0.5;" width="174.8867" x="1060.0958" y="651.75"/><text fill="#000000" font-family="sans-serif" font-size="12" lengthAdjust="spacing" textLength="154.8867" x="1070.0958" y="672.8887">CREATE User in MongoDB</text><polygon fill="#F1F1F1" points="1122.4803,705.7188,1172.598,705.7188,1184.598,717.7188,1172.598,729.7188,1122.4803,729.7188,1110.4803,717.7188,1122.4803,705.7188" style="stroke:#181818;stroke-width:0.5;"/><text fill="#000000" font-family="sans-serif" font-size="11" lengthAdjust="spacing" textLength="50.1177" x="1122.4803" y="721.5269">Success?</text><text fill="#000000" font-family="sans-serif" font-size="11" lengthAdjust="spacing" textLength="19.2178" x="1091.2626" y="715.1245">Yes</text><text fill="#000000" font-family="sans-serif" font-size="11" lengthAdjust="spacing" textLength="14.9585" x="1184.598" y="715.1245">No</text><rect fill="#F1F1F1" height="33.9688" rx="12.5" ry="12.5" style="stroke:#181818;stroke-width:0.5;" width="160.9063" x="984.5885" y="739.7188"/><text fill="#000000" font-family="sans-serif" font-size="12" lengthAdjust="spacing" textLength="140.9063" x="994.5885" y="760.8574">Show Success Message</text><rect fill="#F1F1F1" height="33.9688" rx="12.5" ry="12.5" style="stroke:#181818;stroke-width:0.5;" width="123.2422" x="1003.4205" y="793.6875"/><text fill="#000000" font-family="sans-serif" font-size="12" lengthAdjust="spacing" textLength="103.2422" x="1013.4205" y="814.8262">Redirect to /login</text><rect fill="#F1F1F1" height="33.9688" rx="12.5" ry="12.5" style="stroke:#181818;stroke-width:0.5;" width="129.084" x="1165.4947" y="739.7188"/><text fill="#000000" font-family="sans-serif" font-size="12" lengthAdjust="spacing" textLength="109.084" x="1175.4947" y="760.8574">Show Server Error</text><polygon fill="#F1F1F1" points="1147.5392,833.6563,1159.5392,845.6563,1147.5392,857.6563,1135.5392,845.6563,1147.5392,833.6563" style="stroke:#181818;stroke-width:0.5;"/><ellipse cx="1147.5392" cy="888.6563" fill="none" rx="11" ry="11" style="stroke:#222222;stroke-width:1;"/><ellipse cx="1147.5392" cy="888.6563" fill="#222222" rx="6" ry="6" style="stroke:#222222;stroke-width:1;"/><line style="stroke:#181818;stroke-width:1;" x1="253.4686" x2="253.4686" y1="30" y2="50"/><polygon fill="#181818" points="249.4686,40,253.4686,50,257.4686,40,253.4686,44" style="stroke:#181818;stroke-width:1;"/><line style="stroke:#181818;stroke-width:1;" x1="253.4686" x2="253.4686" y1="83.9688" y2="103.9688"/><polygon fill="#181818" points="249.4686,93.9688,253.4686,103.9688,257.4686,93.9688,253.4686,97.9688" style="stroke:#181818;stroke-width:1;"/><line style="stroke:#181818;stroke-width:1;" x1="253.4686" x2="253.4686" y1="137.9375" y2="157.9375"/><polygon fill="#181818" points="249.4686,147.9375,253.4686,157.9375,257.4686,147.9375,253.4686,151.9375" style="stroke:#181818;stroke-width:1;"/><line style="stroke:#181818;stroke-width:1;" x1="82.1631" x2="82.1631" y1="279.875" y2="299.875"/><polygon fill="#181818" points="78.1631,289.875,82.1631,299.875,86.1631,289.875,82.1631,293.875" style="stroke:#181818;stroke-width:1;"/><line style="stroke:#181818;stroke-width:1;" x1="238.2861" x2="238.2861" y1="367.8438" y2="387.8438"/><polygon fill="#181818" points="234.2861,377.8438,238.2861,387.8438,242.2861,377.8438,238.2861,381.8438" style="stroke:#181818;stroke-width:1;"/><line style="stroke:#181818;stroke-width:1;" x1="442.6228" x2="442.6228" y1="455.8125" y2="475.8125"/><polygon fill="#181818" points="438.6228,465.8125,442.6228,475.8125,446.6228,465.8125,442.6228,469.8125" style="stroke:#181818;stroke-width:1;"/><line style="stroke:#181818;stroke-width:1;" x1="667.2037" x2="667.2037" y1="543.7813" y2="563.7813"/><polygon fill="#181818" points="663.2037,553.7813,667.2037,563.7813,671.2037,553.7813,667.2037,557.7813" style="stroke:#181818;stroke-width:1;"/><line style="stroke:#181818;stroke-width:1;" x1="876.526" x2="876.526" y1="631.75" y2="651.75"/><polygon fill="#181818" points="872.526,641.75,876.526,651.75,880.526,641.75,876.526,645.75" style="stroke:#181818;stroke-width:1;"/><line style="stroke:#181818;stroke-width:1;" x1="1147.5392" x2="1147.5392" y1="631.75" y2="651.75"/><polygon fill="#181818" points="1143.5392,641.75,1147.5392,651.75,1151.5392,641.75,1147.5392,645.75" style="stroke:#181818;stroke-width:1;"/><line style="stroke:#181818;stroke-width:1;" x1="1065.0416" x2="1065.0416" y1="773.6875" y2="793.6875"/><polygon fill="#181818" points="1061.0416,783.6875,1065.0416,793.6875,1069.0416,783.6875,1065.0416,787.6875" style="stroke:#181818;stroke-width:1;"/><line style="stroke:#181818;stroke-width:1;" x1="1110.4803" x2="1065.0416" y1="717.7188" y2="717.7188"/><line style="stroke:#181818;stroke-width:1;" x1="1065.0416" x2="1065.0416" y1="717.7188" y2="739.7188"/><polygon fill="#181818" points="1061.0416,729.7188,1065.0416,739.7188,1069.0416,729.7188,1065.0416,733.7188" style="stroke:#181818;stroke-width:1;"/><line style="stroke:#181818;stroke-width:1;" x1="1184.598" x2="1230.0367" y1="717.7188" y2="717.7188"/><line style="stroke:#181818;stroke-width:1;" x1="1230.0367" x2="1230.0367" y1="717.7188" y2="739.7188"/><polygon fill="#181818" points="1226.0367,729.7188,1230.0367,739.7188,1234.0367,729.7188,1230.0367,733.7188" style="stroke:#181818;stroke-width:1;"/><line style="stroke:#181818;stroke-width:1;" x1="1065.0416" x2="1065.0416" y1="827.6563" y2="845.6563"/><line style="stroke:#181818;stroke-width:1;" x1="1065.0416" x2="1135.5392" y1="845.6563" y2="845.6563"/><polygon fill="#181818" points="1125.5392,841.6563,1135.5392,845.6563,1125.5392,849.6563,1129.5392,845.6563" style="stroke:#181818;stroke-width:1;"/><line style="stroke:#181818;stroke-width:1;" x1="1230.0367" x2="1230.0367" y1="773.6875" y2="845.6563"/><line style="stroke:#181818;stroke-width:1;" x1="1230.0367" x2="1159.5392" y1="845.6563" y2="845.6563"/><polygon fill="#181818" points="1169.5392,841.6563,1159.5392,845.6563,1169.5392,849.6563,1165.5392,845.6563" style="stroke:#181818;stroke-width:1;"/><line style="stroke:#181818;stroke-width:1;" x1="1147.5392" x2="1147.5392" y1="685.7188" y2="705.7188"/><polygon fill="#181818" points="1143.5392,695.7188,1147.5392,705.7188,1151.5392,695.7188,1147.5392,699.7188" style="stroke:#181818;stroke-width:1;"/><line style="stroke:#181818;stroke-width:1;" x1="1147.5392" x2="1147.5392" y1="857.6563" y2="877.6563"/><polygon fill="#181818" points="1143.5392,867.6563,1147.5392,877.6563,1151.5392,867.6563,1147.5392,871.6563" style="stroke:#181818;stroke-width:1;"/><line style="stroke:#181818;stroke-width:1;" x1="966.6835" x2="876.526" y1="575.7813" y2="575.7813"/><line style="stroke:#181818;stroke-width:1;" x1="876.526" x2="876.526" y1="575.7813" y2="597.7813"/><polygon fill="#181818" points="872.526,587.7813,876.526,597.7813,880.526,587.7813,876.526,591.7813" style="stroke:#181818;stroke-width:1;"/><line style="stroke:#181818;stroke-width:1;" x1="1057.3817" x2="1147.5392" y1="575.7813" y2="575.7813"/><line style="stroke:#181818;stroke-width:1;" x1="1147.5392" x2="1147.5392" y1="575.7813" y2="597.7813"/><polygon fill="#181818" points="1143.5392,587.7813,1147.5392,597.7813,1151.5392,587.7813,1147.5392,591.7813" style="stroke:#181818;stroke-width:1;"/><line style="stroke:#181818;stroke-width:1;" x1="1012.0326" x2="1012.0326" y1="543.7813" y2="563.7813"/><polygon fill="#181818" points="1008.0326,553.7813,1012.0326,563.7813,1016.0326,553.7813,1012.0326,557.7813" style="stroke:#181818;stroke-width:1;"/><line style="stroke:#181818;stroke-width:1;" x1="778.666" x2="667.2037" y1="487.8125" y2="487.8125"/><line style="stroke:#181818;stroke-width:1;" x1="667.2037" x2="667.2037" y1="487.8125" y2="509.8125"/><polygon fill="#181818" points="663.2037,499.8125,667.2037,509.8125,671.2037,499.8125,667.2037,503.8125" style="stroke:#181818;stroke-width:1;"/><line style="stroke:#181818;stroke-width:1;" x1="900.5703" x2="1012.0326" y1="487.8125" y2="487.8125"/><line style="stroke:#181818;stroke-width:1;" x1="1012.0326" x2="1012.0326" y1="487.8125" y2="509.8125"/><polygon fill="#181818" points="1008.0326,499.8125,1012.0326,509.8125,1016.0326,499.8125,1012.0326,503.8125" style="stroke:#181818;stroke-width:1;"/><line style="stroke:#181818;stroke-width:1;" x1="839.6181" x2="839.6181" y1="455.8125" y2="475.8125"/><polygon fill="#181818" points="835.6181,465.8125,839.6181,475.8125,843.6181,465.8125,839.6181,469.8125" style="stroke:#181818;stroke-width:1;"/><line style="stroke:#181818;stroke-width:1;" x1="573.3728" x2="442.6228" y1="399.8438" y2="399.8438"/><line style="stroke:#181818;stroke-width:1;" x1="442.6228" x2="442.6228" y1="399.8438" y2="421.8438"/><polygon fill="#181818" points="438.6228,411.8438,442.6228,421.8438,446.6228,411.8438,442.6228,415.8438" style="stroke:#181818;stroke-width:1;"/><line style="stroke:#181818;stroke-width:1;" x1="698.0701" x2="839.6181" y1="399.8438" y2="399.8438"/><line style="stroke:#181818;stroke-width:1;" x1="839.6181" x2="839.6181" y1="399.8438" y2="421.8438"/><polygon fill="#181818" points="835.6181,411.8438,839.6181,421.8438,843.6181,411.8438,839.6181,415.8438" style="stroke:#181818;stroke-width:1;"/><line style="stroke:#181818;stroke-width:1;" x1="635.7215" x2="635.7215" y1="367.8438" y2="387.8438"/><polygon fill="#181818" points="631.7215,377.8438,635.7215,387.8438,639.7215,377.8438,635.7215,381.8438" style="stroke:#181818;stroke-width:1;"/><line style="stroke:#181818;stroke-width:1;" x1="411.4323" x2="238.2861" y1="311.875" y2="311.875"/><line style="stroke:#181818;stroke-width:1;" x1="238.2861" x2="238.2861" y1="311.875" y2="333.875"/><polygon fill="#181818" points="234.2861,323.875,238.2861,333.875,242.2861,323.875,238.2861,327.875" style="stroke:#181818;stroke-width:1;"/><line style="stroke:#181818;stroke-width:1;" x1="468.631" x2="635.7215" y1="311.875" y2="311.875"/><line style="stroke:#181818;stroke-width:1;" x1="635.7215" x2="635.7215" y1="311.875" y2="333.875"/><polygon fill="#181818" points="631.7215,323.875,635.7215,333.875,639.7215,323.875,635.7215,327.875" style="stroke:#181818;stroke-width:1;"/><line style="stroke:#181818;stroke-width:1;" x1="440.0316" x2="440.0316" y1="279.875" y2="299.875"/><polygon fill="#181818" points="436.0316,289.875,440.0316,299.875,444.0316,289.875,440.0316,293.875" style="stroke:#181818;stroke-width:1;"/><line style="stroke:#181818;stroke-width:1;" x1="197.6512" x2="82.1631" y1="223.9063" y2="223.9063"/><line style="stroke:#181818;stroke-width:1;" x1="82.1631" x2="82.1631" y1="223.9063" y2="245.9063"/><polygon fill="#181818" points="78.1631,235.9063,82.1631,245.9063,86.1631,235.9063,82.1631,239.9063" style="stroke:#181818;stroke-width:1;"/><line style="stroke:#181818;stroke-width:1;" x1="309.2859" x2="440.0316" y1="223.9063" y2="223.9063"/><line style="stroke:#181818;stroke-width:1;" x1="440.0316" x2="440.0316" y1="223.9063" y2="245.9063"/><polygon fill="#181818" points="436.0316,235.9063,440.0316,245.9063,444.0316,235.9063,440.0316,239.9063" style="stroke:#181818;stroke-width:1;"/><line style="stroke:#181818;stroke-width:1;" x1="253.4686" x2="253.4686" y1="191.9063" y2="211.9063"/><polygon fill="#181818" points="249.4686,201.9063,253.4686,211.9063,257.4686,201.9063,253.4686,205.9063" style="stroke:#181818;stroke-width:1;"/><?plantuml-src TP91Su8m48Nl_8ezuiax7ZhMuhG7EXrjEzDZ2YjaYecJNRNzzqs2WI1wWP1z-zwN9SJ2S99z41euIP9CC3TOIs8qYoHRoxQ5ZVysWgLMiDPcRmkhLfO_bufJ9d87wTAArnBRYi0rOlKm0svGGVggPmb0jctq6N9Zj842YKID2xjDh0y9jeIGVY5vuQTePIKOuKKTZkn4pj_lNda6rqk7G_G12r_prW0ZSzknQj3IlmcYipOL58BBfcjmCM6Vki8aC4GE_PBsJXadzzcJz6d-bWsgcflG6KEuebRr3OW9Hh0POqGWDr1w69lfBq7-Q_ye3SsE9Ihq72EFW189ho56604aFeprU1RK3CT9lqlpT-1Px96jDldoFU-2f8B2ZaO_FSOI1xmzbgMzN_TW0-v55j_5IBB1IXei6LZ3lDMrLB7WrW5wNpGdDuZh2Q2gvExkHABYi0whxksV_m00?></g></svg>