<?plantuml 1.2026.2?><svg xmlns="http://www.w3.org/2000/svg" xmlns:xlink="http://www.w3.org/1999/xlink" contentStyleType="text/css" data-diagram-type="ACTIVITY" height="768px" preserveAspectRatio="none" style="width:1090px;height:768px;background:#FFFFFF;" version="1.1" viewBox="0 0 1090 768" width="1090px" zoomAndPan="magnify"><defs/><g><ellipse cx="253.5535" cy="20" fill="#222222" rx="10" ry="10" style="stroke:#222222;stroke-width:1;"/><rect fill="#F1F1F1" height="33.9688" rx="12.5" ry="12.5" style="stroke:#181818;stroke-width:0.5;" width="119.2344" x="193.9363" y="50"/><text fill="#000000" font-family="sans-serif" font-size="12" lengthAdjust="spacing" textLength="99.2344" x="203.9363" y="71.1387">User visits /login</text><rect fill="#F1F1F1" height="33.9688" rx="12.5" ry="12.5" style="stroke:#181818;stroke-width:0.5;" width="124.3027" x="191.4021" y="103.9688"/><text fill="#000000" font-family="sans-serif" font-size="12" lengthAdjust="spacing" textLength="104.3027" x="201.4021" y="125.1074">Enter Credentials</text><rect fill="#F1F1F1" height="33.9688" rx="12.5" ry="12.5" style="stroke:#181818;stroke-width:0.5;" width="84.9922" x="211.0574" y="157.9375"/><text fill="#000000" font-family="sans-serif" font-size="12" lengthAdjust="spacing" textLength="64.9922" x="221.0574" y="179.0762">Click Login</text><polygon fill="#F1F1F1" points="220.9644,211.9063,286.1426,211.9063,298.1426,223.9063,286.1426,235.9063,220.9644,235.9063,208.9644,223.9063,220.9644,211.9063" style="stroke:#181818;stroke-width:0.5;"/><text fill="#000000" font-family="sans-serif" font-size="11" lengthAdjust="spacing" textLength="65.1782" x="220.9644" y="227.7144">Input Valid?</text><text fill="#000000" font-family="sans-serif" font-size="11" lengthAdjust="spacing" textLength="14.9585" x="194.0059" y="221.312">No</text><text fill="#000000" font-family="sans-serif" font-size="11" lengthAdjust="spacing" textLength="19.2178" x="298.1426" y="221.312">Yes</text><rect fill="#F1F1F1" height="33.9688" rx="12.5" ry="12.5" style="stroke:#181818;stroke-width:0.5;" width="142.3262" x="11" y="245.9063"/><text fill="#000000" font-family="sans-serif" font-size="12" lengthAdjust="spacing" textLength="122.3262" x="21" y="267.0449">Show Error Message</text><ellipse cx="82.1631" cy="310.875" fill="none" rx="11" ry="11" style="stroke:#222222;stroke-width:1;"/><ellipse cx="82.1631" cy="310.875" fill="#222222" rx="6" ry="6" style="stroke:#222222;stroke-width:1;"/><rect fill="#F1F1F1" height="33.9688" rx="12.5" ry="12.5" style="stroke:#181818;stroke-width:0.5;" width="122.0703" x="383.9087" y="245.9063"/><text fill="#000000" font-family="sans-serif" font-size="12" lengthAdjust="spacing" textLength="102.0703" x="393.9087" y="267.0449">Check Rate Limit</text><polygon fill="#F1F1F1" points="385.2737,299.875,504.614,299.875,516.614,311.875,504.614,323.875,385.2737,323.875,373.2737,311.875,385.2737,299.875" style="stroke:#181818;stroke-width:0.5;"/><text fill="#000000" font-family="sans-serif" font-size="11" lengthAdjust="spacing" textLength="119.3403" x="385.2737" y="315.6831">Rate Limit Exceeded?</text><text fill="#000000" font-family="sans-serif" font-size="11" lengthAdjust="spacing" textLength="19.2178" x="354.0559" y="309.2808">Yes</text><text fill="#000000" font-family="sans-serif" font-size="11" lengthAdjust="spacing" textLength="14.9585" x="516.614" y="309.2808">No</text><rect fill="#F1F1F1" height="33.9688" rx="12.5" ry="12.5" style="stroke:#181818;stroke-width:0.5;" width="187.1563" x="163.3262" y="333.875"/><text fill="#000000" font-family="sans-serif" font-size="12" lengthAdjust="spacing" textLength="167.1563" x="173.3262" y="355.0137">Show Rate Limit Error (429)</text><ellipse cx="256.9043" cy="398.8438" fill="none" rx="11" ry="11" style="stroke:#222222;stroke-width:1;"/><ellipse cx="256.9043" cy="398.8438" fill="#222222" rx="6" ry="6" style="stroke:#222222;stroke-width:1;"/><rect fill="#F1F1F1" height="33.9688" rx="12.5" ry="12.5" style="stroke:#181818;stroke-width:0.5;" width="152.4512" x="556.7578" y="333.875"/><text fill="#000000" font-family="sans-serif" font-size="12" lengthAdjust="spacing" textLength="132.4512" x="566.7578" y="355.0137">Find User in Database</text><polygon fill="#F1F1F1" points="599.6343,387.8438,666.3325,387.8438,678.3325,399.8438,666.3325,411.8438,599.6343,411.8438,587.6343,399.8438,599.6343,387.8438" style="stroke:#181818;stroke-width:0.5;"/><text fill="#000000" font-family="sans-serif" font-size="11" lengthAdjust="spacing" textLength="66.6982" x="599.6343" y="403.6519">User Exists?</text><text fill="#000000" font-family="sans-serif" font-size="11" lengthAdjust="spacing" textLength="14.9585" x="572.6758" y="397.2495">No</text><text fill="#000000" font-family="sans-serif" font-size="11" lengthAdjust="spacing" textLength="19.2178" x="678.3325" y="397.2495">Yes</text><rect fill="#F1F1F1" height="33.9688" rx="12.5" ry="12.5" style="stroke:#181818;stroke-width:0.5;" width="172.3496" x="380.4824" y="421.8438"/><text fill="#000000" font-family="sans-serif" font-size="12" lengthAdjust="spacing" textLength="152.3496" x="390.4824" y="442.9824">Show Generic Error (401)</text><ellipse cx="466.6572" cy="486.8125" fill="none" rx="11" ry="11" style="stroke:#222222;stroke-width:1;"/><ellipse cx="466.6572" cy="486.8125" fill="#222222" rx="6" ry="6" style="stroke:#222222;stroke-width:1;"/><rect fill="#F1F1F1" height="33.9688" rx="12.5" ry="12.5" style="stroke:#181818;stroke-width:0.5;" width="187.0625" x="705.7783" y="421.8438"/><text fill="#000000" font-family="sans-serif" font-size="12" lengthAdjust="spacing" textLength="167.0625" x="715.7783" y="442.9824">Compare Password (bcrypt)</text><polygon fill="#F1F1F1" points="748.3164,475.8125,850.3027,475.8125,862.3027,487.8125,850.3027,499.8125,748.3164,499.8125,736.3164,487.8125,748.3164,475.8125" style="stroke:#181818;stroke-width:0.5;"/><text fill="#000000" font-family="sans-serif" font-size="11" lengthAdjust="spacing" textLength="101.9863" x="748.3164" y="491.6206">Password Correct?</text><text fill="#000000" font-family="sans-serif" font-size="11" lengthAdjust="spacing" textLength="14.9585" x="721.3579" y="485.2183">No</text><text fill="#000000" font-family="sans-serif" font-size="11" lengthAdjust="spacing" textLength="19.2178" x="862.3027" y="485.2183">Yes</text><rect fill="#F1F1F1" height="33.9688" rx="12.5" ry="12.5" style="stroke:#181818;stroke-width:0.5;" width="172.3496" x="582.832" y="509.8125"/><text fill="#000000" font-family="sans-serif" font-size="12" lengthAdjust="spacing" textLength="152.3496" x="592.832" y="530.9512">Show Generic Error (401)</text><ellipse cx="669.0068" cy="574.7813" fill="none" rx="11" ry="11" style="stroke:#222222;stroke-width:1;"/><ellipse cx="669.0068" cy="574.7813" fill="#222222" rx="6" ry="6" style="stroke:#222222;stroke-width:1;"/><rect fill="#F1F1F1" height="33.9688" rx="12.5" ry="12.5" style="stroke:#181818;stroke-width:0.5;" width="143.0176" x="858.1035" y="509.8125"/><text fill="#000000" font-family="sans-serif" font-size="12" lengthAdjust="spacing" textLength="123.0176" x="868.1035" y="530.9512">Generate JWT Token</text><rect fill="#F1F1F1" height="33.9688" rx="12.5" ry="12.5" style="stroke:#181818;stroke-width:0.5;" width="129.582" x="864.8213" y="563.7813"/><text fill="#000000" font-family="sans-serif" font-size="12" lengthAdjust="spacing" textLength="109.582" x="874.8213" y="584.9199">Set Secure Cookie</text><polygon fill="#F1F1F1" points="888.6416,617.75,970.583,617.75,982.583,629.75,970.583,641.75,888.6416,641.75,876.6416,629.75,888.6416,617.75" style="stroke:#181818;stroke-width:0.5;"/><text fill="#000000" font-family="sans-serif" font-size="11" lengthAdjust="spacing" textLength="81.9414" x="888.6416" y="633.5581">User is Admin?</text><text fill="#000000" font-family="sans-serif" font-size="11" lengthAdjust="spacing" textLength="19.2178" x="857.4238" y="627.1558">Yes</text><text fill="#000000" font-family="sans-serif" font-size="11" lengthAdjust="spacing" textLength="14.9585" x="982.583" y="627.1558">No</text><rect fill="#F1F1F1" height="33.9688" rx="12.5" ry="12.5" style="stroke:#181818;stroke-width:0.5;" width="131.6094" x="785.1816" y="651.75"/><text fill="#000000" font-family="sans-serif" font-size="12" lengthAdjust="spacing" textLength="111.6094" x="795.1816" y="672.8887">Redirect to /admin</text><rect fill="#F1F1F1" height="33.9688" rx="12.5" ry="12.5" style="stroke:#181818;stroke-width:0.5;" width="142.8945" x="936.791" y="651.75"/><text fill="#000000" font-family="sans-serif" font-size="12" lengthAdjust="spacing" textLength="122.8945" x="946.791" y="672.8887">Redirect to /userInfo</text><polygon fill="#F1F1F1" points="929.6123,691.7188,941.6123,703.7188,929.6123,715.7188,917.6123,703.7188,929.6123,691.7188" style="stroke:#181818;stroke-width:0.5;"/><ellipse cx="929.6123" cy="746.7188" fill="none" rx="11" ry="11" style="stroke:#222222;stroke-width:1;"/><ellipse cx="929.6123" cy="746.7188" fill="#222222" rx="6" ry="6" style="stroke:#222222;stroke-width:1;"/><line style="stroke:#181818;stroke-width:1;" x1="253.5535" x2="253.5535" y1="30" y2="50"/><polygon fill="#181818" points="249.5535,40,253.5535,50,257.5535,40,253.5535,44" style="stroke:#181818;stroke-width:1;"/><line style="stroke:#181818;stroke-width:1;" x1="253.5535" x2="253.5535" y1="83.9688" y2="103.9688"/><polygon fill="#181818" points="249.5535,93.9688,253.5535,103.9688,257.5535,93.9688,253.5535,97.9688" style="stroke:#181818;stroke-width:1;"/><line style="stroke:#181818;stroke-width:1;" x1="253.5535" x2="253.5535" y1="137.9375" y2="157.9375"/><polygon fill="#181818" points="249.5535,147.9375,253.5535,157.9375,257.5535,147.9375,253.5535,151.9375" style="stroke:#181818;stroke-width:1;"/><line style="stroke:#181818;stroke-width:1;" x1="82.1631" x2="82.1631" y1="279.875" y2="299.875"/><polygon fill="#181818" points="78.1631,289.875,82.1631,299.875,86.1631,289.875,82.1631,293.875" style="stroke:#181818;stroke-width:1;"/><line style="stroke:#181818;stroke-width:1;" x1="256.9043" x2="256.9043" y1="367.8438" y2="387.8438"/><polygon fill="#181818" points="252.9043,377.8438,256.9043,387.8438,260.9043,377.8438,256.9043,381.8438" style="stroke:#181818;stroke-width:1;"/><line style="stroke:#181818;stroke-width:1;" x1="466.6572" x2="466.6572" y1="455.8125" y2="475.8125"/><polygon fill="#181818" points="462.6572,465.8125,466.6572,475.8125,470.6572,465.8125,466.6572,469.8125" style="stroke:#181818;stroke-width:1;"/><line style="stroke:#181818;stroke-width:1;" x1="669.0068" x2="669.0068" y1="543.7813" y2="563.7813"/><polygon fill="#181818" points="665.0068,553.7813,669.0068,563.7813,673.0068,553.7813,669.0068,557.7813" style="stroke:#181818;stroke-width:1;"/><line style="stroke:#181818;stroke-width:1;" x1="929.6123" x2="929.6123" y1="543.7813" y2="563.7813"/><polygon fill="#181818" points="925.6123,553.7813,929.6123,563.7813,933.6123,553.7813,929.6123,557.7813" style="stroke:#181818;stroke-width:1;"/><line style="stroke:#181818;stroke-width:1;" x1="876.6416" x2="850.9863" y1="629.75" y2="629.75"/><line style="stroke:#181818;stroke-width:1;" x1="850.9863" x2="850.9863" y1="629.75" y2="651.75"/><polygon fill="#181818" points="846.9863,641.75,850.9863,651.75,854.9863,641.75,850.9863,645.75" style="stroke:#181818;stroke-width:1;"/><line style="stroke:#181818;stroke-width:1;" x1="982.583" x2="1008.2383" y1="629.75" y2="629.75"/><line style="stroke:#181818;stroke-width:1;" x1="1008.2383" x2="1008.2383" y1="629.75" y2="651.75"/><polygon fill="#181818" points="1004.2383,641.75,1008.2383,651.75,1012.2383,641.75,1008.2383,645.75" style="stroke:#181818;stroke-width:1;"/><line style="stroke:#181818;stroke-width:1;" x1="850.9863" x2="850.9863" y1="685.7188" y2="703.7188"/><line style="stroke:#181818;stroke-width:1;" x1="850.9863" x2="917.6123" y1="703.7188" y2="703.7188"/><polygon fill="#181818" points="907.6123,699.7188,917.6123,703.7188,907.6123,707.7188,911.6123,703.7188" style="stroke:#181818;stroke-width:1;"/><line style="stroke:#181818;stroke-width:1;" x1="1008.2383" x2="1008.2383" y1="685.7188" y2="703.7188"/><line style="stroke:#181818;stroke-width:1;" x1="1008.2383" x2="941.6123" y1="703.7188" y2="703.7188"/><polygon fill="#181818" points="951.6123,699.7188,941.6123,703.7188,951.6123,707.7188,947.6123,703.7188" style="stroke:#181818;stroke-width:1;"/><line style="stroke:#181818;stroke-width:1;" x1="929.6123" x2="929.6123" y1="597.75" y2="617.75"/><polygon fill="#181818" points="925.6123,607.75,929.6123,617.75,933.6123,607.75,929.6123,611.75" style="stroke:#181818;stroke-width:1;"/><line style="stroke:#181818;stroke-width:1;" x1="929.6123" x2="929.6123" y1="715.7188" y2="735.7188"/><polygon fill="#181818" points="925.6123,725.7188,929.6123,735.7188,933.6123,725.7188,929.6123,729.7188" style="stroke:#181818;stroke-width:1;"/><line style="stroke:#181818;stroke-width:1;" x1="736.3164" x2="669.0068" y1="487.8125" y2="487.8125"/><line style="stroke:#181818;stroke-width:1;" x1="669.0068" x2="669.0068" y1="487.8125" y2="509.8125"/><polygon fill="#181818" points="665.0068,499.8125,669.0068,509.8125,673.0068,499.8125,669.0068,503.8125" style="stroke:#181818;stroke-width:1;"/><line style="stroke:#181818;stroke-width:1;" x1="862.3027" x2="929.6123" y1="487.8125" y2="487.8125"/><line style="stroke:#181818;stroke-width:1;" x1="929.6123" x2="929.6123" y1="487.8125" y2="509.8125"/><polygon fill="#181818" points="925.6123,499.8125,929.6123,509.8125,933.6123,499.8125,929.6123,503.8125" style="stroke:#181818;stroke-width:1;"/><line style="stroke:#181818;stroke-width:1;" x1="799.3096" x2="799.3096" y1="455.8125" y2="475.8125"/><polygon fill="#181818" points="795.3096,465.8125,799.3096,475.8125,803.3096,465.8125,799.3096,469.8125" style="stroke:#181818;stroke-width:1;"/><line style="stroke:#181818;stroke-width:1;" x1="587.6343" x2="466.6572" y1="399.8438" y2="399.8438"/><line style="stroke:#181818;stroke-width:1;" x1="466.6572" x2="466.6572" y1="399.8438" y2="421.8438"/><polygon fill="#181818" points="462.6572,411.8438,466.6572,421.8438,470.6572,411.8438,466.6572,415.8438" style="stroke:#181818;stroke-width:1;"/><line style="stroke:#181818;stroke-width:1;" x1="678.3325" x2="799.3096" y1="399.8438" y2="399.8438"/><line style="stroke:#181818;stroke-width:1;" x1="799.3096" x2="799.3096" y1="399.8438" y2="421.8438"/><polygon fill="#181818" points="795.3096,411.8438,799.3096,421.8438,803.3096,411.8438,799.3096,415.8438" style="stroke:#181818;stroke-width:1;"/><line style="stroke:#181818;stroke-width:1;" x1="632.9834" x2="632.9834" y1="367.8438" y2="387.8438"/><polygon fill="#181818" points="628.9834,377.8438,632.9834,387.8438,636.9834,377.8438,632.9834,381.8438" style="stroke:#181818;stroke-width:1;"/><line style="stroke:#181818;stroke-width:1;" x1="373.2737" x2="256.9043" y1="311.875" y2="311.875"/><line style="stroke:#181818;stroke-width:1;" x1="256.9043" x2="256.9043" y1="311.875" y2="333.875"/><polygon fill="#181818" points="252.9043,323.875,256.9043,333.875,260.9043,323.875,256.9043,327.875" style="stroke:#181818;stroke-width:1;"/><line style="stroke:#181818;stroke-width:1;" x1="516.614" x2="632.9834" y1="311.875" y2="311.875"/><line style="stroke:#181818;stroke-width:1;" x1="632.9834" x2="632.9834" y1="311.875" y2="333.875"/><polygon fill="#181818" points="628.9834,323.875,632.9834,333.875,636.9834,323.875,632.9834,327.875" style="stroke:#181818;stroke-width:1;"/><line style="stroke:#181818;stroke-width:1;" x1="444.9438" x2="444.9438" y1="279.875" y2="299.875"/><polygon fill="#181818" points="440.9438,289.875,444.9438,299.875,448.9438,289.875,444.9438,293.875" style="stroke:#181818;stroke-width:1;"/><line style="stroke:#181818;stroke-width:1;" x1="208.9644" x2="82.1631" y1="223.9063" y2="223.9063"/><line style="stroke:#181818;stroke-width:1;" x1="82.1631" x2="82.1631" y1="223.9063" y2="245.9063"/><polygon fill="#181818" points="78.1631,235.9063,82.1631,245.9063,86.1631,235.9063,82.1631,239.9063" style="stroke:#181818;stroke-width:1;"/><line style="stroke:#181818;stroke-width:1;" x1="298.1426" x2="444.9438" y1="223.9063" y2="223.9063"/><line style="stroke:#181818;stroke-width:1;" x1="444.9438" x2="444.9438" y1="223.9063" y2="245.9063"/><polygon fill="#181818" points="440.9438,235.9063,444.9438,245.9063,448.9438,235.9063,444.9438,239.9063" style="stroke:#181818;stroke-width:1;"/><line style="stroke:#181818;stroke-width:1;" x1="253.5535" x2="253.5535" y1="191.9063" y2="211.9063"/><polygon fill="#181818" points="249.5535,201.9063,253.5535,211.9063,257.5535,201.9063,253.5535,205.9063" style="stroke:#181818;stroke-width:1;"/><?plantuml-src ZP51Jy9048Nl_HLpB2VKU94UZAdLOD0OG0t7fHrWGjbjTWR1V-_k5jggFNZfDZFptlTcbqLPYKPlZ1O-YKaOXgLPaqwYKQR5LLEB1MeXLRAhfINbMvZK4n6j81xhQY_mhaegRWSW6zGGlvX1132QRSm1CckDXMTaLcjCN9d5L16MZ10laCDWka7dEbM2CA4TYH_ptcq5icEEBaZBE6dFcEve8CRNLpU394m48a3DhBCvsGFf0iBYfE5UYLegnbhWsQ6J7Oc5V-tLGXzHewMy8LvSdeWDyqnjqlfjpQvI5k5LCH-CBI1UvlQhaaRhyKqpDTPYBZqP_f6YawCdYJC8MdzrJnzpc9ijwgJZZW8ppFSkQshCbh3jDJT437V5ZlJVTpcPJB4Wlm28WQ7oewtBpnVf4-mTOwnNfgFH1QrwrsiQvx_w3Dzl?></g></svg>