<?plantuml 1.2026.2?><svg xmlns="http://www.w3.org/2000/svg" xmlns:xlink="http://www.w3.org/1999/xlink" contentStyleType="text/css" data-diagram-type="CLASS" height="594px" preserveAspectRatio="none" style="width:374px;height:594px;background:#FFFFFF;" version="1.1" viewBox="0 0 374 594" width="374px" zoomAndPan="magnify"><defs/><g><!--class User--><g class="entity" data-qualified-name="User" data-source-line="1" id="ent0002"><rect fill="#F1F1F1" height="276.1563" rx="2.5" ry="2.5" style="stroke:#181818;stroke-width:0.5;" width="164.9268" x="104.5" y="7"/><ellipse cx="166.7583" cy="23" fill="#ADD1B2" rx="11" ry="11" style="stroke:#181818;stroke-width:1;"/><path d="M169.7271,28.6406 Q169.1489,28.9375 168.5083,29.0781 Q167.8677,29.2344 167.1646,29.2344 Q164.6646,29.2344 163.3364,27.5938 Q162.0239,25.9375 162.0239,22.8125 Q162.0239,19.6875 163.3364,18.0313 Q164.6646,16.375 167.1646,16.375 Q167.8677,16.375 168.5083,16.5313 Q169.1646,16.6875 169.7271,16.9844 L169.7271,19.7031 Q169.1021,19.125 168.5083,18.8594 Q167.9146,18.5781 167.2896,18.5781 Q165.9458,18.5781 165.2583,19.6563 Q164.5708,20.7188 164.5708,22.8125 Q164.5708,24.9063 165.2583,25.9844 Q165.9458,27.0469 167.2896,27.0469 Q167.9146,27.0469 168.5083,26.7813 Q169.1021,26.5 169.7271,25.9219 L169.7271,28.6406 Z " fill="#000000"/><text fill="#000000" font-family="sans-serif" font-size="14" lengthAdjust="spacing" textLength="31.9102" x="187.2583" y="27.8467">User</text><line style="stroke:#181818;stroke-width:0.5;" x1="105.5" x2="268.4268" y1="39" y2="39"/><g data-visibility-modifier="PRIVATE_FIELD"><rect fill="none" height="6" style="stroke:#C82930;stroke-width:1;" width="6" x="112.5" y="49.6484"/></g><text fill="#000000" font-family="sans-serif" font-size="14" lengthAdjust="spacing" textLength="82.8379" x="124.5" y="55.9951">ObjectId _id</text><g data-visibility-modifier="PRIVATE_FIELD"><rect fill="none" height="6" style="stroke:#C82930;stroke-width:1;" width="6" x="112.5" y="65.9453"/></g><text fill="#000000" font-family="sans-serif" font-size="14" lengthAdjust="spacing" textLength="116.4707" x="124.5" y="72.292">String username</text><g data-visibility-modifier="PRIVATE_FIELD"><rect fill="none" height="6" style="stroke:#C82930;stroke-width:1;" width="6" x="112.5" y="82.2422"/></g><text fill="#000000" font-family="sans-serif" font-size="14" lengthAdjust="spacing" textLength="84.8408" x="124.5" y="88.5889">String email</text><g data-visibility-modifier="PRIVATE_FIELD"><rect fill="none" height="6" style="stroke:#C82930;stroke-width:1;" width="6" x="112.5" y="98.5391"/></g><text fill="#000000" font-family="sans-serif" font-size="14" lengthAdjust="spacing" textLength="112.9434" x="124.5" y="104.8857">String password</text><g data-visibility-modifier="PRIVATE_FIELD"><rect fill="none" height="6" style="stroke:#C82930;stroke-width:1;" width="6" x="112.5" y="114.8359"/></g><text fill="#000000" font-family="sans-serif" font-size="14" lengthAdjust="spacing" textLength="73.0557" x="124.5" y="121.1826">String role</text><g data-visibility-modifier="PRIVATE_FIELD"><rect fill="none" height="6" style="stroke:#C82930;stroke-width:1;" width="6" x="112.5" y="131.1328"/></g><text fill="#000000" font-family="sans-serif" font-size="14" lengthAdjust="spacing" textLength="86.7686" x="124.5" y="137.4795">Number age</text><g data-visibility-modifier="PRIVATE_FIELD"><rect fill="none" height="6" style="stroke:#C82930;stroke-width:1;" width="6" x="112.5" y="147.4297"/></g><text fill="#000000" font-family="sans-serif" font-size="14" lengthAdjust="spacing" textLength="95.8604" x="124.5" y="153.7764">String gender</text><g data-visibility-modifier="PRIVATE_FIELD"><rect fill="none" height="6" style="stroke:#C82930;stroke-width:1;" width="6" x="112.5" y="163.7266"/></g><text fill="#000000" font-family="sans-serif" font-size="14" lengthAdjust="spacing" textLength="105.3145" x="124.5" y="170.0732">Number height</text><g data-visibility-modifier="PRIVATE_FIELD"><rect fill="none" height="6" style="stroke:#C82930;stroke-width:1;" width="6" x="112.5" y="180.0234"/></g><text fill="#000000" font-family="sans-serif" font-size="14" lengthAdjust="spacing" textLength="107.8916" x="124.5" y="186.3701">Number weight</text><g data-visibility-modifier="PRIVATE_FIELD"><rect fill="none" height="6" style="stroke:#C82930;stroke-width:1;" width="6" x="112.5" y="196.3203"/></g><text fill="#000000" font-family="sans-serif" font-size="14" lengthAdjust="spacing" textLength="90.043" x="124.5" y="202.667">String phone</text><g data-visibility-modifier="PRIVATE_FIELD"><rect fill="none" height="6" style="stroke:#C82930;stroke-width:1;" width="6" x="112.5" y="212.6172"/></g><text fill="#000000" font-family="sans-serif" font-size="14" lengthAdjust="spacing" textLength="112.7725" x="124.5" y="218.9639">String realname</text><g data-visibility-modifier="PRIVATE_FIELD"><rect fill="none" height="6" style="stroke:#C82930;stroke-width:1;" width="6" x="112.5" y="228.9141"/></g><text fill="#000000" font-family="sans-serif" font-size="14" lengthAdjust="spacing" textLength="106.6133" x="124.5" y="235.2607">Date createdAt</text><line style="stroke:#181818;stroke-width:0.5;" x1="105.5" x2="268.4268" y1="242.5625" y2="242.5625"/><g data-visibility-modifier="PUBLIC_METHOD"><ellipse cx="115.5" cy="256.2109" fill="#84BE84" rx="3" ry="3" style="stroke:#038048;stroke-width:1;"/></g><text fill="#000000" font-family="sans-serif" font-size="14" lengthAdjust="spacing" textLength="138.9268" x="124.5" y="259.5576">comparePassword()</text><g data-visibility-modifier="PUBLIC_METHOD"><ellipse cx="115.5" cy="272.5078" fill="#84BE84" rx="3" ry="3" style="stroke:#038048;stroke-width:1;"/></g><text fill="#000000" font-family="sans-serif" font-size="14" lengthAdjust="spacing" textLength="117.0586" x="124.5" y="275.8545">generateToken()</text></g><!--class History--><g class="entity" data-qualified-name="History" data-source-line="18" id="ent0003"><rect fill="#F1F1F1" height="227.2656" rx="2.5" ry="2.5" style="stroke:#181818;stroke-width:0.5;" width="162.2197" x="7" y="360"/><ellipse cx="58.9565" cy="376" fill="#ADD1B2" rx="11" ry="11" style="stroke:#181818;stroke-width:1;"/><path d="M61.9253,381.6406 Q61.3472,381.9375 60.7065,382.0781 Q60.0659,382.2344 59.3628,382.2344 Q56.8628,382.2344 55.5347,380.5938 Q54.2222,378.9375 54.2222,375.8125 Q54.2222,372.6875 55.5347,371.0313 Q56.8628,369.375 59.3628,369.375 Q60.0659,369.375 60.7065,369.5313 Q61.3628,369.6875 61.9253,369.9844 L61.9253,372.7031 Q61.3003,372.125 60.7065,371.8594 Q60.1128,371.5781 59.4878,371.5781 Q58.144,371.5781 57.4565,372.6563 Q56.769,373.7188 56.769,375.8125 Q56.769,377.9063 57.4565,378.9844 Q58.144,380.0469 59.4878,380.0469 Q60.1128,380.0469 60.7065,379.7813 Q61.3003,379.5 61.9253,378.9219 L61.9253,381.6406 Z " fill="#000000"/><text fill="#000000" font-family="sans-serif" font-size="14" lengthAdjust="spacing" textLength="49.8066" x="79.4565" y="380.8467">History</text><line style="stroke:#181818;stroke-width:0.5;" x1="8" x2="168.2197" y1="392" y2="392"/><g data-visibility-modifier="PRIVATE_FIELD"><rect fill="none" height="6" style="stroke:#C82930;stroke-width:1;" width="6" x="15" y="402.6484"/></g><text fill="#000000" font-family="sans-serif" font-size="14" lengthAdjust="spacing" textLength="82.8379" x="27" y="408.9951">ObjectId _id</text><g data-visibility-modifier="PRIVATE_FIELD"><rect fill="none" height="6" style="stroke:#C82930;stroke-width:1;" width="6" x="15" y="418.9453"/></g><text fill="#000000" font-family="sans-serif" font-size="14" lengthAdjust="spacing" textLength="106.6133" x="27" y="425.292">ObjectId userId</text><g data-visibility-modifier="PRIVATE_FIELD"><rect fill="none" height="6" style="stroke:#C82930;stroke-width:1;" width="6" x="15" y="435.2422"/></g><text fill="#000000" font-family="sans-serif" font-size="14" lengthAdjust="spacing" textLength="130.2451" x="27" y="441.5889">String[] symptoms</text><g data-visibility-modifier="PRIVATE_FIELD"><rect fill="none" height="6" style="stroke:#C82930;stroke-width:1;" width="6" x="15" y="451.5391"/></g><text fill="#000000" font-family="sans-serif" font-size="14" lengthAdjust="spacing" textLength="112.3896" x="27" y="457.8857">String diagnosis</text><g data-visibility-modifier="PRIVATE_FIELD"><rect fill="none" height="6" style="stroke:#C82930;stroke-width:1;" width="6" x="15" y="467.8359"/></g><text fill="#000000" font-family="sans-serif" font-size="14" lengthAdjust="spacing" textLength="130.9902" x="27" y="474.1826">String recipeName</text><g data-visibility-modifier="PRIVATE_FIELD"><rect fill="none" height="6" style="stroke:#C82930;stroke-width:1;" width="6" x="15" y="484.1328"/></g><text fill="#000000" font-family="sans-serif" font-size="14" lengthAdjust="spacing" textLength="136.2197" x="27" y="490.4795">String[] ingredients</text><g data-visibility-modifier="PRIVATE_FIELD"><rect fill="none" height="6" style="stroke:#C82930;stroke-width:1;" width="6" x="15" y="500.4297"/></g><text fill="#000000" font-family="sans-serif" font-size="14" lengthAdjust="spacing" textLength="128.2148" x="27" y="506.7764">String instructions</text><g data-visibility-modifier="PRIVATE_FIELD"><rect fill="none" height="6" style="stroke:#C82930;stroke-width:1;" width="6" x="15" y="516.7266"/></g><text fill="#000000" font-family="sans-serif" font-size="14" lengthAdjust="spacing" textLength="109.7305" x="27" y="523.0732">String imageUrl</text><g data-visibility-modifier="PRIVATE_FIELD"><rect fill="none" height="6" style="stroke:#C82930;stroke-width:1;" width="6" x="15" y="533.0234"/></g><text fill="#000000" font-family="sans-serif" font-size="14" lengthAdjust="spacing" textLength="106.6133" x="27" y="539.3701">Date createdAt</text><line style="stroke:#181818;stroke-width:0.5;" x1="8" x2="168.2197" y1="546.6719" y2="546.6719"/><g data-visibility-modifier="PUBLIC_METHOD"><ellipse cx="18" cy="560.3203" fill="#84BE84" rx="3" ry="3" style="stroke:#038048;stroke-width:1;"/></g><text fill="#000000" font-family="sans-serif" font-size="14" lengthAdjust="spacing" textLength="109.5459" x="27" y="563.667">restoreDetails()</text><g data-visibility-modifier="PUBLIC_METHOD"><ellipse cx="18" cy="576.6172" fill="#84BE84" rx="3" ry="3" style="stroke:#038048;stroke-width:1;"/></g><text fill="#000000" font-family="sans-serif" font-size="14" lengthAdjust="spacing" textLength="104.2754" x="27" y="579.9639">deleteRecord()</text></g><!--class Session--><g class="entity" data-qualified-name="Session" data-source-line="32" id="ent0004"><rect fill="#F1F1F1" height="162.0781" rx="2.5" ry="2.5" style="stroke:#181818;stroke-width:0.5;" width="162.9648" x="204.5" y="392.5"/><ellipse cx="255.0244" cy="408.5" fill="#ADD1B2" rx="11" ry="11" style="stroke:#181818;stroke-width:1;"/><path d="M257.9932,414.1406 Q257.415,414.4375 256.7744,414.5781 Q256.1338,414.7344 255.4307,414.7344 Q252.9307,414.7344 251.6025,413.0938 Q250.29,411.4375 250.29,408.3125 Q250.29,405.1875 251.6025,403.5313 Q252.9307,401.875 255.4307,401.875 Q256.1338,401.875 256.7744,402.0313 Q257.4307,402.1875 257.9932,402.4844 L257.9932,405.2031 Q257.3682,404.625 256.7744,404.3594 Q256.1807,404.0781 255.5557,404.0781 Q254.2119,404.0781 253.5244,405.1563 Q252.8369,406.2188 252.8369,408.3125 Q252.8369,410.4063 253.5244,411.4844 Q254.2119,412.5469 255.5557,412.5469 Q256.1807,412.5469 256.7744,412.2813 Q257.3682,412 257.9932,411.4219 L257.9932,414.1406 Z " fill="#000000"/><text fill="#000000" font-family="sans-serif" font-size="14" lengthAdjust="spacing" textLength="53.416" x="275.5244" y="413.3467">Session</text><line style="stroke:#181818;stroke-width:0.5;" x1="205.5" x2="366.4648" y1="424.5" y2="424.5"/><g data-visibility-modifier="PRIVATE_FIELD"><rect fill="none" height="6" style="stroke:#C82930;stroke-width:1;" width="6" x="212.5" y="435.1484"/></g><text fill="#000000" font-family="sans-serif" font-size="14" lengthAdjust="spacing" textLength="85.8799" x="224.5" y="441.4951">String token</text><g data-visibility-modifier="PRIVATE_FIELD"><rect fill="none" height="6" style="stroke:#C82930;stroke-width:1;" width="6" x="212.5" y="451.4453"/></g><text fill="#000000" font-family="sans-serif" font-size="14" lengthAdjust="spacing" textLength="106.6133" x="224.5" y="457.792">ObjectId userId</text><g data-visibility-modifier="PRIVATE_FIELD"><rect fill="none" height="6" style="stroke:#C82930;stroke-width:1;" width="6" x="212.5" y="467.7422"/></g><text fill="#000000" font-family="sans-serif" font-size="14" lengthAdjust="spacing" textLength="92.2168" x="224.5" y="474.0889">String device</text><g data-visibility-modifier="PRIVATE_FIELD"><rect fill="none" height="6" style="stroke:#C82930;stroke-width:1;" width="6" x="212.5" y="484.0391"/></g><text fill="#000000" font-family="sans-serif" font-size="14" lengthAdjust="spacing" textLength="106.7158" x="224.5" y="490.3857">Date lastActive</text><g data-visibility-modifier="PRIVATE_FIELD"><rect fill="none" height="6" style="stroke:#C82930;stroke-width:1;" width="6" x="212.5" y="500.3359"/></g><text fill="#000000" font-family="sans-serif" font-size="14" lengthAdjust="spacing" textLength="136.9648" x="224.5" y="506.6826">Boolean isLoggedIn</text><line style="stroke:#181818;stroke-width:0.5;" x1="205.5" x2="366.4648" y1="513.9844" y2="513.9844"/><g data-visibility-modifier="PUBLIC_METHOD"><ellipse cx="215.5" cy="527.6328" fill="#84BE84" rx="3" ry="3" style="stroke:#038048;stroke-width:1;"/></g><text fill="#000000" font-family="sans-serif" font-size="14" lengthAdjust="spacing" textLength="67.1357" x="224.5" y="530.9795">validate()</text><g data-visibility-modifier="PUBLIC_METHOD"><ellipse cx="215.5" cy="543.9297" fill="#84BE84" rx="3" ry="3" style="stroke:#038048;stroke-width:1;"/></g><text fill="#000000" font-family="sans-serif" font-size="14" lengthAdjust="spacing" textLength="79.8984" x="224.5" y="547.2764">invalidate()</text></g><!--link User to History--><g class="link" data-entity-1="ent0002" data-entity-2="ent0003" data-link-type="association" data-source-line="42" id="lnk5"><path codeLine="42" d="M145.45,283.05 C137.69,308.61 129.67,335.06 122.18,359.79" fill="none" id="User-History" style="stroke:#181818;stroke-width:1;"/><text fill="#000000" font-family="sans-serif" font-size="13" lengthAdjust="spacing" textLength="22.9785" x="136" y="326.0669">has</text><text fill="#000000" font-family="sans-serif" font-size="13" lengthAdjust="spacing" textLength="8.271" x="134.9684" y="303.076">1</text><text fill="#000000" font-family="sans-serif" font-size="13" lengthAdjust="spacing" textLength="23.0356" x="100.627" y="349.0876">0..*</text></g><!--link User to Session--><g class="link" data-entity-1="ent0002" data-entity-2="ent0004" data-link-type="association" data-source-line="43" id="lnk6"><path codeLine="43" d="M228.55,283.05 C239.83,320.22 251.66,359.25 261.64,392.16" fill="none" id="User-Session" style="stroke:#181818;stroke-width:1;"/><text fill="#000000" font-family="sans-serif" font-size="13" lengthAdjust="spacing" textLength="22.9785" x="243" y="326.0669">has</text><text fill="#000000" font-family="sans-serif" font-size="13" lengthAdjust="spacing" textLength="8.271" x="222.6129" y="303.076">1</text><text fill="#000000" font-family="sans-serif" font-size="13" lengthAdjust="spacing" textLength="23.0356" x="235.4494" y="381.317">0..*</text></g><?plantuml-src XPBDImCn4CNl_Il2dloWHQ_UAZrOa2hMdaGaJORiQ3wMPDfInF_TsUrsJQ35Imu_NcRUUucoCYMnIX35zqY8iNXQVuAYkHOVg3kmf8ZUY0rBl7IGCt0IRGuQ7hOBiRWOWprSMcpScjT8Kymmu3N4N503cffoiliZnqLryCMO2D8EzcQIG2X617hQthiMAhX6HdZk3LvSTfINGsJLQ_W2p-ndD59T8G-OACJzkKu6qBOop-E-lOkqTmq5bt9x6gNn8M4gFIjiO56MoWFuZA0HF1Loz8dYHX46NtB7bQwYFHSzGfi5Pa3yMgbFhi42mGkeGnb3y2Man0lwuFq6Qklv9pXFtABA-kTnD6MtsmEx3_mFf1UO7eCneEU-yx6L5ZNBUrleCy2ckezPtLPYF1RLpMHoLGrFSoTgcKu9ZX4wmIy0?></g></svg>