<?plantuml 1.2026.2?><svg xmlns="http://www.w3.org/2000/svg" xmlns:xlink="http://www.w3.org/1999/xlink" contentStyleType="text/css" data-diagram-type="DESCRIPTION" height="1073px" preserveAspectRatio="none" style="width:1360px;height:1073px;background:#FFFFFF;" version="1.1" viewBox="0 0 1360 1073" width="1360px" zoomAndPan="magnify"><defs/><g><!--cluster Client (User)--><g class="cluster" data-qualified-name="Client .User." data-source-line="1" id="ent0002"><polygon fill="none" points="692,16,702,6,867,6,867,91,857,101,692,101,692,16" style="stroke:#181818;stroke-width:1;"/><line style="stroke:#181818;stroke-width:1;" x1="857" x2="867" y1="16" y2="6"/><line style="stroke:#181818;stroke-width:1;" x1="692" x2="857" y1="16" y2="16"/><line style="stroke:#181818;stroke-width:1;" x1="857" x2="857" y1="16" y2="101"/><text fill="#000000" font-family="sans-serif" font-size="14" font-weight="bold" lengthAdjust="spacing" textLength="99.7979" x="725.6011" y="31.9951">Client (User)</text></g><!--cluster Web Server (Node.js)--><g class="cluster" data-qualified-name="Web Server .Node.js." data-source-line="5" id="ent0004"><polygon fill="none" points="468,160,478,150,879,150,879,699,869,709,468,709,468,160" style="stroke:#181818;stroke-width:1;"/><line style="stroke:#181818;stroke-width:1;" x1="869" x2="879" y1="160" y2="150"/><line style="stroke:#181818;stroke-width:1;" x1="468" x2="869" y1="160" y2="160"/><line style="stroke:#181818;stroke-width:1;" x1="869" x2="869" y1="160" y2="709"/><text fill="#000000" font-family="sans-serif" font-size="14" font-weight="bold" lengthAdjust="spacing" textLength="168.8135" x="585.0933" y="175.9951">Web Server (Node.js)</text></g><!--cluster Database Server--><g class="cluster" data-qualified-name="Database Server" data-source-line="14" id="ent0011"><polygon fill="none" points="16,768,26,758,656,758,656,1046.36,646,1056.36,16,1056.36,16,768" style="stroke:#181818;stroke-width:1;"/><line style="stroke:#181818;stroke-width:1;" x1="646" x2="656" y1="768" y2="758"/><line style="stroke:#181818;stroke-width:1;" x1="16" x2="646" y1="768" y2="768"/><line style="stroke:#181818;stroke-width:1;" x1="646" x2="646" y1="768" y2="1056.36"/><text fill="#000000" font-family="sans-serif" font-size="14" font-weight="bold" lengthAdjust="spacing" textLength="131.3867" x="266.3066" y="783.9951">Database Server</text></g><!--cluster Mongo--><g class="cluster" data-qualified-name="Database Server.Mongo" data-source-line="15" id="ent0012"><rect fill="none" height="210.36" rx="2.5" ry="2.5" style="stroke:#181818;stroke-width:1;" width="576" x="48" y="814"/><polygon fill="none" points="607,819,607,833,619,833,619,825,613,819,607,819" style="stroke:#181818;stroke-width:1;"/><line style="stroke:#181818;stroke-width:1;" x1="613" x2="613" y1="819" y2="825"/><line style="stroke:#181818;stroke-width:1;" x1="619" x2="613" y1="825" y2="825"/><text fill="#000000" font-family="sans-serif" font-size="14" font-weight="bold" lengthAdjust="spacing" textLength="75.4482" x="298.2759" y="828.9951">MongoDB</text></g><!--cluster External Services (Cloud)--><g class="cluster" data-qualified-name="External Services .Cloud." data-source-line="22" id="ent0016"><polygon fill="none" points="680,791.86,690,781.86,955,781.86,955,1006.36,945,1016.36,680,1016.36,680,791.86" style="stroke:#181818;stroke-width:1;"/><line style="stroke:#181818;stroke-width:1;" x1="945" x2="955" y1="791.86" y2="781.86"/><line style="stroke:#181818;stroke-width:1;" x1="680" x2="945" y1="791.86" y2="791.86"/><line style="stroke:#181818;stroke-width:1;" x1="945" x2="945" y1="791.86" y2="1016.36"/><text fill="#000000" font-family="sans-serif" font-size="14" font-weight="bold" lengthAdjust="spacing" textLength="199.6572" x="713.6714" y="807.8551">External Services (Cloud)</text></g><!--entity Browser--><g class="entity" data-qualified-name="Client .User..Browser" data-source-line="2" id="ent0003"><rect fill="#F1F1F1" height="39.2969" rx="2.5" ry="2.5" style="stroke:#181818;stroke-width:0.5;" width="87.0391" x="735.5" y="46"/><polygon fill="#F1F1F1" points="805.5391,51,805.5391,65,817.5391,65,817.5391,57,811.5391,51,805.5391,51" style="stroke:#181818;stroke-width:0.5;"/><line style="stroke:#181818;stroke-width:0.5;" x1="811.5391" x2="811.5391" y1="51" y2="57"/><line style="stroke:#181818;stroke-width:0.5;" x1="817.5391" x2="811.5391" y1="57" y2="57"/><text fill="#000000" font-family="sans-serif" font-size="14" lengthAdjust="spacing" textLength="57.0391" x="745.5" y="71.9951">Browser</text></g><!--entity App--><g class="entity" data-qualified-name="Web Server .Node.js..App" data-source-line="6" id="ent0005"><rect fill="#F1F1F1" height="39.2969" rx="2.5" ry="2.5" style="stroke:#181818;stroke-width:0.5;" width="167.6484" x="695" y="190"/><polygon fill="#F1F1F1" points="845.6484,195,845.6484,209,857.6484,209,857.6484,201,851.6484,195,845.6484,195" style="stroke:#181818;stroke-width:0.5;"/><line style="stroke:#181818;stroke-width:0.5;" x1="851.6484" x2="851.6484" y1="195" y2="201"/><line style="stroke:#181818;stroke-width:0.5;" x1="857.6484" x2="851.6484" y1="201" y2="201"/><text fill="#000000" font-family="sans-serif" font-size="14" lengthAdjust="spacing" textLength="137.6484" x="705" y="215.9951">Express Application</text></g><!--entity Auth--><g class="entity" data-qualified-name="Web Server .Node.js..Auth" data-source-line="7" id="ent0006"><rect fill="#F1F1F1" height="39.2969" rx="2.5" ry="2.5" style="stroke:#181818;stroke-width:0.5;" width="217.8652" x="576" y="306"/><polygon fill="#F1F1F1" points="776.8652,311,776.8652,325,788.8652,325,788.8652,317,782.8652,311,776.8652,311" style="stroke:#181818;stroke-width:0.5;"/><line style="stroke:#181818;stroke-width:0.5;" x1="782.8652" x2="782.8652" y1="311" y2="317"/><line style="stroke:#181818;stroke-width:0.5;" x1="788.8652" x2="782.8652" y1="317" y2="317"/><text fill="#000000" font-family="sans-serif" font-size="14" lengthAdjust="spacing" textLength="187.8652" x="586" y="331.9951">Authentication Middleware</text></g><!--entity Rate--><g class="entity" data-qualified-name="Web Server .Node.js..Rate" data-source-line="8" id="ent0007"><rect fill="#F1F1F1" height="39.2969" rx="2.5" ry="2.5" style="stroke:#181818;stroke-width:0.5;" width="115.9346" x="626" y="422"/><polygon fill="#F1F1F1" points="724.9346,427,724.9346,441,736.9346,441,736.9346,433,730.9346,427,724.9346,427" style="stroke:#181818;stroke-width:0.5;"/><line style="stroke:#181818;stroke-width:0.5;" x1="730.9346" x2="730.9346" y1="427" y2="433"/><line style="stroke:#181818;stroke-width:0.5;" x1="736.9346" x2="730.9346" y1="433" y2="433"/><text fill="#000000" font-family="sans-serif" font-size="14" lengthAdjust="spacing" textLength="85.9346" x="636" y="447.9951">Rate Limiter</text></g><!--entity Validator--><g class="entity" data-qualified-name="Web Server .Node.js..Validator" data-source-line="9" id="ent0008"><rect fill="#F1F1F1" height="39.2969" rx="2.5" ry="2.5" style="stroke:#181818;stroke-width:0.5;" width="93.2119" x="636.5" y="538"/><polygon fill="#F1F1F1" points="712.7119,543,712.7119,557,724.7119,557,724.7119,549,718.7119,543,712.7119,543" style="stroke:#181818;stroke-width:0.5;"/><line style="stroke:#181818;stroke-width:0.5;" x1="718.7119" x2="718.7119" y1="543" y2="549"/><line style="stroke:#181818;stroke-width:0.5;" x1="724.7119" x2="718.7119" y1="549" y2="549"/><text fill="#000000" font-family="sans-serif" font-size="14" lengthAdjust="spacing" textLength="63.2119" x="646.5" y="563.9951">Validator</text></g><!--entity Controllers--><g class="entity" data-qualified-name="Web Server .Node.js..Controllers" data-source-line="10" id="ent0009"><rect fill="#F1F1F1" height="39.2969" rx="2.5" ry="2.5" style="stroke:#181818;stroke-width:0.5;" width="106.4668" x="627" y="654"/><polygon fill="#F1F1F1" points="716.4668,659,716.4668,673,728.4668,673,728.4668,665,722.4668,659,716.4668,659" style="stroke:#181818;stroke-width:0.5;"/><line style="stroke:#181818;stroke-width:0.5;" x1="722.4668" x2="722.4668" y1="659" y2="665"/><line style="stroke:#181818;stroke-width:0.5;" x1="728.4668" x2="722.4668" y1="665" y2="665"/><text fill="#000000" font-family="sans-serif" font-size="14" lengthAdjust="spacing" textLength="76.4668" x="637" y="679.9951">Controllers</text></g><!--entity Static--><g class="entity" data-qualified-name="Web Server .Node.js..Static" data-source-line="11" id="ent0010"><rect fill="#F1F1F1" height="39.2969" rx="2.5" ry="2.5" style="stroke:#181818;stroke-width:0.5;" width="175.7217" x="484" y="190"/><polygon fill="#F1F1F1" points="642.7217,195,642.7217,209,654.7217,209,654.7217,201,648.7217,195,642.7217,195" style="stroke:#181818;stroke-width:0.5;"/><line style="stroke:#181818;stroke-width:0.5;" x1="648.7217" x2="648.7217" y1="195" y2="201"/><line style="stroke:#181818;stroke-width:0.5;" x1="654.7217" x2="648.7217" y1="201" y2="201"/><text fill="#000000" font-family="sans-serif" font-size="14" lengthAdjust="spacing" textLength="145.7217" x="494" y="215.9951">Static Files (EJS/CSS)</text></g><!--entity Users--><g class="entity" data-qualified-name="Database Server.Mongo.Users" data-source-line="16" id="ent0013"><rect fill="#F1F1F1" height="39.2969" rx="2.5" ry="2.5" style="stroke:#181818;stroke-width:0.5;" width="141.5283" x="72" y="961.36"/><polygon fill="#F1F1F1" points="196.5283,966.36,196.5283,980.36,208.5283,980.36,208.5283,972.36,202.5283,966.36,196.5283,966.36" style="stroke:#181818;stroke-width:0.5;"/><line style="stroke:#181818;stroke-width:0.5;" x1="202.5283" x2="202.5283" y1="966.36" y2="972.36"/><line style="stroke:#181818;stroke-width:0.5;" x1="208.5283" x2="202.5283" y1="972.36" y2="972.36"/><text fill="#000000" font-family="sans-serif" font-size="14" lengthAdjust="spacing" textLength="111.5283" x="82" y="987.3551">users Collection</text></g><!--entity History--><g class="entity" data-qualified-name="Database Server.Mongo.History" data-source-line="17" id="ent0014"><rect fill="#F1F1F1" height="39.2969" rx="2.5" ry="2.5" style="stroke:#181818;stroke-width:0.5;" width="151.8506" x="249" y="961.36"/><polygon fill="#F1F1F1" points="383.8506,966.36,383.8506,980.36,395.8506,980.36,395.8506,972.36,389.8506,966.36,383.8506,966.36" style="stroke:#181818;stroke-width:0.5;"/><line style="stroke:#181818;stroke-width:0.5;" x1="389.8506" x2="389.8506" y1="966.36" y2="972.36"/><line style="stroke:#181818;stroke-width:0.5;" x1="395.8506" x2="389.8506" y1="972.36" y2="972.36"/><text fill="#000000" font-family="sans-serif" font-size="14" lengthAdjust="spacing" textLength="121.8506" x="259" y="987.3551">history Collection</text></g><!--entity Sessions--><g class="entity" data-qualified-name="Database Server.Mongo.Sessions" data-source-line="18" id="ent0015"><rect fill="#F1F1F1" height="39.2969" rx="2.5" ry="2.5" style="stroke:#181818;stroke-width:0.5;" width="162.8154" x="436.5" y="961.36"/><polygon fill="#F1F1F1" points="582.3154,966.36,582.3154,980.36,594.3154,980.36,594.3154,972.36,588.3154,966.36,582.3154,966.36" style="stroke:#181818;stroke-width:0.5;"/><line style="stroke:#181818;stroke-width:0.5;" x1="588.3154" x2="588.3154" y1="966.36" y2="972.36"/><line style="stroke:#181818;stroke-width:0.5;" x1="594.3154" x2="588.3154" y1="972.36" y2="972.36"/><text fill="#000000" font-family="sans-serif" font-size="14" lengthAdjust="spacing" textLength="132.8154" x="446.5" y="987.3551">sessions Collection</text></g><!--entity AI--><g class="entity" data-qualified-name="External Services .Cloud..AI" data-source-line="23" id="ent0017"><rect fill="#F1F1F1" height="39.2969" rx="2.5" ry="2.5" style="stroke:#181818;stroke-width:0.5;" width="169.1797" x="763.5" y="821.86"/><polygon fill="#F1F1F1" points="915.6797,826.86,915.6797,840.86,927.6797,840.86,927.6797,832.86,921.6797,826.86,915.6797,826.86" style="stroke:#181818;stroke-width:0.5;"/><line style="stroke:#181818;stroke-width:0.5;" x1="921.6797" x2="921.6797" y1="826.86" y2="832.86"/><line style="stroke:#181818;stroke-width:0.5;" x1="927.6797" x2="921.6797" y1="832.86" y2="832.86"/><text fill="#000000" font-family="sans-serif" font-size="14" lengthAdjust="spacing" textLength="139.1797" x="773.5" y="847.8551">Gemini/Qwen AI API</text></g><!--entity AIKey--><g class="entity" data-qualified-name="External Services .Cloud..AIKey" data-source-line="24" id="ent0018"><rect fill="#F1F1F1" height="39.2969" rx="2.5" ry="2.5" style="stroke:#181818;stroke-width:0.5;" width="100.834" x="796.5" y="961.36"/><polygon fill="#F1F1F1" points="880.334,966.36,880.334,980.36,892.334,980.36,892.334,972.36,886.334,966.36,880.334,966.36" style="stroke:#181818;stroke-width:0.5;"/><line style="stroke:#181818;stroke-width:0.5;" x1="886.334" x2="886.334" y1="966.36" y2="972.36"/><line style="stroke:#181818;stroke-width:0.5;" x1="892.334" x2="886.334" y1="972.36" y2="972.36"/><text fill="#000000" font-family="sans-serif" font-size="14" lengthAdjust="spacing" textLength="70.834" x="806.5" y="987.3551">AI API Key</text></g><g class="entity" data-qualified-name="GMN31" data-source-line="43" id="ent0032"><path d="M971,798.36 L971,837.36 L932.87,841.36 L971,845.36 L971,884.0241 A0,0 0 0 0 971,884.0241 L1151.1865,884.0241 A0,0 0 0 0 1151.1865,884.0241 L1151.1865,808.36 L1141.1865,798.36 L971,798.36 A0,0 0 0 0 971,798.36" fill="#FEFFDD" style="stroke:#181818;stroke-width:0.5;"/><path d="M1141.1865,798.36 L1141.1865,808.36 L1151.1865,808.36 L1141.1865,798.36" fill="#FEFFDD" style="stroke:#181818;stroke-width:0.5;"/><text fill="#000000" font-family="sans-serif" font-size="13" lengthAdjust="spacing" textLength="127.5815" x="977" y="815.4269">External AI Service:</text><text fill="#000000" font-family="sans-serif" font-size="13" lengthAdjust="spacing" textLength="129.6953" x="977" y="830.5597">- Google Gemini API</text><text fill="#000000" font-family="sans-serif" font-size="13" lengthAdjust="spacing" textLength="123.3096" x="977" y="845.6925">- Alibaba Qwen API</text><text fill="#000000" font-family="sans-serif" font-size="13" lengthAdjust="spacing" textLength="119.1201" x="977" y="860.8253">- Requires API Key</text><text fill="#000000" font-family="sans-serif" font-size="13" lengthAdjust="spacing" textLength="159.1865" x="977" y="875.9581">- Returns JSON response</text></g><g class="entity" data-qualified-name="GMN34" data-source-line="51" id="ent0035"><path d="M1186.5,805.86 L1186.5,876.3912 L1353.4771,876.3912 L1353.4771,815.86 L1343.4771,805.86 L1186.5,805.86" fill="#FEFFDD" style="stroke:#181818;stroke-width:0.5;"/><path d="M1343.4771,805.86 L1343.4771,815.86 L1353.4771,815.86 L1343.4771,805.86" fill="#FEFFDD" style="stroke:#181818;stroke-width:1;"/><text fill="#000000" font-family="sans-serif" font-size="13" lengthAdjust="spacing" textLength="145.9771" x="1192.5" y="822.9269">Local/Cloud Database:</text><text fill="#000000" font-family="sans-serif" font-size="13" lengthAdjust="spacing" textLength="106.4883" x="1192.5" y="838.0597">- MongoDB 6.x+</text><text fill="#000000" font-family="sans-serif" font-size="13" lengthAdjust="spacing" textLength="110.7539" x="1192.5" y="853.1925">- Mongoose ODM</text><text fill="#000000" font-family="sans-serif" font-size="13" lengthAdjust="spacing" textLength="109.1987" x="1192.5" y="868.3253">- Data Validation</text></g><!--link Browser to App--><g class="link" data-entity-1="ent0003" data-entity-2="ent0005" data-link-type="dependency" data-source-line="27" id="lnk19"><path d="M779,85.06 C779,112.28 779,156.71 779,183.93" fill="none" id="Browser-to-App" style="stroke:#181818;stroke-width:1;"/><polygon fill="#181818" points="779,189.93,783,180.93,779,184.93,775,180.93,779,189.93" style="stroke:#181818;stroke-width:1;"/><text fill="#000000" font-family="sans-serif" font-size="13" lengthAdjust="spacing" textLength="102.1719" x="780" y="130.0669">HTTPS (HTTP/2)</text></g><!--link App to Auth--><g class="link" data-entity-1="ent0005" data-entity-2="ent0006" data-link-type="dependency" data-source-line="28" id="lnk20"><path d="M763.69,229.07 C746.21,250.27 721.5957,280.1096 704.1257,301.3096" fill="none" id="App-to-Auth" style="stroke:#181818;stroke-width:1;"/><polygon fill="#181818" points="700.31,305.94,709.1205,301.5382,703.4897,302.0813,702.9466,296.4506,700.31,305.94" style="stroke:#181818;stroke-width:1;"/><text fill="#000000" font-family="sans-serif" font-size="13" lengthAdjust="spacing" textLength="62.2007" x="738" y="272.0669">Authorize</text></g><!--link Auth to Rate--><g class="link" data-entity-1="ent0006" data-entity-2="ent0007" data-link-type="dependency" data-source-line="29" id="lnk21"><path d="M684.84,345.07 C684.65,366.27 684.4038,394.7402 684.2138,415.9402" fill="none" id="Auth-to-Rate" style="stroke:#181818;stroke-width:1;"/><polygon fill="#181818" points="684.16,421.94,688.2405,412.9762,684.2048,416.9402,680.2408,412.9045,684.16,421.94" style="stroke:#181818;stroke-width:1;"/><text fill="#000000" font-family="sans-serif" font-size="13" lengthAdjust="spacing" textLength="76.3496" x="685" y="388.0669">Limit Check</text></g><!--link Rate to Validator--><g class="link" data-entity-1="ent0007" data-entity-2="ent0008" data-link-type="dependency" data-source-line="30" id="lnk22"><path d="M683.84,461.07 C683.65,482.27 683.4038,510.7402 683.2138,531.9402" fill="none" id="Rate-to-Validator" style="stroke:#181818;stroke-width:1;"/><polygon fill="#181818" points="683.16,537.94,687.2405,528.9762,683.2048,532.9402,679.2408,528.9045,683.16,537.94" style="stroke:#181818;stroke-width:1;"/><text fill="#000000" font-family="sans-serif" font-size="13" lengthAdjust="spacing" textLength="91.1904" x="684" y="504.0669">Validate Input</text></g><!--link Validator to Controllers--><g class="link" data-entity-1="ent0008" data-entity-2="ent0009" data-link-type="dependency" data-source-line="31" id="lnk23"><path d="M682.51,577.07 C681.95,598.27 681.2084,626.7421 680.6484,647.9421" fill="none" id="Validator-to-Controllers" style="stroke:#181818;stroke-width:1;"/><polygon fill="#181818" points="680.49,653.94,684.7263,645.0488,680.622,648.9417,676.729,644.8375,680.49,653.94" style="stroke:#181818;stroke-width:1;"/><text fill="#000000" font-family="sans-serif" font-size="13" lengthAdjust="spacing" textLength="107.3516" x="682" y="620.0669">Process Request</text></g><!--link Controllers to Mongo--><g class="link" data-entity-1="ent0009" data-entity-2="ent0012" data-link-type="dependency" data-source-line="32" id="lnk24"><path d="M626.68,676.46 C590.99,680.85 546.25,692.97 522,725 C506.76,745.13 505.5525,773.39 508.2563,796.9012 C508.9322,802.7791 509.8526,808.3601 510.8593,813.4431 C510.8907,813.6019 509.7438,807.8771 509.7754,808.035" fill="none" id="Controllers-to-Mongo" style="stroke:#181818;stroke-width:1;"/><polygon fill="#181818" points="510.9539,813.9181,513.1082,804.3078,509.9718,809.0155,505.2641,805.8791,510.9539,813.9181" style="stroke:#181818;stroke-width:1;"/><text fill="#000000" font-family="sans-serif" font-size="13" lengthAdjust="spacing" textLength="113.2358" x="523" y="738.0669">CRUD Operations</text></g><!--link Controllers to AI--><g class="link" data-entity-1="ent0009" data-entity-2="ent0017" data-link-type="dependency" data-source-line="33" id="lnk25"><path d="M673.99,693.26 C670.58,707.58 668.48,727.28 677,742 C699.98,781.73 740.1557,804.6413 778.5657,819.5313" fill="none" id="Controllers-to-AI" style="stroke:#181818;stroke-width:1;"/><polygon fill="#181818" points="784.16,821.7,777.2143,814.7174,779.498,819.8927,774.3227,822.1765,784.16,821.7" style="stroke:#181818;stroke-width:1;"/><text fill="#000000" font-family="sans-serif" font-size="13" lengthAdjust="spacing" textLength="143.292" x="678" y="738.0669">API Call (AI Diagnosis)</text></g><!--link Mongo to Users--><g class="link" data-entity-1="ent0012" data-entity-2="ent0013" data-link-type="dependency" data-source-line="35" id="lnk26"><path d="M517.88,842.4 C513.02,844.08 356.39,898.3 232,945.36 C218.52,950.46 209.5136,953.9094 196.1136,959.1094" fill="none" id="Mongo-to-Users" style="stroke:#181818;stroke-width:1;"/><polygon fill="#181818" points="190.52,961.28,200.3575,961.7531,195.1813,959.4711,197.4633,954.295,190.52,961.28" style="stroke:#181818;stroke-width:1;"/><text fill="#000000" font-family="sans-serif" font-size="13" lengthAdjust="spacing" textLength="72.5347" x="311" y="927.4269">Read/Write</text></g><!--link Mongo to History--><g class="link" data-entity-1="ent0012" data-entity-2="ent0014" data-link-type="dependency" data-source-line="36" id="lnk27"><path d="M517.86,842.46 C513.39,845.65 407.5968,921.0188 355.9668,957.7988" fill="none" id="Mongo-to-History" style="stroke:#181818;stroke-width:1;"/><polygon fill="#181818" points="351.08,961.28,360.731,959.316,355.1523,958.379,356.0894,952.8003,351.08,961.28" style="stroke:#181818;stroke-width:1;"/><text fill="#000000" font-family="sans-serif" font-size="13" lengthAdjust="spacing" textLength="72.5347" x="416" y="927.4269">Read/Write</text></g><!--link Mongo to Sessions--><g class="link" data-entity-1="ent0012" data-entity-2="ent0015" data-link-type="dependency" data-source-line="37" id="lnk28"><path d="M518,842.46 C518,845.65 518,918.5 518,955.28" fill="none" id="Mongo-to-Sessions" style="stroke:#181818;stroke-width:1;"/><polygon fill="#181818" points="518,961.28,522,952.28,518,956.28,514,952.28,518,961.28" style="stroke:#181818;stroke-width:1;"/><text fill="#000000" font-family="sans-serif" font-size="13" lengthAdjust="spacing" textLength="72.5347" x="519" y="927.4269">Read/Write</text></g><!--link AI to AIKey--><g class="link" data-entity-1="ent0017" data-entity-2="ent0018" data-link-type="dependency" data-source-line="39" id="lnk29"><path d="M847.87,860.9 C847.67,887.15 847.3733,928.8502 847.1833,955.1702" fill="none" id="AI-to-AIKey" style="stroke:#181818;stroke-width:1;"/><polygon fill="#181818" points="847.14,961.17,851.2049,952.1991,847.1761,956.1701,843.2051,952.1414,847.14,961.17" style="stroke:#181818;stroke-width:1;"/><text fill="#000000" font-family="sans-serif" font-size="13" lengthAdjust="spacing" textLength="83.624" x="848" y="927.4269">Authenticate</text></g><!--link AI to App--><g class="link" data-entity-1="ent0017" data-entity-2="ent0005" data-link-type="dependency" data-source-line="40" id="lnk30"><path d="M848,821.46 C848,790.67 848,727.77 848,674.5 C848,324.5 848,324.5 848,324.5 C848,286.33 823.5186,254.3057 803.1386,233.3057" fill="none" id="AI-to-App" style="stroke:#181818;stroke-width:1;"/><polygon fill="#181818" points="798.96,229,802.3574,238.2443,802.4422,232.5881,808.0984,232.6729,798.96,229" style="stroke:#181818;stroke-width:1;"/><text fill="#000000" font-family="sans-serif" font-size="13" lengthAdjust="spacing" textLength="118.0474" x="849" y="504.0669">Returns Diagnosis</text></g><!--link GMN34 to Mongo--><g class="link" data-entity-1="ent0035" data-entity-2="ent0012" data-link-type="association" data-source-line="51" id="lnk36"><path d="M1243.25,805.79 C1221.68,780.28 1188.86,747.96 1151.5,733.5 C1111.5,718.02 807.49,724.75 765.5,733.5 C708.6,745.36 648.7525,771.0375 602.1638,794.3638 C590.5166,800.1953 579.698,805.8799 569.9614,811.1649 C568.7443,811.8256 567.5442,812.48 566.3614,813.1276 C566.0657,813.2895 565.7711,813.451 565.4776,813.6121" fill="none" id="GMN34-Mongo" style="stroke:#181818;stroke-width:1;stroke-dasharray:7,7;"/></g><?plantuml-src TLHDSzem4BthL-nmWkaGPdBeWKDdYA49QGWK9yrPs0ieLIHNaWjf9_-zgmyCXkd9qdjlfVruij8bGYUJ0fM3xhD5q-l0NmR0ZHDhNZZet1Yz8xm3t49Qim_6L8XymHNaQ7wZWUuZ8LUlzkA0oRuoQ2sCgagAWZkXLJYCzYtTg7PRIYD9O2RAKkAE6ungOblo9NS83-9Dk9IS1rgA7roAaZiTwMRNqcHQEQEbH6E3wcJVqkMEiYhWgv1eeJkvpmTPdlT2IAIEFHbpnrVSOchCUJjcMctq-2Q4XdNWJnKrjTXdGbaKJRVyREoPS2iirVD-BhsBy9dOqWn8SN5mdd2IVnoBcEofhOhBK8GeVD6Pr7LvCTrRV1DA3BxlKC5e2gF5D8vhsfvjOE0RlYUMLlwoP2ZezxzuFy0GxfwU5Zbq_MTmtMCU32IDdrZ_qKRyGHO0pmGV3ACJ8DjYyPC5o7FDp4cGrWXJLTME7IalF1axIHT65zwnI_nLetNibFNgEBOXPCldCSmhDC6nza97LGz3tHcN4hgq7Gk-KTeAssCidk9rOROaNI8l1o-677r2fcd-ZpwChyqpkYjcG8rEVKjl2nikz7k9hZOKtcJc7K1TCcApTQ3NSPAD7IWsEM98S1zkjTv8XEW2Nsj0HrAiw0r0T4K2VJS5_GaEJaXWlFu-dpy2aHMLWWnL2JwBb8l4TKWbL4rX3xhWSX3y28VN5jD9Zmi-N-q_7G5DZt4-dWN0wmzUeBurL_q3?></g></svg>