<?plantuml 1.2026.2?><svg xmlns="http://www.w3.org/2000/svg" xmlns:xlink="http://www.w3.org/1999/xlink" contentStyleType="text/css" data-diagram-type="SEQUENCE" height="602px" preserveAspectRatio="none" style="width:710px;height:602px;background:#FFFFFF;" version="1.1" viewBox="0 0 710 602" width="710px" zoomAndPan="magnify"><defs/><g><g class="participant-lifeline" data-entity-uid="part1" data-qualified-name="User" id="part1-lifeline"><g><title>User</title><rect fill="#000000" fill-opacity="0.00000" height="440.8594" width="8" x="19.9551" y="81.2969"/><line style="stroke:#181818;stroke-width:0.5;stroke-dasharray:5,5;" x1="23" x2="23" y1="81.2969" y2="522.1563"/></g></g><g class="participant-lifeline" data-entity-uid="part2" data-qualified-name="B" id="part2-lifeline"><g><title>Browser</title><rect fill="#000000" fill-opacity="0.00000" height="440.8594" width="8" x="178.3794" y="81.2969"/><line style="stroke:#181818;stroke-width:0.5;stroke-dasharray:5,5;" x1="181.8599" x2="181.8599" y1="81.2969" y2="522.1563"/></g></g><g class="participant-lifeline" data-entity-uid="part3" data-qualified-name="R" id="part3-lifeline"><g><title>Register Page</title><rect fill="#000000" fill-opacity="0.00000" height="440.8594" width="8" x="328.2217" y="81.2969"/><line style="stroke:#181818;stroke-width:0.5;stroke-dasharray:5,5;" x1="331.6011" x2="331.6011" y1="81.2969" y2="522.1563"/></g></g><g class="participant-lifeline" data-entity-uid="part4" data-qualified-name="S" id="part4-lifeline"><g><title>Node.js Server</title><rect fill="#000000" fill-opacity="0.00000" height="440.8594" width="8" x="509.0342" y="81.2969"/><line style="stroke:#181818;stroke-width:0.5;stroke-dasharray:5,5;" x1="512.7681" x2="512.7681" y1="81.2969" y2="522.1563"/></g></g><g class="participant-lifeline" data-entity-uid="part5" data-qualified-name="DB" id="part5-lifeline"><g><title>MongoDB</title><rect fill="#000000" fill-opacity="0.00000" height="440.8594" width="8" x="659.9111" y="81.2969"/><line style="stroke:#181818;stroke-width:0.5;stroke-dasharray:5,5;" x1="663.2339" x2="663.2339" y1="81.2969" y2="522.1563"/></g></g><g class="participant participant-head" data-entity-uid="part1" data-qualified-name="User" id="part1-head"><text fill="#000000" font-family="sans-serif" font-size="14" lengthAdjust="spacing" textLength="31.9102" x="5" y="77.9951">User</text><ellipse cx="23.9551" cy="13.5" fill="#E2E2F0" rx="8" ry="8" style="stroke:#181818;stroke-width:0.5;"/><path d="M23.9551,21.5 L23.9551,48.5 M10.9551,29.5 L36.9551,29.5 M23.9551,48.5 L10.9551,63.5 M23.9551,48.5 L36.9551,63.5" fill="none" style="stroke:#181818;stroke-width:0.5;"/></g><g class="participant participant-tail" data-entity-uid="part1" data-qualified-name="User" id="part1-tail"><text fill="#000000" font-family="sans-serif" font-size="14" lengthAdjust="spacing" textLength="31.9102" x="5" y="534.1514">User</text><ellipse cx="23.9551" cy="545.9531" fill="#E2E2F0" rx="8" ry="8" style="stroke:#181818;stroke-width:0.5;"/><path d="M23.9551,553.9531 L23.9551,580.9531 M10.9551,561.9531 L36.9551,561.9531 M23.9551,580.9531 L10.9551,595.9531 M23.9551,580.9531 L36.9551,595.9531" fill="none" style="stroke:#181818;stroke-width:0.5;"/></g><g class="participant participant-head" data-entity-uid="part2" data-qualified-name="B" id="part2-head"><rect fill="#E2E2F0" height="30.2969" rx="2.5" ry="2.5" style="stroke:#181818;stroke-width:0.5;" width="71.0391" x="146.8599" y="50"/><text fill="#000000" font-family="sans-serif" font-size="14" lengthAdjust="spacing" textLength="57.0391" x="153.8599" y="69.9951">Browser</text></g><g class="participant participant-tail" data-entity-uid="part2" data-qualified-name="B" id="part2-tail"><rect fill="#E2E2F0" height="30.2969" rx="2.5" ry="2.5" style="stroke:#181818;stroke-width:0.5;" width="71.0391" x="146.8599" y="521.1563"/><text fill="#000000" font-family="sans-serif" font-size="14" lengthAdjust="spacing" textLength="57.0391" x="153.8599" y="541.1514">Browser</text></g><g class="participant participant-head" data-entity-uid="part3" data-qualified-name="R" id="part3-head"><rect fill="#E2E2F0" height="30.2969" rx="2.5" ry="2.5" style="stroke:#181818;stroke-width:0.5;" width="111.2412" x="276.6011" y="50"/><text fill="#000000" font-family="sans-serif" font-size="14" lengthAdjust="spacing" textLength="97.2412" x="283.6011" y="69.9951">Register Page</text></g><g class="participant participant-tail" data-entity-uid="part3" data-qualified-name="R" id="part3-tail"><rect fill="#E2E2F0" height="30.2969" rx="2.5" ry="2.5" style="stroke:#181818;stroke-width:0.5;" width="111.2412" x="276.6011" y="521.1563"/><text fill="#000000" font-family="sans-serif" font-size="14" lengthAdjust="spacing" textLength="97.2412" x="283.6011" y="541.1514">Register Page</text></g><g class="participant participant-head" data-entity-uid="part4" data-qualified-name="S" id="part4-head"><rect fill="#E2E2F0" height="30.2969" rx="2.5" ry="2.5" style="stroke:#181818;stroke-width:0.5;" width="116.5322" x="454.7681" y="50"/><text fill="#000000" font-family="sans-serif" font-size="14" lengthAdjust="spacing" textLength="102.5322" x="461.7681" y="69.9951">Node.js Server</text></g><g class="participant participant-tail" data-entity-uid="part4" data-qualified-name="S" id="part4-tail"><rect fill="#E2E2F0" height="30.2969" rx="2.5" ry="2.5" style="stroke:#181818;stroke-width:0.5;" width="116.5322" x="454.7681" y="521.1563"/><text fill="#000000" font-family="sans-serif" font-size="14" lengthAdjust="spacing" textLength="102.5322" x="461.7681" y="541.1514">Node.js Server</text></g><g class="participant participant-head" data-entity-uid="part5" data-qualified-name="DB" id="part5-head"><rect fill="#E2E2F0" height="30.2969" rx="2.5" ry="2.5" style="stroke:#181818;stroke-width:0.5;" width="81.3545" x="623.2339" y="50"/><text fill="#000000" font-family="sans-serif" font-size="14" lengthAdjust="spacing" textLength="67.3545" x="630.2339" y="69.9951">MongoDB</text></g><g class="participant participant-tail" data-entity-uid="part5" data-qualified-name="DB" id="part5-tail"><rect fill="#E2E2F0" height="30.2969" rx="2.5" ry="2.5" style="stroke:#181818;stroke-width:0.5;" width="81.3545" x="623.2339" y="521.1563"/><text fill="#000000" font-family="sans-serif" font-size="14" lengthAdjust="spacing" textLength="67.3545" x="630.2339" y="541.1514">MongoDB</text></g><g class="message" data-entity-1="part1" data-entity-2="part2" id="msg1"><polygon fill="#181818" points="170.3794,108.4297,180.3794,112.4297,170.3794,116.4297,174.3794,112.4297" style="stroke:#181818;stroke-width:1;"/><line style="stroke:#181818;stroke-width:1;" x1="23.9551" x2="176.3794" y1="112.4297" y2="112.4297"/><text fill="#000000" font-family="sans-serif" font-size="13" lengthAdjust="spacing" textLength="134.4243" x="30.9551" y="107.3638">Navigate to /register</text></g><g class="message" data-entity-1="part2" data-entity-2="part3" id="msg2"><polygon fill="#181818" points="320.2217,137.5625,330.2217,141.5625,320.2217,145.5625,324.2217,141.5625" style="stroke:#181818;stroke-width:1;"/><line style="stroke:#181818;stroke-width:1;" x1="182.3794" x2="326.2217" y1="141.5625" y2="141.5625"/><text fill="#000000" font-family="sans-serif" font-size="13" lengthAdjust="spacing" textLength="125.8423" x="189.3794" y="136.4966">Load Register Page</text></g><g class="message" data-entity-1="part3" data-entity-2="part1" id="msg3"><polygon fill="#181818" points="34.9551,166.6953,24.9551,170.6953,34.9551,174.6953,30.9551,170.6953" style="stroke:#181818;stroke-width:1;"/><line style="stroke:#181818;stroke-width:1;" x1="28.9551" x2="331.2217" y1="170.6953" y2="170.6953"/><text fill="#000000" font-family="sans-serif" font-size="13" lengthAdjust="spacing" textLength="168.6001" x="40.9551" y="165.6294">Display Registration Form</text></g><g class="message" data-entity-1="part1" data-entity-2="part3" id="msg4"><polygon fill="#181818" points="320.2217,195.8281,330.2217,199.8281,320.2217,203.8281,324.2217,199.8281" style="stroke:#181818;stroke-width:1;"/><line style="stroke:#181818;stroke-width:1;" x1="23.9551" x2="326.2217" y1="199.8281" y2="199.8281"/><text fill="#000000" font-family="sans-serif" font-size="13" lengthAdjust="spacing" textLength="107.0405" x="30.9551" y="194.7622">Fill in Form Data</text></g><g class="message" data-entity-1="part1" data-entity-2="part3" id="msg5"><polygon fill="#181818" points="320.2217,224.9609,330.2217,228.9609,320.2217,232.9609,324.2217,228.9609" style="stroke:#181818;stroke-width:1;"/><line style="stroke:#181818;stroke-width:1;" x1="23.9551" x2="326.2217" y1="228.9609" y2="228.9609"/><text fill="#000000" font-family="sans-serif" font-size="13" lengthAdjust="spacing" textLength="89.2163" x="30.9551" y="223.895">Click Register</text></g><g class="message" data-entity-1="part3" data-entity-2="part4" id="msg6"><polygon fill="#181818" points="501.0342,254.0938,511.0342,258.0938,501.0342,262.0938,505.0342,258.0938" style="stroke:#181818;stroke-width:1;"/><line style="stroke:#181818;stroke-width:1;" x1="332.2217" x2="507.0342" y1="258.0938" y2="258.0938"/><text fill="#000000" font-family="sans-serif" font-size="13" lengthAdjust="spacing" textLength="93.1963" x="339.2217" y="253.0278">POST /register</text></g><g class="message" data-entity-1="part4" data-entity-2="part4" id="msg7"><line style="stroke:#181818;stroke-width:1;" x1="513.0342" x2="555.0342" y1="287.2266" y2="287.2266"/><line style="stroke:#181818;stroke-width:1;" x1="555.0342" x2="555.0342" y1="287.2266" y2="300.2266"/><line style="stroke:#181818;stroke-width:1;" x1="514.0342" x2="555.0342" y1="300.2266" y2="300.2266"/><polygon fill="#181818" points="524.0342,296.2266,514.0342,300.2266,524.0342,304.2266,520.0342,300.2266" style="stroke:#181818;stroke-width:1;"/><text fill="#000000" font-family="sans-serif" font-size="13" lengthAdjust="spacing" textLength="91.1904" x="520.0342" y="282.1606">Validate Input</text></g><g class="message" data-entity-1="part4" data-entity-2="part5" id="msg8"><polygon fill="#181818" points="651.9111,325.3594,661.9111,329.3594,651.9111,333.3594,655.9111,329.3594" style="stroke:#181818;stroke-width:1;"/><line style="stroke:#181818;stroke-width:1;" x1="513.0342" x2="657.9111" y1="329.3594" y2="329.3594"/><text fill="#000000" font-family="sans-serif" font-size="13" lengthAdjust="spacing" textLength="126.877" x="520.0342" y="324.2935">Check if user exists</text></g><g class="message" data-entity-1="part5" data-entity-2="part4" id="msg9"><polygon fill="#181818" points="524.0342,354.4922,514.0342,358.4922,524.0342,362.4922,520.0342,358.4922" style="stroke:#181818;stroke-width:1;"/><line style="stroke:#181818;stroke-width:1;stroke-dasharray:2,2;" x1="518.0342" x2="662.9111" y1="358.4922" y2="358.4922"/><text fill="#000000" font-family="sans-serif" font-size="13" lengthAdjust="spacing" textLength="96.4463" x="530.0342" y="353.4263">User not found</text></g><g class="message" data-entity-1="part4" data-entity-2="part5" id="msg10"><polygon fill="#181818" points="651.9111,383.625,661.9111,387.625,651.9111,391.625,655.9111,387.625" style="stroke:#181818;stroke-width:1;"/><line style="stroke:#181818;stroke-width:1;" x1="513.0342" x2="657.9111" y1="387.625" y2="387.625"/><text fill="#000000" font-family="sans-serif" font-size="13" lengthAdjust="spacing" textLength="114.8608" x="520.0342" y="382.5591">CREATE new user</text></g><g class="message" data-entity-1="part5" data-entity-2="part4" id="msg11"><polygon fill="#181818" points="524.0342,412.7578,514.0342,416.7578,524.0342,420.7578,520.0342,416.7578" style="stroke:#181818;stroke-width:1;"/><line style="stroke:#181818;stroke-width:1;stroke-dasharray:2,2;" x1="518.0342" x2="662.9111" y1="416.7578" y2="416.7578"/><text fill="#000000" font-family="sans-serif" font-size="13" lengthAdjust="spacing" textLength="85.4966" x="530.0342" y="411.6919">User Created</text></g><g class="message" data-entity-1="part4" data-entity-2="part3" id="msg12"><polygon fill="#181818" points="343.2217,441.8906,333.2217,445.8906,343.2217,449.8906,339.2217,445.8906" style="stroke:#181818;stroke-width:1;"/><line style="stroke:#181818;stroke-width:1;stroke-dasharray:2,2;" x1="337.2217" x2="512.0342" y1="445.8906" y2="445.8906"/><text fill="#000000" font-family="sans-serif" font-size="13" lengthAdjust="spacing" textLength="156.8125" x="349.2217" y="440.8247">201 Created + Message</text></g><g class="message" data-entity-1="part3" data-entity-2="part1" id="msg13"><polygon fill="#181818" points="34.9551,471.0234,24.9551,475.0234,34.9551,479.0234,30.9551,475.0234" style="stroke:#181818;stroke-width:1;"/><line style="stroke:#181818;stroke-width:1;stroke-dasharray:2,2;" x1="28.9551" x2="331.2217" y1="475.0234" y2="475.0234"/><text fill="#000000" font-family="sans-serif" font-size="13" lengthAdjust="spacing" textLength="152.6484" x="40.9551" y="469.9575">Show Success Message</text></g><g class="message" data-entity-1="part3" data-entity-2="part2" id="msg14"><polygon fill="#181818" points="193.3794,500.1563,183.3794,504.1563,193.3794,508.1563,189.3794,504.1563" style="stroke:#181818;stroke-width:1;"/><line style="stroke:#181818;stroke-width:1;" x1="187.3794" x2="331.2217" y1="504.1563" y2="504.1563"/><text fill="#000000" font-family="sans-serif" font-size="13" lengthAdjust="spacing" textLength="111.8457" x="199.3794" y="499.0903">Redirect to /login</text></g><?plantuml-src PL1BJy904BxtLqou6dmTEPZO5X8JGT95xvDsAADrfzdTKlttxcuBqd3zdZCVbauCl5ioIOl6SSajQWUpr4ZlmHcWXNHA5LIpTMHWYpL5GJ4LRAIYsqyBYinnZ51JnLfqBNaQgJnDaj0FyoT8OG4RF7ADZi09t9cnAqa3NNZwLR22oGb94RWOiO2SRTlWxwWmw5WqhCHydpj2o8gR1dWW84U74pPhkFmwTmpnokFRDxMxE4cTy0zik0eNl-YsSmEUXrUo0_aWtaCNqkd7-spYcVbeZALQ7EobqzMbiLW-xvQWgO_MAqzcoFT5ntZpu_t32OKRM9ErupB_qwY3zA2wilJafMAOlQ2A3PKkpjv8pVeF?></g></svg>