<?plantuml 1.2026.2?><svg xmlns="http://www.w3.org/2000/svg" xmlns:xlink="http://www.w3.org/1999/xlink" contentStyleType="text/css" data-diagram-type="SEQUENCE" height="937px" preserveAspectRatio="none" style="width:612px;height:937px;background:#FFFFFF;" version="1.1" viewBox="0 0 612 937" width="612px" zoomAndPan="magnify"><defs/><g><g class="participant-lifeline" data-entity-uid="part1" data-qualified-name="User" id="part1-lifeline"><g><title>User</title><rect fill="#000000" fill-opacity="0.00000" height="775.1875" width="8" x="19.9551" y="81.2969"/><line style="stroke:#181818;stroke-width:0.5;stroke-dasharray:5,5;" x1="23" x2="23" y1="81.2969" y2="856.4844"/></g></g><g class="participant-lifeline" data-entity-uid="part2" data-qualified-name="B" id="part2-lifeline"><g><title>Browser</title><rect fill="#000000" fill-opacity="0.00000" height="775.1875" width="8" x="199.4536" y="81.2969"/><line style="stroke:#181818;stroke-width:0.5;stroke-dasharray:5,5;" x1="202.9341" x2="202.9341" y1="81.2969" y2="856.4844"/></g></g><g class="participant-lifeline" data-entity-uid="part3" data-qualified-name="S" id="part3-lifeline"><g><title>Node.js Server</title><rect fill="#000000" fill-opacity="0.00000" height="775.1875" width="8" x="446.5103" y="81.2969"/><line style="stroke:#181818;stroke-width:0.5;stroke-dasharray:5,5;" x1="450.2441" x2="450.2441" y1="81.2969" y2="856.4844"/></g></g><g class="participant-lifeline" data-entity-uid="part4" data-qualified-name="DB" id="part4-lifeline"><g><title>MongoDB</title><rect fill="#000000" fill-opacity="0.00000" height="775.1875" width="8" x="556.0068" y="81.2969"/><line style="stroke:#181818;stroke-width:0.5;stroke-dasharray:5,5;" x1="559.3296" x2="559.3296" y1="81.2969" y2="856.4844"/></g></g><g class="participant participant-head" data-entity-uid="part1" data-qualified-name="User" id="part1-head"><text fill="#000000" font-family="sans-serif" font-size="14" lengthAdjust="spacing" textLength="31.9102" x="5" y="77.9951">User</text><ellipse cx="23.9551" cy="13.5" fill="#E2E2F0" rx="8" ry="8" style="stroke:#181818;stroke-width:0.5;"/><path d="M23.9551,21.5 L23.9551,48.5 M10.9551,29.5 L36.9551,29.5 M23.9551,48.5 L10.9551,63.5 M23.9551,48.5 L36.9551,63.5" fill="none" style="stroke:#181818;stroke-width:0.5;"/></g><g class="participant participant-tail" data-entity-uid="part1" data-qualified-name="User" id="part1-tail"><text fill="#000000" font-family="sans-serif" font-size="14" lengthAdjust="spacing" textLength="31.9102" x="5" y="868.4795">User</text><ellipse cx="23.9551" cy="880.2813" fill="#E2E2F0" rx="8" ry="8" style="stroke:#181818;stroke-width:0.5;"/><path d="M23.9551,888.2813 L23.9551,915.2813 M10.9551,896.2813 L36.9551,896.2813 M23.9551,915.2813 L10.9551,930.2813 M23.9551,915.2813 L36.9551,930.2813" fill="none" style="stroke:#181818;stroke-width:0.5;"/></g><g class="participant participant-head" data-entity-uid="part2" data-qualified-name="B" id="part2-head"><rect fill="#E2E2F0" height="30.2969" rx="2.5" ry="2.5" style="stroke:#181818;stroke-width:0.5;" width="71.0391" x="167.9341" y="50"/><text fill="#000000" font-family="sans-serif" font-size="14" lengthAdjust="spacing" textLength="57.0391" x="174.9341" y="69.9951">Browser</text></g><g class="participant participant-tail" data-entity-uid="part2" data-qualified-name="B" id="part2-tail"><rect fill="#E2E2F0" height="30.2969" rx="2.5" ry="2.5" style="stroke:#181818;stroke-width:0.5;" width="71.0391" x="167.9341" y="855.4844"/><text fill="#000000" font-family="sans-serif" font-size="14" lengthAdjust="spacing" textLength="57.0391" x="174.9341" y="875.4795">Browser</text></g><g class="participant participant-head" data-entity-uid="part3" data-qualified-name="S" id="part3-head"><rect fill="#E2E2F0" height="30.2969" rx="2.5" ry="2.5" style="stroke:#181818;stroke-width:0.5;" width="116.5322" x="392.2441" y="50"/><text fill="#000000" font-family="sans-serif" font-size="14" lengthAdjust="spacing" textLength="102.5322" x="399.2441" y="69.9951">Node.js Server</text></g><g class="participant participant-tail" data-entity-uid="part3" data-qualified-name="S" id="part3-tail"><rect fill="#E2E2F0" height="30.2969" rx="2.5" ry="2.5" style="stroke:#181818;stroke-width:0.5;" width="116.5322" x="392.2441" y="855.4844"/><text fill="#000000" font-family="sans-serif" font-size="14" lengthAdjust="spacing" textLength="102.5322" x="399.2441" y="875.4795">Node.js Server</text></g><g class="participant participant-head" data-entity-uid="part4" data-qualified-name="DB" id="part4-head"><rect fill="#E2E2F0" height="30.2969" rx="2.5" ry="2.5" style="stroke:#181818;stroke-width:0.5;" width="81.3545" x="519.3296" y="50"/><text fill="#000000" font-family="sans-serif" font-size="14" lengthAdjust="spacing" textLength="67.3545" x="526.3296" y="69.9951">MongoDB</text></g><g class="participant participant-tail" data-entity-uid="part4" data-qualified-name="DB" id="part4-tail"><rect fill="#E2E2F0" height="30.2969" rx="2.5" ry="2.5" style="stroke:#181818;stroke-width:0.5;" width="81.3545" x="519.3296" y="855.4844"/><text fill="#000000" font-family="sans-serif" font-size="14" lengthAdjust="spacing" textLength="67.3545" x="526.3296" y="875.4795">MongoDB</text></g><rect fill="#EEEEEE" height="3" style="stroke:#EEEEEE;stroke-width:1;" width="605.6841" x="0" y="111.8633"/><line style="stroke:#000000;stroke-width:1;" x1="0" x2="605.6841" y1="111.8633" y2="111.8633"/><line style="stroke:#000000;stroke-width:1;" x1="0" x2="605.6841" y1="114.8633" y2="114.8633"/><rect fill="#EEEEEE" height="23.1328" style="stroke:#000000;stroke-width:2;" width="74.7661" x="265.459" y="101.2969"/><text fill="#000000" font-family="sans-serif" font-size="13" font-weight="bold" lengthAdjust="spacing" textLength="56.2402" x="271.459" y="117.3638">CREATE</text><g class="message" data-entity-1="part1" data-entity-2="part2" id="msg1"><polygon fill="#181818" points="191.4536,151.5625,201.4536,155.5625,191.4536,159.5625,195.4536,155.5625" style="stroke:#181818;stroke-width:1;"/><line style="stroke:#181818;stroke-width:1;" x1="23.9551" x2="197.4536" y1="155.5625" y2="155.5625"/><text fill="#000000" font-family="sans-serif" font-size="13" lengthAdjust="spacing" textLength="110.957" x="30.9551" y="150.4966">Register Account</text></g><g class="message" data-entity-1="part2" data-entity-2="part3" id="msg2"><polygon fill="#181818" points="438.5103,180.6953,448.5103,184.6953,438.5103,188.6953,442.5103,184.6953" style="stroke:#181818;stroke-width:1;"/><line style="stroke:#181818;stroke-width:1;" x1="203.4536" x2="444.5103" y1="184.6953" y2="184.6953"/><text fill="#000000" font-family="sans-serif" font-size="13" lengthAdjust="spacing" textLength="93.1963" x="210.4536" y="179.6294">POST /register</text></g><g class="message" data-entity-1="part3" data-entity-2="part4" id="msg3"><polygon fill="#181818" points="548.0068,209.8281,558.0068,213.8281,548.0068,217.8281,552.0068,213.8281" style="stroke:#181818;stroke-width:1;"/><line style="stroke:#181818;stroke-width:1;" x1="450.5103" x2="554.0068" y1="213.8281" y2="213.8281"/><text fill="#000000" font-family="sans-serif" font-size="13" lengthAdjust="spacing" textLength="83.8589" x="457.5103" y="208.7622">CREATE user</text></g><g class="message" data-entity-1="part4" data-entity-2="part3" id="msg4"><polygon fill="#181818" points="461.5103,238.9609,451.5103,242.9609,461.5103,246.9609,457.5103,242.9609" style="stroke:#181818;stroke-width:1;"/><line style="stroke:#181818;stroke-width:1;stroke-dasharray:2,2;" x1="455.5103" x2="559.0068" y1="242.9609" y2="242.9609"/><text fill="#000000" font-family="sans-serif" font-size="13" lengthAdjust="spacing" textLength="85.4966" x="467.5103" y="237.895">User Created</text></g><g class="message" data-entity-1="part3" data-entity-2="part2" id="msg5"><polygon fill="#181818" points="214.4536,268.0938,204.4536,272.0938,214.4536,276.0938,210.4536,272.0938" style="stroke:#181818;stroke-width:1;"/><line style="stroke:#181818;stroke-width:1;stroke-dasharray:2,2;" x1="208.4536" x2="449.5103" y1="272.0938" y2="272.0938"/><text fill="#000000" font-family="sans-serif" font-size="13" lengthAdjust="spacing" textLength="52.3301" x="220.4536" y="267.0278">Success</text></g><rect fill="#EEEEEE" height="3" style="stroke:#EEEEEE;stroke-width:1;" width="605.6841" x="0" y="300.6602"/><line style="stroke:#000000;stroke-width:1;" x1="0" x2="605.6841" y1="300.6602" y2="300.6602"/><line style="stroke:#000000;stroke-width:1;" x1="0" x2="605.6841" y1="303.6602" y2="303.6602"/><rect fill="#EEEEEE" height="23.1328" style="stroke:#000000;stroke-width:2;" width="58.2686" x="273.7078" y="290.0938"/><text fill="#000000" font-family="sans-serif" font-size="13" font-weight="bold" lengthAdjust="spacing" textLength="39.7427" x="279.7078" y="306.1606">READ</text><g class="message" data-entity-1="part1" data-entity-2="part2" id="msg6"><polygon fill="#181818" points="191.4536,340.3594,201.4536,344.3594,191.4536,348.3594,195.4536,344.3594" style="stroke:#181818;stroke-width:1;"/><line style="stroke:#181818;stroke-width:1;" x1="23.9551" x2="197.4536" y1="344.3594" y2="344.3594"/><text fill="#000000" font-family="sans-serif" font-size="13" lengthAdjust="spacing" textLength="76.2036" x="30.9551" y="339.2935">View Profile</text></g><g class="message" data-entity-1="part2" data-entity-2="part3" id="msg7"><polygon fill="#181818" points="438.5103,369.4922,448.5103,373.4922,438.5103,377.4922,442.5103,373.4922" style="stroke:#181818;stroke-width:1;"/><line style="stroke:#181818;stroke-width:1;" x1="203.4536" x2="444.5103" y1="373.4922" y2="373.4922"/><text fill="#000000" font-family="sans-serif" font-size="13" lengthAdjust="spacing" textLength="158.3169" x="210.4536" y="368.4263">GET /userInfo (with JWT)</text></g><g class="message" data-entity-1="part3" data-entity-2="part4" id="msg8"><polygon fill="#181818" points="548.0068,398.625,558.0068,402.625,548.0068,406.625,552.0068,402.625" style="stroke:#181818;stroke-width:1;"/><line style="stroke:#181818;stroke-width:1;" x1="450.5103" x2="554.0068" y1="402.625" y2="402.625"/><text fill="#000000" font-family="sans-serif" font-size="13" lengthAdjust="spacing" textLength="68.6372" x="457.5103" y="397.5591">READ user</text></g><g class="message" data-entity-1="part4" data-entity-2="part3" id="msg9"><polygon fill="#181818" points="461.5103,427.7578,451.5103,431.7578,461.5103,435.7578,457.5103,431.7578" style="stroke:#181818;stroke-width:1;"/><line style="stroke:#181818;stroke-width:1;stroke-dasharray:2,2;" x1="455.5103" x2="559.0068" y1="431.7578" y2="431.7578"/><text fill="#000000" font-family="sans-serif" font-size="13" lengthAdjust="spacing" textLength="64.8032" x="467.5103" y="426.6919">User Data</text></g><g class="message" data-entity-1="part3" data-entity-2="part2" id="msg10"><polygon fill="#181818" points="214.4536,456.8906,204.4536,460.8906,214.4536,464.8906,210.4536,460.8906" style="stroke:#181818;stroke-width:1;"/><line style="stroke:#181818;stroke-width:1;stroke-dasharray:2,2;" x1="208.4536" x2="449.5103" y1="460.8906" y2="460.8906"/><text fill="#000000" font-family="sans-serif" font-size="13" lengthAdjust="spacing" textLength="109.2368" x="220.4536" y="455.8247">Profile Displayed</text></g><rect fill="#EEEEEE" height="3" style="stroke:#EEEEEE;stroke-width:1;" width="605.6841" x="0" y="489.457"/><line style="stroke:#000000;stroke-width:1;" x1="0" x2="605.6841" y1="489.457" y2="489.457"/><line style="stroke:#000000;stroke-width:1;" x1="0" x2="605.6841" y1="492.457" y2="492.457"/><rect fill="#EEEEEE" height="23.1328" style="stroke:#000000;stroke-width:2;" width="77.21" x="264.2371" y="478.8906"/><text fill="#000000" font-family="sans-serif" font-size="13" font-weight="bold" lengthAdjust="spacing" textLength="58.6841" x="270.2371" y="494.9575">UPDATE</text><g class="message" data-entity-1="part1" data-entity-2="part2" id="msg11"><polygon fill="#181818" points="191.4536,529.1563,201.4536,533.1563,191.4536,537.1563,195.4536,533.1563" style="stroke:#181818;stroke-width:1;"/><line style="stroke:#181818;stroke-width:1;" x1="23.9551" x2="197.4536" y1="533.1563" y2="533.1563"/><text fill="#000000" font-family="sans-serif" font-size="13" lengthAdjust="spacing" textLength="115.4385" x="30.9551" y="528.0903">Change Password</text></g><g class="message" data-entity-1="part2" data-entity-2="part3" id="msg12"><polygon fill="#181818" points="438.5103,558.2891,448.5103,562.2891,438.5103,566.2891,442.5103,562.2891" style="stroke:#181818;stroke-width:1;"/><line style="stroke:#181818;stroke-width:1;" x1="203.4536" x2="444.5103" y1="562.2891" y2="562.2891"/><text fill="#000000" font-family="sans-serif" font-size="13" lengthAdjust="spacing" textLength="222.771" x="210.4536" y="557.2231">POST /changePassword (with JWT)</text></g><g class="message" data-entity-1="part3" data-entity-2="part4" id="msg13"><polygon fill="#181818" points="548.0068,587.4219,558.0068,591.4219,548.0068,595.4219,552.0068,591.4219" style="stroke:#181818;stroke-width:1;"/><line style="stroke:#181818;stroke-width:1;" x1="450.5103" x2="554.0068" y1="591.4219" y2="591.4219"/><text fill="#000000" font-family="sans-serif" font-size="13" lengthAdjust="spacing" textLength="84.8999" x="457.5103" y="586.356">UPDATE user</text></g><g class="message" data-entity-1="part4" data-entity-2="part3" id="msg14"><polygon fill="#181818" points="461.5103,616.5547,451.5103,620.5547,461.5103,624.5547,457.5103,620.5547" style="stroke:#181818;stroke-width:1;"/><line style="stroke:#181818;stroke-width:1;stroke-dasharray:2,2;" x1="455.5103" x2="559.0068" y1="620.5547" y2="620.5547"/><text fill="#000000" font-family="sans-serif" font-size="13" lengthAdjust="spacing" textLength="55.3325" x="467.5103" y="615.4888">Updated</text></g><g class="message" data-entity-1="part3" data-entity-2="part2" id="msg15"><polygon fill="#181818" points="214.4536,645.6875,204.4536,649.6875,214.4536,653.6875,210.4536,649.6875" style="stroke:#181818;stroke-width:1;"/><line style="stroke:#181818;stroke-width:1;stroke-dasharray:2,2;" x1="208.4536" x2="449.5103" y1="649.6875" y2="649.6875"/><text fill="#000000" font-family="sans-serif" font-size="13" lengthAdjust="spacing" textLength="52.3301" x="220.4536" y="644.6216">Success</text></g><rect fill="#EEEEEE" height="3" style="stroke:#EEEEEE;stroke-width:1;" width="605.6841" x="0" y="678.2539"/><line style="stroke:#000000;stroke-width:1;" x1="0" x2="605.6841" y1="678.2539" y2="678.2539"/><line style="stroke:#000000;stroke-width:1;" x1="0" x2="605.6841" y1="681.2539" y2="681.2539"/><rect fill="#EEEEEE" height="23.1328" style="stroke:#000000;stroke-width:2;" width="73.1094" x="266.2874" y="667.6875"/><text fill="#000000" font-family="sans-serif" font-size="13" font-weight="bold" lengthAdjust="spacing" textLength="54.5835" x="272.2874" y="683.7544">DELETE</text><g class="message" data-entity-1="part1" data-entity-2="part2" id="msg16"><polygon fill="#181818" points="191.4536,717.9531,201.4536,721.9531,191.4536,725.9531,195.4536,721.9531" style="stroke:#181818;stroke-width:1;"/><line style="stroke:#181818;stroke-width:1;" x1="23.9551" x2="197.4536" y1="721.9531" y2="721.9531"/><text fill="#000000" font-family="sans-serif" font-size="13" lengthAdjust="spacing" textLength="155.4985" x="30.9551" y="716.8872">Delete Account (Admin)</text></g><g class="message" data-entity-1="part2" data-entity-2="part3" id="msg17"><polygon fill="#181818" points="438.5103,747.0859,448.5103,751.0859,438.5103,755.0859,442.5103,751.0859" style="stroke:#181818;stroke-width:1;"/><line style="stroke:#181818;stroke-width:1;" x1="203.4536" x2="444.5103" y1="751.0859" y2="751.0859"/><text fill="#000000" font-family="sans-serif" font-size="13" lengthAdjust="spacing" textLength="223.0566" x="210.4536" y="746.02">DELETE /admin/user/:id (with JWT)</text></g><g class="message" data-entity-1="part3" data-entity-2="part4" id="msg18"><polygon fill="#181818" points="548.0068,776.2188,558.0068,780.2188,548.0068,784.2188,552.0068,780.2188" style="stroke:#181818;stroke-width:1;"/><line style="stroke:#181818;stroke-width:1;" x1="450.5103" x2="554.0068" y1="780.2188" y2="780.2188"/><text fill="#000000" font-family="sans-serif" font-size="13" lengthAdjust="spacing" textLength="82.3228" x="457.5103" y="775.1528">DELETE user</text></g><g class="message" data-entity-1="part4" data-entity-2="part3" id="msg19"><polygon fill="#181818" points="461.5103,805.3516,451.5103,809.3516,461.5103,813.3516,457.5103,809.3516" style="stroke:#181818;stroke-width:1;"/><line style="stroke:#181818;stroke-width:1;stroke-dasharray:2,2;" x1="455.5103" x2="559.0068" y1="809.3516" y2="809.3516"/><text fill="#000000" font-family="sans-serif" font-size="13" lengthAdjust="spacing" textLength="50.9653" x="467.5103" y="804.2856">Deleted</text></g><g class="message" data-entity-1="part3" data-entity-2="part2" id="msg20"><polygon fill="#181818" points="214.4536,834.4844,204.4536,838.4844,214.4536,842.4844,210.4536,838.4844" style="stroke:#181818;stroke-width:1;"/><line style="stroke:#181818;stroke-width:1;stroke-dasharray:2,2;" x1="208.4536" x2="449.5103" y1="838.4844" y2="838.4844"/><text fill="#000000" font-family="sans-serif" font-size="13" lengthAdjust="spacing" textLength="52.3301" x="220.4536" y="833.4185">Success</text></g><?plantuml-src VP7DReCm48JlFCKgf-IGSez49OnHrQe_A93sR9aDSKKniarHtxwswoW98JrwPtRcqvfn8nNiDAgePye8BdhM6LWG9KSxN03JG2wbLrdZtQU64jLtS9INZXVPDP8IBr4IHKa2sJPFgnoI979TiBu70XlOOYEqiU-KSpbq9Y9EAQrIl9KLn2heKUdcrAs4eC4Hsy4w-7rgff0Ph9qx59G3vwYrHx2BT0hmBd24GiczQF5K_f3RRjVmsEqbB4TX3l3qKQtEC7pOB0HbXfqHX72WGlSj-x5qZcLNq9bpP0VMDGW5qtgKgfvUWtlvgCvpXU0hihx-vp8qVywlQIYsQF3uDR1Cwo_HhKvGOIjcRkxF5M_43QpWdMBzLSnW_G80?></g></svg>