<?plantuml 1.2026.2?><svg xmlns="http://www.w3.org/2000/svg" xmlns:xlink="http://www.w3.org/1999/xlink" contentStyleType="text/css" data-diagram-type="SEQUENCE" height="671px" preserveAspectRatio="none" style="width:743px;height:671px;background:#FFFFFF;" version="1.1" viewBox="0 0 743 671" width="743px" zoomAndPan="magnify"><defs/><g><g class="participant-lifeline" data-entity-uid="part1" data-qualified-name="User" id="part1-lifeline"><g><title>User</title><rect fill="#000000" fill-opacity="0.00000" height="508.9922" width="8" x="19.9551" y="81.2969"/><line style="stroke:#181818;stroke-width:0.5;stroke-dasharray:5,5;" x1="23" x2="23" y1="81.2969" y2="590.2891"/></g></g><g class="participant-lifeline" data-entity-uid="part2" data-qualified-name="B" id="part2-lifeline"><g><title>Browser</title><rect fill="#000000" fill-opacity="0.00000" height="508.9922" width="8" x="173.1299" y="81.2969"/><line style="stroke:#181818;stroke-width:0.5;stroke-dasharray:5,5;" x1="176.6104" x2="176.6104" y1="81.2969" y2="590.2891"/></g></g><g class="participant-lifeline" data-entity-uid="part3" data-qualified-name="L" id="part3-lifeline"><g><title>Login Page</title><rect fill="#000000" fill-opacity="0.00000" height="508.9922" width="8" x="330.2656" y="81.2969"/><line style="stroke:#181818;stroke-width:0.5;stroke-dasharray:5,5;" x1="333.7725" x2="333.7725" y1="81.2969" y2="590.2891"/></g></g><g class="participant-lifeline" data-entity-uid="part4" data-qualified-name="S" id="part4-lifeline"><g><title>Node.js Server</title><rect fill="#000000" fill-opacity="0.00000" height="508.9922" width="8" x="497.5068" y="81.2969"/><line style="stroke:#181818;stroke-width:0.5;stroke-dasharray:5,5;" x1="501.2407" x2="501.2407" y1="81.2969" y2="590.2891"/></g></g><g class="participant-lifeline" data-entity-uid="part5" data-qualified-name="DB" id="part5-lifeline"><g><title>MongoDB</title><rect fill="#000000" fill-opacity="0.00000" height="508.9922" width="8" x="692.4912" y="81.2969"/><line style="stroke:#181818;stroke-width:0.5;stroke-dasharray:5,5;" x1="695.814" x2="695.814" y1="81.2969" y2="590.2891"/></g></g><g class="participant participant-head" data-entity-uid="part1" data-qualified-name="User" id="part1-head"><text fill="#000000" font-family="sans-serif" font-size="14" lengthAdjust="spacing" textLength="31.9102" x="5" y="77.9951">User</text><ellipse cx="23.9551" cy="13.5" fill="#E2E2F0" rx="8" ry="8" style="stroke:#181818;stroke-width:0.5;"/><path d="M23.9551,21.5 L23.9551,48.5 M10.9551,29.5 L36.9551,29.5 M23.9551,48.5 L10.9551,63.5 M23.9551,48.5 L36.9551,63.5" fill="none" style="stroke:#181818;stroke-width:0.5;"/></g><g class="participant participant-tail" data-entity-uid="part1" data-qualified-name="User" id="part1-tail"><text fill="#000000" font-family="sans-serif" font-size="14" lengthAdjust="spacing" textLength="31.9102" x="5" y="602.2842">User</text><ellipse cx="23.9551" cy="614.0859" fill="#E2E2F0" rx="8" ry="8" style="stroke:#181818;stroke-width:0.5;"/><path d="M23.9551,622.0859 L23.9551,649.0859 M10.9551,630.0859 L36.9551,630.0859 M23.9551,649.0859 L10.9551,664.0859 M23.9551,649.0859 L36.9551,664.0859" fill="none" style="stroke:#181818;stroke-width:0.5;"/></g><g class="participant participant-head" data-entity-uid="part2" data-qualified-name="B" id="part2-head"><rect fill="#E2E2F0" height="30.2969" rx="2.5" ry="2.5" style="stroke:#181818;stroke-width:0.5;" width="71.0391" x="141.6104" y="50"/><text fill="#000000" font-family="sans-serif" font-size="14" lengthAdjust="spacing" textLength="57.0391" x="148.6104" y="69.9951">Browser</text></g><g class="participant participant-tail" data-entity-uid="part2" data-qualified-name="B" id="part2-tail"><rect fill="#E2E2F0" height="30.2969" rx="2.5" ry="2.5" style="stroke:#181818;stroke-width:0.5;" width="71.0391" x="141.6104" y="589.2891"/><text fill="#000000" font-family="sans-serif" font-size="14" lengthAdjust="spacing" textLength="57.0391" x="148.6104" y="609.2842">Browser</text></g><g class="participant participant-head" data-entity-uid="part3" data-qualified-name="L" id="part3-head"><rect fill="#E2E2F0" height="30.2969" rx="2.5" ry="2.5" style="stroke:#181818;stroke-width:0.5;" width="90.9863" x="288.7725" y="50"/><text fill="#000000" font-family="sans-serif" font-size="14" lengthAdjust="spacing" textLength="76.9863" x="295.7725" y="69.9951">Login Page</text></g><g class="participant participant-tail" data-entity-uid="part3" data-qualified-name="L" id="part3-tail"><rect fill="#E2E2F0" height="30.2969" rx="2.5" ry="2.5" style="stroke:#181818;stroke-width:0.5;" width="90.9863" x="288.7725" y="589.2891"/><text fill="#000000" font-family="sans-serif" font-size="14" lengthAdjust="spacing" textLength="76.9863" x="295.7725" y="609.2842">Login Page</text></g><g class="participant participant-head" data-entity-uid="part4" data-qualified-name="S" id="part4-head"><rect fill="#E2E2F0" height="30.2969" rx="2.5" ry="2.5" style="stroke:#181818;stroke-width:0.5;" width="116.5322" x="443.2407" y="50"/><text fill="#000000" font-family="sans-serif" font-size="14" lengthAdjust="spacing" textLength="102.5322" x="450.2407" y="69.9951">Node.js Server</text></g><g class="participant participant-tail" data-entity-uid="part4" data-qualified-name="S" id="part4-tail"><rect fill="#E2E2F0" height="30.2969" rx="2.5" ry="2.5" style="stroke:#181818;stroke-width:0.5;" width="116.5322" x="443.2407" y="589.2891"/><text fill="#000000" font-family="sans-serif" font-size="14" lengthAdjust="spacing" textLength="102.5322" x="450.2407" y="609.2842">Node.js Server</text></g><g class="participant participant-head" data-entity-uid="part5" data-qualified-name="DB" id="part5-head"><rect fill="#E2E2F0" height="30.2969" rx="2.5" ry="2.5" style="stroke:#181818;stroke-width:0.5;" width="81.3545" x="655.814" y="50"/><text fill="#000000" font-family="sans-serif" font-size="14" lengthAdjust="spacing" textLength="67.3545" x="662.814" y="69.9951">MongoDB</text></g><g class="participant participant-tail" data-entity-uid="part5" data-qualified-name="DB" id="part5-tail"><rect fill="#E2E2F0" height="30.2969" rx="2.5" ry="2.5" style="stroke:#181818;stroke-width:0.5;" width="81.3545" x="655.814" y="589.2891"/><text fill="#000000" font-family="sans-serif" font-size="14" lengthAdjust="spacing" textLength="67.3545" x="662.814" y="609.2842">MongoDB</text></g><g class="message" data-entity-1="part1" data-entity-2="part2" id="msg1"><polygon fill="#181818" points="165.1299,108.4297,175.1299,112.4297,165.1299,116.4297,169.1299,112.4297" style="stroke:#181818;stroke-width:1;"/><line style="stroke:#181818;stroke-width:1;" x1="23.9551" x2="171.1299" y1="112.4297" y2="112.4297"/><text fill="#000000" font-family="sans-serif" font-size="13" lengthAdjust="spacing" textLength="115.6733" x="30.9551" y="107.3638">Navigate to /login</text></g><g class="message" data-entity-1="part2" data-entity-2="part3" id="msg2"><polygon fill="#181818" points="322.2656,137.5625,332.2656,141.5625,322.2656,145.5625,326.2656,141.5625" style="stroke:#181818;stroke-width:1;"/><line style="stroke:#181818;stroke-width:1;" x1="177.1299" x2="328.2656" y1="141.5625" y2="141.5625"/><text fill="#000000" font-family="sans-serif" font-size="13" lengthAdjust="spacing" textLength="107.0342" x="184.1299" y="136.4966">Load Login Page</text></g><g class="message" data-entity-1="part3" data-entity-2="part1" id="msg3"><polygon fill="#181818" points="34.9551,166.6953,24.9551,170.6953,34.9551,174.6953,30.9551,170.6953" style="stroke:#181818;stroke-width:1;"/><line style="stroke:#181818;stroke-width:1;" x1="28.9551" x2="333.2656" y1="170.6953" y2="170.6953"/><text fill="#000000" font-family="sans-serif" font-size="13" lengthAdjust="spacing" textLength="124.9219" x="40.9551" y="165.6294">Display Login Form</text></g><g class="message" data-entity-1="part1" data-entity-2="part3" id="msg4"><polygon fill="#181818" points="322.2656,195.8281,332.2656,199.8281,322.2656,203.8281,326.2656,199.8281" style="stroke:#181818;stroke-width:1;"/><line style="stroke:#181818;stroke-width:1;" x1="23.9551" x2="328.2656" y1="199.8281" y2="199.8281"/><text fill="#000000" font-family="sans-serif" font-size="13" lengthAdjust="spacing" textLength="112.9946" x="30.9551" y="194.7622">Enter Credentials</text></g><g class="message" data-entity-1="part1" data-entity-2="part3" id="msg5"><polygon fill="#181818" points="322.2656,224.9609,332.2656,228.9609,322.2656,232.9609,326.2656,228.9609" style="stroke:#181818;stroke-width:1;"/><line style="stroke:#181818;stroke-width:1;" x1="23.9551" x2="328.2656" y1="228.9609" y2="228.9609"/><text fill="#000000" font-family="sans-serif" font-size="13" lengthAdjust="spacing" textLength="70.4082" x="30.9551" y="223.895">Click Login</text></g><g class="message" data-entity-1="part3" data-entity-2="part4" id="msg6"><polygon fill="#181818" points="489.5068,254.0938,499.5068,258.0938,489.5068,262.0938,493.5068,258.0938" style="stroke:#181818;stroke-width:1;"/><line style="stroke:#181818;stroke-width:1;" x1="334.2656" x2="495.5068" y1="258.0938" y2="258.0938"/><text fill="#000000" font-family="sans-serif" font-size="13" lengthAdjust="spacing" textLength="74.4453" x="341.2656" y="253.0278">POST /login</text></g><g class="message" data-entity-1="part4" data-entity-2="part4" id="msg7"><line style="stroke:#181818;stroke-width:1;" x1="501.5068" x2="543.5068" y1="287.2266" y2="287.2266"/><line style="stroke:#181818;stroke-width:1;" x1="543.5068" x2="543.5068" y1="287.2266" y2="300.2266"/><line style="stroke:#181818;stroke-width:1;" x1="502.5068" x2="543.5068" y1="300.2266" y2="300.2266"/><polygon fill="#181818" points="512.5068,296.2266,502.5068,300.2266,512.5068,304.2266,508.5068,300.2266" style="stroke:#181818;stroke-width:1;"/><text fill="#000000" font-family="sans-serif" font-size="13" lengthAdjust="spacing" textLength="110.5762" x="508.5068" y="282.1606">Rate Limit Check</text></g><g class="message" data-entity-1="part4" data-entity-2="part4" id="msg8"><line style="stroke:#181818;stroke-width:1;" x1="501.5068" x2="543.5068" y1="329.3594" y2="329.3594"/><line style="stroke:#181818;stroke-width:1;" x1="543.5068" x2="543.5068" y1="329.3594" y2="342.3594"/><line style="stroke:#181818;stroke-width:1;" x1="502.5068" x2="543.5068" y1="342.3594" y2="342.3594"/><polygon fill="#181818" points="512.5068,338.3594,502.5068,342.3594,512.5068,346.3594,508.5068,342.3594" style="stroke:#181818;stroke-width:1;"/><text fill="#000000" font-family="sans-serif" font-size="13" lengthAdjust="spacing" textLength="91.1904" x="508.5068" y="324.2935">Validate Input</text></g><g class="message" data-entity-1="part4" data-entity-2="part5" id="msg9"><polygon fill="#181818" points="684.4912,367.4922,694.4912,371.4922,684.4912,375.4922,688.4912,371.4922" style="stroke:#181818;stroke-width:1;"/><line style="stroke:#181818;stroke-width:1;" x1="501.5068" x2="690.4912" y1="371.4922" y2="371.4922"/><text fill="#000000" font-family="sans-serif" font-size="13" lengthAdjust="spacing" textLength="61.3438" x="508.5068" y="366.4263">Find User</text></g><g class="message" data-entity-1="part5" data-entity-2="part4" id="msg10"><polygon fill="#181818" points="512.5068,396.625,502.5068,400.625,512.5068,404.625,508.5068,400.625" style="stroke:#181818;stroke-width:1;"/><line style="stroke:#181818;stroke-width:1;stroke-dasharray:2,2;" x1="506.5068" x2="695.4912" y1="400.625" y2="400.625"/><text fill="#000000" font-family="sans-serif" font-size="13" lengthAdjust="spacing" textLength="73.9248" x="518.5068" y="395.5591">User Found</text></g><g class="message" data-entity-1="part4" data-entity-2="part4" id="msg11"><line style="stroke:#181818;stroke-width:1;" x1="501.5068" x2="543.5068" y1="429.7578" y2="429.7578"/><line style="stroke:#181818;stroke-width:1;" x1="543.5068" x2="543.5068" y1="429.7578" y2="442.7578"/><line style="stroke:#181818;stroke-width:1;" x1="502.5068" x2="543.5068" y1="442.7578" y2="442.7578"/><polygon fill="#181818" points="512.5068,438.7578,502.5068,442.7578,512.5068,446.7578,508.5068,442.7578" style="stroke:#181818;stroke-width:1;"/><text fill="#000000" font-family="sans-serif" font-size="13" lengthAdjust="spacing" textLength="180.9844" x="508.5068" y="424.6919">Compare Password (bcrypt)</text></g><g class="message" data-entity-1="part4" data-entity-2="part4" id="msg12"><line style="stroke:#181818;stroke-width:1;" x1="501.5068" x2="543.5068" y1="471.8906" y2="471.8906"/><line style="stroke:#181818;stroke-width:1;" x1="543.5068" x2="543.5068" y1="471.8906" y2="484.8906"/><line style="stroke:#181818;stroke-width:1;" x1="502.5068" x2="543.5068" y1="484.8906" y2="484.8906"/><polygon fill="#181818" points="512.5068,480.8906,502.5068,484.8906,512.5068,488.8906,508.5068,484.8906" style="stroke:#181818;stroke-width:1;"/><text fill="#000000" font-family="sans-serif" font-size="13" lengthAdjust="spacing" textLength="89.4766" x="508.5068" y="466.8247">Generate JWT</text></g><g class="message" data-entity-1="part4" data-entity-2="part3" id="msg13"><polygon fill="#181818" points="345.2656,510.0234,335.2656,514.0234,345.2656,518.0234,341.2656,514.0234" style="stroke:#181818;stroke-width:1;"/><line style="stroke:#181818;stroke-width:1;" x1="339.2656" x2="500.5068" y1="514.0234" y2="514.0234"/><text fill="#000000" font-family="sans-serif" font-size="13" lengthAdjust="spacing" textLength="143.2412" x="351.2656" y="508.9575">Set Cookie + Redirect</text></g><g class="message" data-entity-1="part3" data-entity-2="part2" id="msg14"><polygon fill="#181818" points="188.1299,539.1563,178.1299,543.1563,188.1299,547.1563,184.1299,543.1563" style="stroke:#181818;stroke-width:1;"/><line style="stroke:#181818;stroke-width:1;" x1="182.1299" x2="333.2656" y1="543.1563" y2="543.1563"/><text fill="#000000" font-family="sans-serif" font-size="13" lengthAdjust="spacing" textLength="133.1357" x="194.1299" y="538.0903">Redirect to /userInfo</text></g><g class="message" data-entity-1="part2" data-entity-2="part1" id="msg15"><polygon fill="#181818" points="34.9551,568.2891,24.9551,572.2891,34.9551,576.2891,30.9551,572.2891" style="stroke:#181818;stroke-width:1;"/><line style="stroke:#181818;stroke-width:1;" x1="28.9551" x2="176.1299" y1="572.2891" y2="572.2891"/><text fill="#000000" font-family="sans-serif" font-size="13" lengthAdjust="spacing" textLength="129.1748" x="40.9551" y="567.2231">Display Profile Page</text></g><?plantuml-src NP11KuD038Nl_8fCJpfEzTw31q2SEbYPKlMyiYb6OCFiBktqtxlBKXayvdr9Nl94PLd3kq4TzK9RggWNoi8grdnsuWg4WNY9Sgv9GI5g76c-f3kMUFzZe4HzckRBPSShgvhJU4Hf74NU7DQF4CC6Tk94jR08bk6XzKPHx5dkMCv2mcmUvHwCmnj8oVIjk4muOztzhVMZJygw8j4eKLaIhLdGfAMg2QDXQUd4ugqyN4yeh-BUdvPJHnQIRwoQcNo8bgIdMzKFDkYf_oWZ9KE-hbnFtQDxneEIyuQ4EnSJkj-CEREMSFDLwKjlR-UMPrIelSdBvo6e_lmItJNC3I7SmHubQQniUCGVS5N6I0Tdl5L73gd-2w_GVAGMntH_0G00?></g></svg>