<?plantuml 1.2026.2?>
<svg xmlns="http://www.w3.org/2000/svg" xmlns:xlink="http://www.w3.org/1999/xlink" contentStyleType="text/css" data-diagram-type="DESCRIPTION" height="608px" preserveAspectRatio="none" style="width:603px;height:608px;" version="1.1" viewBox="0 0 603 608" width="603px" zoomAndPan="magnify"><defs/><g><!--cluster Frontend--><g class="cluster" data-qualified-name="Frontend" data-source-line="36" id="ent0002"><path d="M8.5,509 L71.4102,509 A3.75,3.75 0 0 1 73.9102,511.5 L80.9102,528.9688 L334.5,528.9688 A2.5,2.5 0 0 1 337,531.4688 L337,598.5 A2.5,2.5 0 0 1 334.5,601 L8.5,601 A2.5,2.5 0 0 1 6,598.5 L6,511.5 A2.5,2.5 0 0 1 8.5,509" fill="#F8F9FA" style="stroke:#DEE2E6;stroke-width:1.5;"/><line style="stroke:#DEE2E6;stroke-width:1.5;" x1="6" x2="80.9102" y1="528.9688" y2="528.9688"/><text fill="#212529" font-family="'Arial'" font-size="12" font-weight="bold" lengthAdjust="spacing" textLength="61.9102" x="10" y="522.1387">Frontend</text></g><!--cluster Backend Middleware--><g class="cluster" data-qualified-name="Backend Middleware" data-source-line="42" id="ent0008"><path d="M104.5,357 L246.0137,357 A3.75,3.75 0 0 1 248.5137,359.5 L255.5137,376.9688 L352,376.9688 A2.5,2.5 0 0 1 354.5,379.4688 L354.5,482.5 A2.5,2.5 0 0 1 352,485 L104.5,485 A2.5,2.5 0 0 1 102,482.5 L102,359.5 A2.5,2.5 0 0 1 104.5,357" fill="#F8F9FA" style="stroke:#DEE2E6;stroke-width:1.5;"/><line style="stroke:#DEE2E6;stroke-width:1.5;" x1="102" x2="255.5137" y1="376.9688" y2="376.9688"/><text fill="#212529" font-family="'Arial'" font-size="12" font-weight="bold" lengthAdjust="spacing" textLength="140.5137" x="106" y="370.1387">Backend Middleware</text></g><!--cluster External--><g class="cluster" data-qualified-name="External" data-source-line="49" id="ent0013"><path d="M237,6 L294.4844,6 A3.75,3.75 0 0 1 296.9844,8.5 L303.9844,25.9688 L354,25.9688 A2.5,2.5 0 0 1 356.5,28.4688 L356.5,95.5 A2.5,2.5 0 0 1 354,98 L237,98 A2.5,2.5 0 0 1 234.5,95.5 L234.5,8.5 A2.5,2.5 0 0 1 237,6" fill="#F8F9FA" style="stroke:#DEE2E6;stroke-width:1.5;"/><line style="stroke:#DEE2E6;stroke-width:1.5;" x1="234.5" x2="303.9844" y1="25.9688" y2="25.9688"/><text fill="#212529" font-family="'Arial'" font-size="12" font-weight="bold" lengthAdjust="spacing" textLength="56.4844" x="238.5" y="19.1387">External</text></g><!--cluster Data--><g class="cluster" data-qualified-name="Data" data-source-line="53" id="ent0015"><path d="M196.5,122 L229.3926,122 A3.75,3.75 0 0 1 231.8926,124.5 L238.8926,141.9688 L594,141.9688 A2.5,2.5 0 0 1 596.5,144.4688 L596.5,330.5 A2.5,2.5 0 0 1 594,333 L196.5,333 A2.5,2.5 0 0 1 194,330.5 L194,124.5 A2.5,2.5 0 0 1 196.5,122" fill="#F8F9FA" style="stroke:#DEE2E6;stroke-width:1.5;"/><line style="stroke:#DEE2E6;stroke-width:1.5;" x1="194" x2="238.8926" y1="141.9688" y2="141.9688"/><text fill="#212529" font-family="'Arial'" font-size="12" font-weight="bold" lengthAdjust="spacing" textLength="31.8926" x="198" y="135.1387">Data</text></g><!--cluster DB--><g class="cluster" data-qualified-name="Data.DB" data-source-line="54" id="ent0016"><path d="M226,180 C226,170 395.25,170 395.25,170 C395.25,170 564.5,170 564.5,180 L564.5,291 C564.5,301 395.25,301 395.25,301 C395.25,301 226,301 226,291 L226,180" fill="#E8F0FE" style="stroke:#AECBFA;stroke-width:1;"/><path d="M226,180 C226,190 395.25,190 395.25,190 C395.25,190 564.5,190 564.5,180" fill="none" style="stroke:#AECBFA;stroke-width:1;"/><text fill="#1A73E8" font-family="'Arial'" font-size="12" font-weight="bold" lengthAdjust="spacing" textLength="64.6699" x="362.915" y="203.1387">MongoDB</text></g><!--entity EJS--><g class="entity" data-qualified-name="Frontend.EJS" data-source-line="37" id="ent0003"><rect fill="#FFFFFF" height="43.9688" rx="2.5" ry="2.5" style="stroke:#CED4DA;stroke-width:0.5;" width="58.7383" x="118.5" y="541"/><rect fill="#FFFFFF" height="10" style="stroke:#CED4DA;stroke-width:0.5;" width="15" x="157.2383" y="546"/><rect fill="#FFFFFF" height="2" style="stroke:#CED4DA;stroke-width:0.5;" width="4" x="155.2383" y="548"/><rect fill="#FFFFFF" height="2" style="stroke:#CED4DA;stroke-width:0.5;" width="4" x="155.2383" y="552"/><text fill="#000000" font-family="'Arial'" font-size="12" lengthAdjust="spacing" textLength="18.7383" x="133.5" y="572.1387">EJS</text></g><!--entity CSS--><g class="entity" data-qualified-name="Frontend.CSS" data-source-line="38" id="ent0004"><rect fill="#FFFFFF" height="43.9688" rx="2.5" ry="2.5" style="stroke:#CED4DA;stroke-width:0.5;" width="63.6133" x="22" y="541"/><rect fill="#FFFFFF" height="10" style="stroke:#CED4DA;stroke-width:0.5;" width="15" x="65.6133" y="546"/><rect fill="#FFFFFF" height="2" style="stroke:#CED4DA;stroke-width:0.5;" width="4" x="63.6133" y="548"/><rect fill="#FFFFFF" height="2" style="stroke:#CED4DA;stroke-width:0.5;" width="4" x="63.6133" y="552"/><text fill="#000000" font-family="'Arial'" font-size="12" lengthAdjust="spacing" textLength="23.6133" x="37" y="572.1387">CSS</text></g><!--entity JS--><g class="entity" data-qualified-name="Frontend.JS" data-source-line="39" id="ent0006"><rect fill="#FFFFFF" height="43.9688" rx="2.5" ry="2.5" style="stroke:#CED4DA;stroke-width:0.5;" width="51.1563" x="270" y="541"/><rect fill="#FFFFFF" height="10" style="stroke:#CED4DA;stroke-width:0.5;" width="15" x="301.1563" y="546"/><rect fill="#FFFFFF" height="2" style="stroke:#CED4DA;stroke-width:0.5;" width="4" x="299.1563" y="548"/><rect fill="#FFFFFF" height="2" style="stroke:#CED4DA;stroke-width:0.5;" width="4" x="299.1563" y="552"/><text fill="#000000" font-family="'Arial'" font-size="12" lengthAdjust="spacing" textLength="11.1563" x="285" y="572.1387">JS</text></g><!--entity Router--><g class="entity" data-qualified-name="Backend Middleware.Router" data-source-line="43" id="ent0009"><rect fill="#E9ECEF" height="33.9688" rx="2.5" ry="2.5" style="stroke:#CED4DA;stroke-width:0.5;" width="60.3066" x="118" y="435"/><text fill="#495057" font-family="'Arial'" font-size="12" lengthAdjust="spacing" textLength="40.3066" x="128" y="456.1387">Router</text></g><!--entity Auth--><g class="entity" data-qualified-name="Backend Middleware.Auth" data-source-line="44" id="ent0010"><rect fill="#E9ECEF" height="33.9688" rx="2.5" ry="2.5" style="stroke:#CED4DA;stroke-width:0.5;" width="48.125" x="124" y="389"/><text fill="#495057" font-family="'Arial'" font-size="12" lengthAdjust="spacing" textLength="28.125" x="134" y="410.1387">Auth</text></g><!--entity Valid--><g class="entity" data-qualified-name="Backend Middleware.Valid" data-source-line="45" id="ent0011"><rect fill="#E9ECEF" height="33.9688" rx="2.5" ry="2.5" style="stroke:#CED4DA;stroke-width:0.5;" width="74.1816" x="258.5" y="435"/><text fill="#495057" font-family="'Arial'" font-size="12" lengthAdjust="spacing" textLength="54.1816" x="268.5" y="456.1387">Validator</text></g><!--entity Ctrl--><g class="entity" data-qualified-name="Backend Middleware.Ctrl" data-source-line="46" id="ent0012"><rect fill="#E9ECEF" height="33.9688" rx="2.5" ry="2.5" style="stroke:#CED4DA;stroke-width:0.5;" width="85.543" x="252.5" y="389"/><text fill="#495057" font-family="'Arial'" font-size="12" lengthAdjust="spacing" textLength="65.543" x="262.5" y="410.1387">Controllers</text></g><!--entity AI--><g class="entity" data-qualified-name="External.AI" data-source-line="50" id="ent0014"><rect fill="#FFFFFF" height="43.9688" rx="2.5" ry="2.5" style="stroke:#CED4DA;stroke-width:0.5;" width="89.8105" x="250.5" y="38"/><rect fill="#FFFFFF" height="10" style="stroke:#CED4DA;stroke-width:0.5;" width="15" x="320.3105" y="43"/><rect fill="#FFFFFF" height="2" style="stroke:#CED4DA;stroke-width:0.5;" width="4" x="318.3105" y="45"/><rect fill="#FFFFFF" height="2" style="stroke:#CED4DA;stroke-width:0.5;" width="4" x="318.3105" y="49"/><text fill="#000000" font-family="'Arial'" font-size="12" lengthAdjust="spacing" textLength="49.8105" x="265.5" y="69.1387">Qwen AI</text></g><!--entity users--><g class="entity" data-qualified-name="Data.DB.users" data-source-line="55" id="ent0017"><rect fill="#FFFFFF" height="43.9688" rx="2.5" ry="2.5" style="stroke:#CED4DA;stroke-width:0.5;" width="72.4258" x="372.5" y="225"/><rect fill="#FFFFFF" height="10" style="stroke:#CED4DA;stroke-width:0.5;" width="15" x="424.9258" y="230"/><rect fill="#FFFFFF" height="2" style="stroke:#CED4DA;stroke-width:0.5;" width="4" x="422.9258" y="232"/><rect fill="#FFFFFF" height="2" style="stroke:#CED4DA;stroke-width:0.5;" width="4" x="422.9258" y="236"/><text fill="#000000" font-family="'Arial'" font-size="12" lengthAdjust="spacing" textLength="32.4258" x="387.5" y="256.1387">users</text></g><!--entity sessions--><g class="entity" data-qualified-name="Data.DB.sessions" data-source-line="56" id="ent0018"><rect fill="#FFFFFF" height="43.9688" rx="2.5" ry="2.5" style="stroke:#CED4DA;stroke-width:0.5;" width="90.6719" x="250" y="225"/><rect fill="#FFFFFF" height="10" style="stroke:#CED4DA;stroke-width:0.5;" width="15" x="320.6719" y="230"/><rect fill="#FFFFFF" height="2" style="stroke:#CED4DA;stroke-width:0.5;" width="4" x="318.6719" y="232"/><rect fill="#FFFFFF" height="2" style="stroke:#CED4DA;stroke-width:0.5;" width="4" x="318.6719" y="236"/><text fill="#000000" font-family="'Arial'" font-size="12" lengthAdjust="spacing" textLength="50.6719" x="265" y="256.1387">sessions</text></g><!--entity history--><g class="entity" data-qualified-name="Data.DB.history" data-source-line="57" id="ent0020"><rect fill="#FFFFFF" height="43.9688" rx="2.5" ry="2.5" style="stroke:#CED4DA;stroke-width:0.5;" width="81.2734" x="459.5" y="225"/><rect fill="#FFFFFF" height="10" style="stroke:#CED4DA;stroke-width:0.5;" width="15" x="520.7734" y="230"/><rect fill="#FFFFFF" height="2" style="stroke:#CED4DA;stroke-width:0.5;" width="4" x="518.7734" y="232"/><rect fill="#FFFFFF" height="2" style="stroke:#CED4DA;stroke-width:0.5;" width="4" x="518.7734" y="236"/><text fill="#000000" font-family="'Arial'" font-size="12" lengthAdjust="spacing" textLength="41.2734" x="474.5" y="256.1387">history</text></g><!--link CSS to EJS--><!--link EJS to JS--><!--link sessions to users--><!--link users to history--><!--link EJS to Router--><g class="link" data-entity-1="ent0003" data-entity-2="ent0009" data-link-type="dependency" data-source-line="62" id="lnk22"><path d="M148,540.89 C148,516.93 148,498.97 148,475.01" fill="none" id="EJS-to-Router" style="stroke:#181818;stroke-width:1;"/><polygon fill="#181818" points="148,469.01,144,478.01,148,474.01,152,478.01,148,469.01" style="stroke:#181818;stroke-width:1;"/></g><!--link Router to Auth--><g class="link" data-entity-1="ent0009" data-entity-2="ent0010" data-link-type="dependency" data-source-line="65" id="lnk23"><path d="M148,434.75 C148,430.86 148,432.96 148,429.07" fill="none" id="Router-to-Auth" style="stroke:#181818;stroke-width:1;"/><polygon fill="#181818" points="148,423.07,144,432.07,148,428.07,152,432.07,148,423.07" style="stroke:#181818;stroke-width:1;"/></g><!--link Auth to Valid--><g class="link" data-entity-1="ent0010" data-entity-2="ent0011" data-link-type="dependency" data-source-line="66" id="lnk24"><path d="M172.24,422.12 C176.67,424.71 181.37,427.14 186,429 C209.22,438.34 230.9145,443.1873 252.4745,446.6173" fill="none" id="Auth-to-Valid" style="stroke:#181818;stroke-width:1;"/><polygon fill="#181818" points="258.4,447.56,250.1402,442.1956,253.4621,446.7744,248.8833,450.0963,258.4,447.56" style="stroke:#181818;stroke-width:1;"/></g><!--link Valid to Ctrl--><g class="link" data-entity-1="ent0011" data-entity-2="ent0012" data-link-type="dependency" data-source-line="67" id="lnk25"><path d="M295.5,434.75 C295.5,430.86 295.5,432.96 295.5,429.07" fill="none" id="Valid-to-Ctrl" style="stroke:#181818;stroke-width:1;"/><polygon fill="#181818" points="295.5,423.07,291.5,432.07,295.5,428.07,299.5,432.07,295.5,423.07" style="stroke:#181818;stroke-width:1;"/></g><!--link Ctrl to DB--><g class="link" data-entity-1="ent0012" data-entity-2="ent0016" data-link-type="dependency" data-source-line="70" id="lnk26"><path d="M312.16,388.79 C324.78,372.885 329.7375,356.9825 327.0325,341.08 C325.68,333.1288 322.4119,325.1775 317.2281,317.2259 C314.6363,313.2502 311.5655,309.2743 308.0158,305.2983 C307.1284,304.3043 306.211,303.3103 305.2637,302.3163 C305.0269,302.0678 304.7882,301.8193 304.5476,301.5708 C304.4274,301.4466 308.4965,305.6171 308.3753,305.4928" fill="none" id="Ctrl-to-DB" style="stroke:#181818;stroke-width:1;"/><polygon fill="#181818" points="304.1854,301.1981,307.607,310.4335,307.6769,304.777,313.3334,304.847,304.1854,301.1981" style="stroke:#181818;stroke-width:1;"/></g><!--link Ctrl to AI--><g class="link" data-entity-1="ent0012" data-entity-2="ent0014" data-link-type="dependency" data-source-line="71" id="lnk27"><path d="M263.89,388.94 C235.2,371.2 195.56,340.39 183.33,300 C180.69,291.28 180.69,226.72 183.33,218 C200.05,162.78 240.5245,114.939 268.1845,86.529" fill="none" id="Ctrl-to-AI" style="stroke:#181818;stroke-width:1;"/><polygon fill="#181818" points="272.37,82.23,263.2257,85.8882,268.8821,85.8125,268.9577,91.4689,272.37,82.23" style="stroke:#181818;stroke-width:1;"/></g><!--link Router to Valid--><!--link Auth to Ctrl--><?plantuml-src TLHDRzim3BtxLn3UOQS0ZTUipQM0Oyj31tJ35coN80VLPcmXYXH8Cj9so7yV9QLft3G-E0eVnVVuOKfSEN0QZ6Wx1uqmM3kXLP9yXj5e18L4hk11DsWKpDsp5AhrG6BNGcsvuHjuvFMwDRfNJQsbDk0CLvOWLEx4otQyqJj_UyMbnHEamHNlfQkqSZ_u1Y7DZU0o_TXZBbuGnja9g4YRnUtGI1BMmJX9JgnRKifRX7y9q3CxwYw2xa_LRJMjyeXfGnaVx2LZ6ViQx5x2mPgDiqasFLfzRH0UjMoI_IcdhoTNhRp8ogQiODKvQy7Awp9_ptezdLnDReOK3NVyaTlB3BVLLSNE6N9MpAepXd5-yuNT3XbglTbgHGszMBhmN4nY_pfEkQaxuQWalK5W4ZSKquPvUkrDMXdIWgf90zU2VPyl_MyndozXjEX4qw1QqYYfqTqRwd_FKGyIzJ6qbqsHuO7S9EveH2F9Mu_ItxftQ5BW5k9n2EUzwmBe3qFeBvU2Eg7ZvV1lw51GNaPBYSO6by8PEP37deXFqUZ7p7_jK45-lmnqzmFFaZeUlOwzJn-qQdKv2w7BsQ5HYzuItJAUBLfBdxRze5AdRl5yxjC9IzazUw_zMqV_IFhUHmKD2AyTV3EY0KfKnIqIMqlD0Gfmg2VTAmnoXnOukB1rigSCMdzpvTT7Xs6bKAEIUCLV3lNsBufuTwXkU7imL9BY_kpTjgSbXjO9nOE0n6FUfvmTZrHCSfuxq_ivv18eJglyADAWAqlv23-Lj1HjPuHQGwUDUA7kaIijjXgFkjwLACgAAjz1dli_?></g></svg>