<?plantuml 1.2026.2?><svg xmlns="http://www.w3.org/2000/svg" xmlns:xlink="http://www.w3.org/1999/xlink" contentStyleType="text/css" data-diagram-type="DESCRIPTION" height="996px" preserveAspectRatio="none" style="width:800px;height:996px;background:#FFFFFF;" version="1.1" viewBox="0 0 800 996" width="800px" zoomAndPan="magnify"><defs/><g><!--cluster Frontend (Presentation Layer)--><g class="cluster" data-qualified-name="Frontend .Presentation Layer." data-source-line="1" id="ent0002"><path d="M8.5,6 L249.8379,6 A3.75,3.75 0 0 1 252.3379,8.5 L259.3379,28.2969 L588.5,28.2969 A2.5,2.5 0 0 1 591,30.7969 L591,100.5 A2.5,2.5 0 0 1 588.5,103 L8.5,103 A2.5,2.5 0 0 1 6,100.5 L6,8.5 A2.5,2.5 0 0 1 8.5,6" fill="none" style="stroke:#000000;stroke-width:1.5;"/><line style="stroke:#000000;stroke-width:1.5;" x1="6" x2="259.3379" y1="28.2969" y2="28.2969"/><text fill="#000000" font-family="sans-serif" font-size="14" font-weight="bold" lengthAdjust="spacing" textLength="240.3379" x="10" y="20.9951">Frontend (Presentation Layer)</text></g><!--cluster Backend (Application Layer)--><g class="cluster" data-qualified-name="Backend .Application Layer." data-source-line="7" id="ent0006"><path d="M377.5,127 L601.4473,127 A3.75,3.75 0 0 1 603.9473,129.5 L610.9473,149.2969 L632.5,149.2969 A2.5,2.5 0 0 1 635,151.7969 L635,645.5 A2.5,2.5 0 0 1 632.5,648 L377.5,648 A2.5,2.5 0 0 1 375,645.5 L375,129.5 A2.5,2.5 0 0 1 377.5,127" fill="none" style="stroke:#000000;stroke-width:1.5;"/><line style="stroke:#000000;stroke-width:1.5;" x1="375" x2="610.9473" y1="149.2969" y2="149.2969"/><text fill="#000000" font-family="sans-serif" font-size="14" font-weight="bold" lengthAdjust="spacing" textLength="222.9473" x="379" y="141.9951">Backend (Application Layer)</text></g><!--cluster Data Layer--><g class="cluster" data-qualified-name="Data Layer" data-source-line="15" id="ent0012"><path d="M79.5,672 L166.4756,672 A3.75,3.75 0 0 1 168.9756,674.5 L175.9756,694.2969 L554.5,694.2969 A2.5,2.5 0 0 1 557,696.7969 L557,986.5 A2.5,2.5 0 0 1 554.5,989 L79.5,989 A2.5,2.5 0 0 1 77,986.5 L77,674.5 A2.5,2.5 0 0 1 79.5,672" fill="none" style="stroke:#000000;stroke-width:1.5;"/><line style="stroke:#000000;stroke-width:1.5;" x1="77" x2="175.9756" y1="694.2969" y2="694.2969"/><text fill="#000000" font-family="sans-serif" font-size="14" font-weight="bold" lengthAdjust="spacing" textLength="85.9756" x="81" y="686.9951">Data Layer</text></g><!--cluster DB--><g class="cluster" data-qualified-name="Data Layer.DB" data-source-line="16" id="ent0013"><path d="M109,733 C109,723 317,723 317,723 C317,723 525,723 525,733 L525,947 C525,957 317,957 317,957 C317,957 109,957 109,947 L109,733" fill="none" style="stroke:#181818;stroke-width:1;"/><path d="M109,733 C109,743 317,743 317,743 C317,743 525,743 525,733" fill="none" style="stroke:#181818;stroke-width:1;"/><text fill="#000000" font-family="sans-serif" font-size="14" font-weight="bold" lengthAdjust="spacing" textLength="75.4482" x="279.2759" y="757.9951">MongoDB</text></g><!--cluster External Services--><g class="cluster" data-qualified-name="External Services" data-source-line="23" id="ent0017"><path d="M583.5,746 L721.8066,746 A3.75,3.75 0 0 1 724.3066,748.5 L731.3066,768.2969 L790.5,768.2969 A2.5,2.5 0 0 1 793,770.7969 L793,840.5 A2.5,2.5 0 0 1 790.5,843 L583.5,843 A2.5,2.5 0 0 1 581,840.5 L581,748.5 A2.5,2.5 0 0 1 583.5,746" fill="none" style="stroke:#000000;stroke-width:1.5;"/><line style="stroke:#000000;stroke-width:1.5;" x1="581" x2="731.3066" y1="768.2969" y2="768.2969"/><text fill="#000000" font-family="sans-serif" font-size="14" font-weight="bold" lengthAdjust="spacing" textLength="137.3066" x="585" y="760.9951">External Services</text></g><!--entity EJS Templates--><g class="entity" data-qualified-name="Frontend .Presentation Layer..EJS Templates" data-source-line="2" id="ent0003"><rect fill="#F1F1F1" height="46.2969" rx="2.5" ry="2.5" style="stroke:#181818;stroke-width:0.5;" width="139.8662" x="435" y="41"/><rect fill="#F1F1F1" height="10" style="stroke:#181818;stroke-width:0.5;" width="15" x="554.8662" y="46"/><rect fill="#F1F1F1" height="2" style="stroke:#181818;stroke-width:0.5;" width="4" x="552.8662" y="48"/><rect fill="#F1F1F1" height="2" style="stroke:#181818;stroke-width:0.5;" width="4" x="552.8662" y="52"/><text fill="#000000" font-family="sans-serif" font-size="14" lengthAdjust="spacing" textLength="99.8662" x="450" y="73.9951">EJS Templates</text></g><!--entity CSS Stylesheets--><g class="entity" data-qualified-name="Frontend .Presentation Layer..CSS Stylesheets" data-source-line="3" id="ent0004"><rect fill="#F1F1F1" height="46.2969" rx="2.5" ry="2.5" style="stroke:#181818;stroke-width:0.5;" width="153.3398" x="246.5" y="41"/><rect fill="#F1F1F1" height="10" style="stroke:#181818;stroke-width:0.5;" width="15" x="379.8398" y="46"/><rect fill="#F1F1F1" height="2" style="stroke:#181818;stroke-width:0.5;" width="4" x="377.8398" y="48"/><rect fill="#F1F1F1" height="2" style="stroke:#181818;stroke-width:0.5;" width="4" x="377.8398" y="52"/><text fill="#000000" font-family="sans-serif" font-size="14" lengthAdjust="spacing" textLength="113.3398" x="261.5" y="73.9951">CSS Stylesheets</text></g><!--entity Client-side JavaScript--><g class="entity" data-qualified-name="Frontend .Presentation Layer..Client-side JavaScript" data-source-line="4" id="ent0005"><rect fill="#F1F1F1" height="46.2969" rx="2.5" ry="2.5" style="stroke:#181818;stroke-width:0.5;" width="188.8936" x="22.5" y="41"/><rect fill="#F1F1F1" height="10" style="stroke:#181818;stroke-width:0.5;" width="15" x="191.3936" y="46"/><rect fill="#F1F1F1" height="2" style="stroke:#181818;stroke-width:0.5;" width="4" x="189.3936" y="48"/><rect fill="#F1F1F1" height="2" style="stroke:#181818;stroke-width:0.5;" width="4" x="189.3936" y="52"/><text fill="#000000" font-family="sans-serif" font-size="14" lengthAdjust="spacing" textLength="148.8936" x="37.5" y="73.9951">Client-side JavaScript</text></g><!--entity Express Router--><g class="entity" data-qualified-name="Backend .Application Layer..Express Router" data-source-line="8" id="ent0007"><rect fill="#F1F1F1" height="46.2969" rx="2.5" ry="2.5" style="stroke:#181818;stroke-width:0.5;" width="146.4492" x="432" y="162"/><rect fill="#F1F1F1" height="10" style="stroke:#181818;stroke-width:0.5;" width="15" x="558.4492" y="167"/><rect fill="#F1F1F1" height="2" style="stroke:#181818;stroke-width:0.5;" width="4" x="556.4492" y="169"/><rect fill="#F1F1F1" height="2" style="stroke:#181818;stroke-width:0.5;" width="4" x="556.4492" y="173"/><text fill="#000000" font-family="sans-serif" font-size="14" lengthAdjust="spacing" textLength="106.4492" x="447" y="194.9951">Express Router</text></g><!--entity Authentication Middleware--><g class="entity" data-qualified-name="Backend .Application Layer..Authentication Middleware" data-source-line="9" id="ent0008"><rect fill="#F1F1F1" height="46.2969" rx="2.5" ry="2.5" style="stroke:#181818;stroke-width:0.5;" width="227.8652" x="391" y="268"/><rect fill="#F1F1F1" height="10" style="stroke:#181818;stroke-width:0.5;" width="15" x="598.8652" y="273"/><rect fill="#F1F1F1" height="2" style="stroke:#181818;stroke-width:0.5;" width="4" x="596.8652" y="275"/><rect fill="#F1F1F1" height="2" style="stroke:#181818;stroke-width:0.5;" width="4" x="596.8652" y="279"/><text fill="#000000" font-family="sans-serif" font-size="14" lengthAdjust="spacing" textLength="187.8652" x="406" y="300.9951">Authentication Middleware</text></g><!--entity Rate Limiter Middleware--><g class="entity" data-qualified-name="Backend .Application Layer..Rate Limiter Middleware" data-source-line="10" id="ent0009"><rect fill="#F1F1F1" height="46.2969" rx="2.5" ry="2.5" style="stroke:#181818;stroke-width:0.5;" width="211.0283" x="399.5" y="374"/><rect fill="#F1F1F1" height="10" style="stroke:#181818;stroke-width:0.5;" width="15" x="590.5283" y="379"/><rect fill="#F1F1F1" height="2" style="stroke:#181818;stroke-width:0.5;" width="4" x="588.5283" y="381"/><rect fill="#F1F1F1" height="2" style="stroke:#181818;stroke-width:0.5;" width="4" x="588.5283" y="385"/><text fill="#000000" font-family="sans-serif" font-size="14" lengthAdjust="spacing" textLength="171.0283" x="414.5" y="406.9951">Rate Limiter Middleware</text></g><!--entity Validation Middleware--><g class="entity" data-qualified-name="Backend .Application Layer..Validation Middleware" data-source-line="11" id="ent0010"><rect fill="#F1F1F1" height="46.2969" rx="2.5" ry="2.5" style="stroke:#181818;stroke-width:0.5;" width="195.3125" x="407.5" y="480"/><rect fill="#F1F1F1" height="10" style="stroke:#181818;stroke-width:0.5;" width="15" x="582.8125" y="485"/><rect fill="#F1F1F1" height="2" style="stroke:#181818;stroke-width:0.5;" width="4" x="580.8125" y="487"/><rect fill="#F1F1F1" height="2" style="stroke:#181818;stroke-width:0.5;" width="4" x="580.8125" y="491"/><text fill="#000000" font-family="sans-serif" font-size="14" lengthAdjust="spacing" textLength="155.3125" x="422.5" y="512.9951">Validation Middleware</text></g><!--entity Business Logic Controllers--><g class="entity" data-qualified-name="Backend .Application Layer..Business Logic Controllers" data-source-line="12" id="ent0011"><rect fill="#F1F1F1" height="46.2969" rx="2.5" ry="2.5" style="stroke:#181818;stroke-width:0.5;" width="223.9414" x="393" y="586"/><rect fill="#F1F1F1" height="10" style="stroke:#181818;stroke-width:0.5;" width="15" x="596.9414" y="591"/><rect fill="#F1F1F1" height="2" style="stroke:#181818;stroke-width:0.5;" width="4" x="594.9414" y="593"/><rect fill="#F1F1F1" height="2" style="stroke:#181818;stroke-width:0.5;" width="4" x="594.9414" y="597"/><text fill="#000000" font-family="sans-serif" font-size="14" lengthAdjust="spacing" textLength="183.9414" x="408" y="618.9951">Business Logic Controllers</text></g><!--entity users Collection--><g class="entity" data-qualified-name="Data Layer.DB.users Collection" data-source-line="17" id="ent0014"><rect fill="#F1F1F1" height="46.2969" rx="2.5" ry="2.5" style="stroke:#181818;stroke-width:0.5;" width="151.5283" x="152" y="781"/><rect fill="#F1F1F1" height="10" style="stroke:#181818;stroke-width:0.5;" width="15" x="283.5283" y="786"/><rect fill="#F1F1F1" height="2" style="stroke:#181818;stroke-width:0.5;" width="4" x="281.5283" y="788"/><rect fill="#F1F1F1" height="2" style="stroke:#181818;stroke-width:0.5;" width="4" x="281.5283" y="792"/><text fill="#000000" font-family="sans-serif" font-size="14" lengthAdjust="spacing" textLength="111.5283" x="167" y="813.9951">users Collection</text></g><!--entity history Collection--><g class="entity" data-qualified-name="Data Layer.DB.history Collection" data-source-line="18" id="ent0015"><rect fill="#F1F1F1" height="46.2969" rx="2.5" ry="2.5" style="stroke:#181818;stroke-width:0.5;" width="161.8506" x="339" y="781"/><rect fill="#F1F1F1" height="10" style="stroke:#181818;stroke-width:0.5;" width="15" x="480.8506" y="786"/><rect fill="#F1F1F1" height="2" style="stroke:#181818;stroke-width:0.5;" width="4" x="478.8506" y="788"/><rect fill="#F1F1F1" height="2" style="stroke:#181818;stroke-width:0.5;" width="4" x="478.8506" y="792"/><text fill="#000000" font-family="sans-serif" font-size="14" lengthAdjust="spacing" textLength="121.8506" x="354" y="813.9951">history Collection</text></g><!--entity sessions Collection--><g class="entity" data-qualified-name="Data Layer.DB.sessions Collection" data-source-line="19" id="ent0016"><rect fill="#F1F1F1" height="46.2969" rx="2.5" ry="2.5" style="stroke:#181818;stroke-width:0.5;" width="172.8154" x="152.5" y="887"/><rect fill="#F1F1F1" height="10" style="stroke:#181818;stroke-width:0.5;" width="15" x="305.3154" y="892"/><rect fill="#F1F1F1" height="2" style="stroke:#181818;stroke-width:0.5;" width="4" x="303.3154" y="894"/><rect fill="#F1F1F1" height="2" style="stroke:#181818;stroke-width:0.5;" width="4" x="303.3154" y="898"/><text fill="#000000" font-family="sans-serif" font-size="14" lengthAdjust="spacing" textLength="132.8154" x="167.5" y="919.9951">sessions Collection</text></g><!--entity Gemini/Qwen AI API--><g class="entity" data-qualified-name="External Services.Gemini.Qwen AI API" data-source-line="24" id="ent0018"><rect fill="#F1F1F1" height="46.2969" rx="2.5" ry="2.5" style="stroke:#181818;stroke-width:0.5;" width="179.1797" x="597.5" y="781"/><rect fill="#F1F1F1" height="10" style="stroke:#181818;stroke-width:0.5;" width="15" x="756.6797" y="786"/><rect fill="#F1F1F1" height="2" style="stroke:#181818;stroke-width:0.5;" width="4" x="754.6797" y="788"/><rect fill="#F1F1F1" height="2" style="stroke:#181818;stroke-width:0.5;" width="4" x="754.6797" y="792"/><text fill="#000000" font-family="sans-serif" font-size="14" lengthAdjust="spacing" textLength="139.1797" x="612.5" y="813.9951">Gemini/Qwen AI API</text></g><!--link EJS Templates to Express Router--><g class="link" data-entity-1="ent0003" data-entity-2="ent0007" data-link-type="dependency" data-source-line="27" id="lnk19"><path d="M505,87.1 C505,108.34 505,134.28 505,155.61" fill="none" id="EJS Templates-to-Express Router" style="stroke:#181818;stroke-width:1;"/><polygon fill="#181818" points="505,161.61,509,152.61,505,156.61,501,152.61,505,161.61" style="stroke:#181818;stroke-width:1;"/></g><!--link Express Router to Authentication Middleware--><g class="link" data-entity-1="ent0007" data-entity-2="ent0008" data-link-type="dependency" data-source-line="28" id="lnk20"><path d="M505,208.06 C505,225.7 505,244.34 505,261.98" fill="none" id="Express Router-to-Authentication Middleware" style="stroke:#181818;stroke-width:1;"/><polygon fill="#181818" points="505,267.98,509,258.98,505,262.98,501,258.98,505,267.98" style="stroke:#181818;stroke-width:1;"/></g><!--link Authentication Middleware to Rate Limiter Middleware--><g class="link" data-entity-1="ent0008" data-entity-2="ent0009" data-link-type="dependency" data-source-line="29" id="lnk21"><path d="M505,314.06 C505,331.7 505,350.34 505,367.98" fill="none" id="Authentication Middleware-to-Rate Limiter Middleware" style="stroke:#181818;stroke-width:1;"/><polygon fill="#181818" points="505,373.98,509,364.98,505,368.98,501,364.98,505,373.98" style="stroke:#181818;stroke-width:1;"/></g><!--link Rate Limiter Middleware to Validation Middleware--><g class="link" data-entity-1="ent0009" data-entity-2="ent0010" data-link-type="dependency" data-source-line="30" id="lnk22"><path d="M505,420.06 C505,437.7 505,456.34 505,473.98" fill="none" id="Rate Limiter Middleware-to-Validation Middleware" style="stroke:#181818;stroke-width:1;"/><polygon fill="#181818" points="505,479.98,509,470.98,505,474.98,501,470.98,505,479.98" style="stroke:#181818;stroke-width:1;"/></g><!--link Validation Middleware to Business Logic Controllers--><g class="link" data-entity-1="ent0010" data-entity-2="ent0011" data-link-type="dependency" data-source-line="31" id="lnk23"><path d="M505,526.06 C505,543.7 505,562.34 505,579.98" fill="none" id="Validation Middleware-to-Business Logic Controllers" style="stroke:#181818;stroke-width:1;"/><polygon fill="#181818" points="505,585.98,509,576.98,505,580.98,501,576.98,505,585.98" style="stroke:#181818;stroke-width:1;"/></g><!--link Business Logic Controllers to DB--><g class="link" data-entity-1="ent0011" data-entity-2="ent0013" data-link-type="dependency" data-source-line="32" id="lnk24"><path d="M392.65,612.02 C297.49,616.23 171.08,628.58 136,664 C125.2025,674.9025 118.5688,688.8569 114.7033,703.7008 C113.7369,707.4118 112.9436,711.1783 112.3014,714.9667 C111.9804,716.8609 111.6971,718.7605 111.4489,720.6614 C111.3869,721.1366 111.327,721.6119 111.2693,722.0872 C111.2405,722.3249 111.9088,716.6031 111.881,716.8408" fill="none" id="Business Logic Controllers-to-DB" style="stroke:#181818;stroke-width:1;"/><polygon fill="#181818" points="111.1844,722.8002,116.2023,714.3255,111.7649,717.834,108.2564,713.3966,111.1844,722.8002" style="stroke:#181818;stroke-width:1;"/></g><!--link Business Logic Controllers to Gemini/Qwen AI API--><g class="link" data-entity-1="ent0011" data-entity-2="ent0018" data-link-type="dependency" data-source-line="33" id="lnk25"><path d="M525.88,632.14 C560.89,669.27 626.9331,739.3052 661.9731,776.4552" fill="none" id="Business Logic Controllers-to-Gemini/Qwen AI API" style="stroke:#181818;stroke-width:1;"/><polygon fill="#181818" points="666.09,780.82,662.8245,771.5282,662.6593,777.1827,657.0048,777.0174,666.09,780.82" style="stroke:#181818;stroke-width:1;"/></g><?plantuml-src XL7BRi8m4BpdArQSsWFg7rHA2Ar0855IzL9ns2OhMDNObktmKCM_TudXG4hIMxApy_2inV8RrmI35sTq85t1myAH9nqmiD4mmoEvnm7y902Vusa1xxIr2WFvrNaoAWeemb6Htn25oqonq8UUAu8fxh0e7TkmIav9OgzkcNmqPgcrYijxNWShEJmiJHt8DS9f7JQYV5sVSrKfsgEZ1brAA9ZnbcMzZNsWukekAwizwxFFpAovX96Ku8nIvFnju1m3ne0ndwZX5tf1vaQlJPuD03taMGEARkr5GkH4gZpxhk9umpuOT_mBUCaWVstAwIR4-21lqwYW8BVZalobgrVQikQdjprfI2UGBYPD-DQzO3Xy_jjhUn2tUghkmIAtyn2TIEHr7AbZ7Zbzv-i36tQU_RzphzjV?></g></svg>