<?plantuml 1.2026.2?><svg xmlns="http://www.w3.org/2000/svg" xmlns:xlink="http://www.w3.org/1999/xlink" contentStyleType="text/css" data-diagram-type="DESCRIPTION" height="700px" preserveAspectRatio="none" style="width:318px;height:700px;background:#FFFFFF;" version="1.1" viewBox="0 0 318 700" width="318px" zoomAndPan="magnify"><defs/><g><!--cluster Xinglin Yuan TCM System--><g class="cluster" data-qualified-name="Xinglin Yuan TCM System" data-source-line="5" id="ent0004"><rect fill="none" height="687" rx="2.5" ry="2.5" style="stroke:#181818;stroke-width:1;" width="217" x="95" y="7"/><text fill="#000000" font-family="sans-serif" font-size="14" font-weight="bold" lengthAdjust="spacing" textLength="201.3594" x="102.8203" y="21.9951">Xinglin Yuan TCM System</text></g><!--entity UC1--><g class="entity" data-qualified-name="Xinglin Yuan TCM System.UC1" data-source-line="6" id="ent0005"><ellipse cx="203.3154" cy="59.9631" fill="#F1F1F1" rx="75.3154" ry="17.4631" style="stroke:#181818;stroke-width:0.5;"/><text fill="#000000" font-family="sans-serif" font-size="14" lengthAdjust="spacing" textLength="119.4922" x="143.5693" y="64.6115">Register Account</text></g><!--entity UC2--><g class="entity" data-qualified-name="Xinglin Yuan TCM System.UC2" data-source-line="7" id="ent0006"><ellipse cx="203.3804" cy="127.0236" fill="#F1F1F1" rx="29.8804" ry="14.5236" style="stroke:#181818;stroke-width:0.5;"/><text fill="#000000" font-family="sans-serif" font-size="14" lengthAdjust="spacing" textLength="38.0146" x="184.3731" y="131.6721">Login</text></g><!--entity UC3--><g class="entity" data-qualified-name="Xinglin Yuan TCM System.UC3" data-source-line="8" id="ent0007"><ellipse cx="203.324" cy="466.0648" fill="#F1F1F1" rx="60.824" ry="14.5648" style="stroke:#181818;stroke-width:0.5;"/><text fill="#000000" font-family="sans-serif" font-size="14" lengthAdjust="spacing" textLength="82.0654" x="162.2912" y="470.7132">View Profile</text></g><!--entity UC4--><g class="entity" data-qualified-name="Xinglin Yuan TCM System.UC4" data-source-line="9" id="ent0008"><ellipse cx="203.7023" cy="192.8405" fill="#F1F1F1" rx="67.2023" ry="15.8405" style="stroke:#181818;stroke-width:0.5;"/><text fill="#000000" font-family="sans-serif" font-size="14" lengthAdjust="spacing" textLength="99.2373" x="154.0837" y="197.4889">Update Profile</text></g><!--entity UC5--><g class="entity" data-qualified-name="Xinglin Yuan TCM System.UC5" data-source-line="10" id="ent0009"><ellipse cx="203.3215" cy="397.8643" fill="#F1F1F1" rx="77.3215" ry="17.8643" style="stroke:#181818;stroke-width:0.5;"/><text fill="#000000" font-family="sans-serif" font-size="14" lengthAdjust="spacing" textLength="124.3184" x="141.1623" y="402.5127">Change Password</text></g><!--entity UC6--><g class="entity" data-qualified-name="Xinglin Yuan TCM System.UC6" data-source-line="11" id="ent0010"><ellipse cx="203.2764" cy="261.7553" fill="#F1F1F1" rx="76.7764" ry="17.7553" style="stroke:#181818;stroke-width:0.5;"/><text fill="#000000" font-family="sans-serif" font-size="14" lengthAdjust="spacing" textLength="123.0127" x="141.77" y="266.4037">TCM Consultation</text></g><!--entity UC7--><g class="entity" data-qualified-name="Xinglin Yuan TCM System.UC7" data-source-line="12" id="ent0011"><ellipse cx="203.388" cy="530.9776" fill="#F1F1F1" rx="62.888" ry="14.9776" style="stroke:#181818;stroke-width:0.5;"/><text fill="#000000" font-family="sans-serif" font-size="14" lengthAdjust="spacing" textLength="87.7871" x="159.4944" y="535.626">View History</text></g><!--entity UC8--><g class="entity" data-qualified-name="Xinglin Yuan TCM System.UC8" data-source-line="13" id="ent0012"><ellipse cx="203.5682" cy="330.0236" fill="#F1F1F1" rx="37.0682" ry="14.5236" style="stroke:#181818;stroke-width:0.5;"/><text fill="#000000" font-family="sans-serif" font-size="14" lengthAdjust="spacing" textLength="48.1797" x="179.4783" y="334.6721">Logout</text></g><!--entity UC9--><g class="entity" data-qualified-name="Xinglin Yuan TCM System.UC9" data-source-line="14" id="ent0013"><ellipse cx="203.7129" cy="596.8426" fill="#F1F1F1" rx="67.2129" ry="15.8426" style="stroke:#181818;stroke-width:0.5;"/><text fill="#000000" font-family="sans-serif" font-size="14" lengthAdjust="spacing" textLength="99.2646" x="154.0806" y="601.491">Manage Users</text></g><!--entity UC10--><g class="entity" data-qualified-name="Xinglin Yuan TCM System.UC10" data-source-line="15" id="ent0014"><ellipse cx="203.5752" cy="663.115" fill="#F1F1F1" rx="63.5752" ry="15.115" style="stroke:#181818;stroke-width:0.5;"/><text fill="#000000" font-family="sans-serif" font-size="14" lengthAdjust="spacing" textLength="89.6533" x="158.7485" y="667.7635">Delete Users</text></g><!--entity U--><g class="entity" data-qualified-name="U" data-source-line="2" id="ent0002"><ellipse cx="28.4551" cy="266.5" fill="#F1F1F1" rx="8" ry="8" style="stroke:#181818;stroke-width:0.5;"/><path d="M28.4551,274.5 L28.4551,301.5 M15.4551,282.5 L41.4551,282.5 M28.4551,301.5 L15.4551,316.5 M28.4551,301.5 L41.4551,316.5" fill="none" style="stroke:#181818;stroke-width:0.5;"/><text fill="#000000" font-family="sans-serif" font-size="14" lengthAdjust="spacing" textLength="31.9102" x="12.5" y="330.9951">User</text></g><!--entity A--><g class="entity" data-qualified-name="A" data-source-line="3" id="ent0003"><ellipse cx="28.4321" cy="501.5" fill="#F1F1F1" rx="8" ry="8" style="stroke:#181818;stroke-width:0.5;"/><path d="M28.4321,509.5 L28.4321,536.5 M15.4321,517.5 L41.4321,517.5 M28.4321,536.5 L15.4321,551.5 M28.4321,536.5 L41.4321,551.5" fill="none" style="stroke:#181818;stroke-width:0.5;"/><text fill="#000000" font-family="sans-serif" font-size="14" lengthAdjust="spacing" textLength="44.8643" x="6" y="565.9951">Admin</text></g><!--link U to UC1--><g class="link" data-entity-1="ent0002" data-entity-2="ent0005" data-link-type="dependency" data-source-line="18" id="lnk15"><path d="M29.97,257.68 C32.63,212.74 43.84,138.84 87,95 C100.23,81.56 112.6594,74.8933 130.7094,69.7533" fill="none" id="U-to-UC1" style="stroke:#181818;stroke-width:1;"/><polygon fill="#181818" points="136.48,68.11,126.7286,66.7278,131.6712,69.4794,128.9196,74.4219,136.48,68.11" style="stroke:#181818;stroke-width:1;"/></g><!--link U to UC2--><g class="link" data-entity-1="ent0002" data-entity-2="ent0006" data-link-type="dependency" data-source-line="19" id="lnk16"><path d="M36.05,257.83 C43.31,226.92 58.06,184.48 87,159 C111.05,137.83 141.9871,131.1193 167.5871,128.6793" fill="none" id="U-to-UC2" style="stroke:#181818;stroke-width:1;"/><polygon fill="#181818" points="173.56,128.11,164.2211,124.982,168.5826,128.5844,164.9801,132.9459,173.56,128.11" style="stroke:#181818;stroke-width:1;"/></g><!--link U to UC3--><g class="link" data-entity-1="ent0002" data-entity-2="ent0007" data-link-type="dependency" data-source-line="20" id="lnk17"><path d="M36.1,334.11 C43.39,364.98 58.16,407.4 87,433 C103.53,447.67 120.3178,454.5713 141.1778,459.1213" fill="none" id="U-to-UC3" style="stroke:#181818;stroke-width:1;"/><polygon fill="#181818" points="147.04,460.4,139.0992,454.5739,142.1549,459.3344,137.3943,462.3901,147.04,460.4" style="stroke:#181818;stroke-width:1;"/></g><!--link U to UC4--><g class="link" data-entity-1="ent0002" data-entity-2="ent0008" data-link-type="dependency" data-source-line="21" id="lnk18"><path d="M44.69,270.66 C54.9,255.64 69.64,237.39 87,226 C104.87,214.27 121.1235,208.0826 141.1735,203.1526" fill="none" id="U-to-UC4" style="stroke:#181818;stroke-width:1;"/><polygon fill="#181818" points="147,201.72,137.3052,199.9847,142.1446,202.9139,139.2154,207.7533,147,201.72" style="stroke:#181818;stroke-width:1;"/></g><!--link U to UC5--><g class="link" data-entity-1="ent0002" data-entity-2="ent0009" data-link-type="dependency" data-source-line="22" id="lnk19"><path d="M44.61,319.1 C54.99,333.31 69.95,350.87 87,362 C104.06,373.13 119.0107,379.3521 138.1607,384.8221" fill="none" id="U-to-UC5" style="stroke:#181818;stroke-width:1;"/><polygon fill="#181818" points="143.93,386.47,136.3747,380.1519,139.1223,385.0967,134.1775,387.8443,143.93,386.47" style="stroke:#181818;stroke-width:1;"/></g><!--link U to UC6--><g class="link" data-entity-1="ent0002" data-entity-2="ent0010" data-link-type="dependency" data-source-line="23" id="lnk20"><path d="M44.55,293.04 C66.58,288.71 102.9326,281.5671 138.1926,274.6371" fill="none" id="U-to-UC6" style="stroke:#181818;stroke-width:1;"/><polygon fill="#181818" points="144.08,273.48,134.4775,271.2907,139.1739,274.4443,136.0203,279.1406,144.08,273.48" style="stroke:#181818;stroke-width:1;"/></g><!--link U to UC7--><g class="link" data-entity-1="ent0002" data-entity-2="ent0011" data-link-type="dependency" data-source-line="24" id="lnk21"><path d="M29.78,334.23 C32.21,379.46 43.19,454.15 87,498 C102.11,513.12 117.7722,520.1315 138.1622,524.6515" fill="none" id="U-to-UC7" style="stroke:#181818;stroke-width:1;"/><polygon fill="#181818" points="144.02,525.95,136.099,520.097,139.1385,524.8679,134.3676,527.9074,144.02,525.95" style="stroke:#181818;stroke-width:1;"/></g><!--link U to UC8--><g class="link" data-entity-1="ent0002" data-entity-2="ent0012" data-link-type="dependency" data-source-line="25" id="lnk22"><path d="M44.55,298.96 C72.42,304.43 126.7426,315.1129 164.2426,322.4829" fill="none" id="U-to-UC8" style="stroke:#181818;stroke-width:1;"/><polygon fill="#181818" points="170.13,323.64,162.0703,317.9795,165.2239,322.6758,160.5276,325.8293,170.13,323.64" style="stroke:#181818;stroke-width:1;"/></g><!--link A to UC9--><g class="link" data-entity-1="ent0003" data-entity-2="ent0013" data-link-type="dependency" data-source-line="27" id="lnk23"><path d="M51.04,544.49 C61.6,550.7 74.67,557.83 87,563 C108.98,572.22 128.4877,578.4051 149.8077,584.1651" fill="none" id="A-to-UC9" style="stroke:#181818;stroke-width:1;"/><polygon fill="#181818" points="155.6,585.73,147.9548,579.5211,150.7731,584.4259,145.8682,587.2442,155.6,585.73" style="stroke:#181818;stroke-width:1;"/></g><!--link A to UC10--><g class="link" data-entity-1="ent0003" data-entity-2="ent0014" data-link-type="dependency" data-source-line="28" id="lnk24"><path d="M43.41,569.27 C52.77,590.01 67.08,614.49 87,630 C104.2,643.39 120.7537,649.9904 141.2437,654.7204" fill="none" id="A-to-UC10" style="stroke:#181818;stroke-width:1;"/><polygon fill="#181818" points="147.09,656.07,139.2203,650.1481,142.2181,654.9454,137.4209,657.9431,147.09,656.07" style="stroke:#181818;stroke-width:1;"/></g><!--link A to UC3--><g class="link" data-entity-1="ent0003" data-entity-2="ent0007" data-link-type="dependency" data-source-line="29" id="lnk25"><path d="M51.23,516.8 C61.72,510.4 74.68,503.15 87,498 C109.66,488.54 130.1451,482.4388 151.9251,477.0588" fill="none" id="A-to-UC3" style="stroke:#181818;stroke-width:1;"/><polygon fill="#181818" points="157.75,475.62,148.0534,473.895,152.8959,476.819,149.9718,481.6616,157.75,475.62" style="stroke:#181818;stroke-width:1;"/></g><!--link A to UC5--><g class="link" data-entity-1="ent0003" data-entity-2="ent0009" data-link-type="dependency" data-source-line="30" id="lnk26"><path d="M44.18,492.72 C53.64,472.66 67.8,449.18 87,434 C102.32,421.89 115.9955,415.4843 134.5255,410.1343" fill="none" id="A-to-UC5" style="stroke:#181818;stroke-width:1;"/><polygon fill="#181818" points="140.29,408.47,130.5336,407.1235,135.4862,409.857,132.7527,414.8095,140.29,408.47" style="stroke:#181818;stroke-width:1;"/></g><!--link A to UC7--><g class="link" data-entity-1="ent0003" data-entity-2="ent0011" data-link-type="dependency" data-source-line="31" id="lnk27"><path d="M51.06,531 C73.34,531 103.17,531 134.39,531" fill="none" id="A-to-UC7" style="stroke:#181818;stroke-width:1;"/><polygon fill="#181818" points="140.39,531,131.39,527,135.39,531,131.39,535,140.39,531" style="stroke:#181818;stroke-width:1;"/></g><?plantuml-src PP1DQmCX48Rl_efXxu7cSvDBGSoXXmP2Mqjx57Uo4Om6FmYXzB_NJLsnwSc7UH_6cT5u210iEDKV0tJAeGpA6Y9ai0uQxj4r83pmiKAxapAt4YLai8NfDKBpeTAh37n6OU2DxU3rwWEU6lWY0D6Z53vPBzYhL7P0fRJHXD_UR5expxRFFt0sguDtXHVOEtjG6dC-htD-xaJ0EsDH6-oOfas6yFvYNPULPQqCepDhVDH139V8pkhV84zf4UkkEM_lDh1nt6rT9pjXH1fWEAlF-QREjwWn_Csd3-IR40wJoUFjKYFD2iqBBGej2wqAjONMXD2CcqBf8rewqj9dfFO7?></g></svg>